<svg width="44" height="44" viewBox="0 0 44 44" fill="none" xmlns="http://www.w3.org/2000/svg">
<rect width="44" height="44" rx="15" fill="#2AD6FC"/>
<path d="M22.0393 16.0166C19.5726 16.1888 17.625 18.2444 17.625 20.7549C17.625 23.3782 19.7516 25.5049 22.375 25.5049C24.9984 25.5049 27.125 23.3782 27.125 20.7549C27.125 18.1315 24.9984 16.0049 22.375 16.0049C22.3717 16.0049 22.3684 16.0049 22.3651 16.0049C22.3274 16.0017 22.2891 16 22.25 16C22.1773 16 22.1071 16.0058 22.0393 16.0166ZM20.4183 17.8525C20.1924 18.5287 20.0498 19.3576 20.0108 20.25H18.9111C19.0552 19.2531 19.6193 18.3922 20.4183 17.8525ZM20.044 21.75C20.1073 22.4565 20.2372 23.1094 20.4226 23.6601C19.7557 23.2111 19.2519 22.5386 19.0185 21.75H20.044ZM24.0096 23.8505C24.0107 23.8476 24.0118 23.8447 24.0129 23.8418C24.2328 23.2554 24.3856 22.5359 24.456 21.75H25.7315C25.4623 22.6595 24.8334 23.4146 24.0096 23.8505ZM22.949 21.75C22.8843 22.3676 22.7625 22.9043 22.6084 23.3151C22.4911 23.6278 22.3696 23.8288 22.2727 23.9381C22.2645 23.9473 22.2569 23.9554 22.25 23.9626C22.2431 23.9554 22.2355 23.9473 22.2273 23.9381C22.1304 23.8288 22.0089 23.6278 21.8916 23.3151C21.7375 22.9043 21.6157 22.3676 21.551 21.75H22.949ZM22.9875 20.25H21.5125C21.5542 19.4216 21.6973 18.7031 21.8916 18.1849C22.0089 17.8722 22.1304 17.6712 22.2273 17.5619C22.2355 17.5527 22.2431 17.5446 22.25 17.5374C22.2569 17.5446 22.2645 17.5527 22.2727 17.5619C22.3696 17.6712 22.4911 17.8722 22.6084 18.1849C22.8027 18.7031 22.9458 19.4216 22.9875 20.25ZM24.4892 20.25C24.4465 19.2718 24.2792 18.3698 24.0142 17.6617C24.9796 18.1743 25.6764 19.1257 25.8389 20.25H24.4892ZM22.3075 17.4895C22.3079 17.4892 22.3075 17.4895 22.3075 17.4895C22.3075 17.4894 22.3061 17.4899 22.3034 17.4915C22.305 17.4909 22.3068 17.4898 22.3075 17.4895ZM22.194 17.4904C22.1946 17.4907 22.1955 17.4911 22.1966 17.4915C22.1939 17.4899 22.1925 17.4894 22.1925 17.4895C22.1925 17.4896 22.193 17.4899 22.194 17.4904ZM16.5 12C15.1193 12 14 13.1193 14 14.5V29.5C14 30.8807 15.1193 32 16.5 32H29.75C30.1642 32 30.5 31.6642 30.5 31.25C30.5 30.8358 30.1642 30.5 29.75 30.5H16.5C15.9477 30.5 15.5 30.0523 15.5 29.5H29.75C30.1642 29.5 30.5 29.1642 30.5 28.75V14.5C30.5 13.1193 29.3807 12 28 12H16.5ZM29 14.5V28H15.5V14.5C15.5 13.9477 15.9477 13.5 16.5 13.5H28C28.5523 13.5 29 13.9477 29 14.5ZM22.3034 24.0085C22.3061 24.0096 22.3075 24.0104 22.3075 24.0105L22.3034 24.0085Z" fill="#212121"/>
</svg>
