<svg width="220" height="65" viewBox="0 0 220 65" fill="none" xmlns="http://www.w3.org/2000/svg">
<g clip-path="url(#clip0_1206_867)">
<path d="M65.1669 34.6324C65.0192 35.1126 64.892 35.6424 64.7865 36.2156C64.7037 35.6154 64.5955 35.0713 64.4631 34.588L59.8578 16.8433H50.0342L58.2133 43.7557L62.1111 44.2845C62.1111 44.2845 60.521 46.7877 58.8469 47.585C58.2634 47.8648 57.0584 48.0313 56.2839 48.0313C55.2335 48.0313 54.2881 47.9382 53.474 47.7537L53.1533 47.6802V55.5186L53.3627 55.562C54.6706 55.8337 55.9632 55.9717 57.2083 55.9717C60.4429 55.9717 63.1088 55.1939 65.1294 53.6605C67.1427 52.1319 69.7025 49.2041 71.0732 45.5308L79.3964 16.8433H69.8925L65.1669 34.6324Z" fill="white"/>
<path d="M134.373 16.3684C129.581 16.3684 126.081 17.1943 122.93 18.8213L122.711 18.935L125.592 25.5335L125.835 25.4272C128.804 24.1174 131.281 23.4538 133.194 23.4538C135.217 23.4538 136.201 24.4558 136.201 26.5148V26.6386L131.973 26.7739C128.163 26.9495 125.206 27.7611 123.183 29.1846C121.127 30.6323 120.085 32.8589 120.085 35.8026C120.085 38.6156 120.844 40.8353 122.338 42.4C123.836 43.9667 125.909 44.7609 128.502 44.7609C130.582 44.7609 132.308 44.4653 133.632 43.8842C134.912 43.3205 136.181 42.2836 137.406 40.7983L139.146 44.286H145.995L144.939 26.3731C144.939 23.2376 143.958 20.7582 142.02 19.0043C140.091 17.2546 137.868 16.3684 134.373 16.3684ZM136.249 32.2778V34.092C136.249 35.1617 135.886 36.0067 135.14 36.6729C134.395 37.3381 133.485 37.6749 132.436 37.6749C130.821 37.6749 129.542 36.9748 129.542 35.4689C129.542 33.4829 131.482 32.4666 134.39 32.3603L136.249 32.2778Z" fill="white"/>
<path d="M151.244 44.2845H161.038V24.2845H171.2L171.728 16.8433H151.244V44.2845Z" fill="white"/>
<path d="M194.025 19.0027C192.095 17.2541 189.872 16.3684 186.377 16.3684C181.585 16.3684 178.085 17.1943 174.934 18.8213L174.713 18.935L177.597 25.5335L177.839 25.4272C180.809 24.1174 183.285 23.4538 185.198 23.4538C187.221 23.4538 188.205 24.4558 188.205 26.5148V26.6386L183.977 26.7739C180.168 26.9495 177.21 27.7611 175.187 29.1846C173.13 30.6323 172.089 32.8589 172.089 35.8026C172.089 38.6156 172.848 40.8353 174.343 42.4C175.841 43.9667 177.913 44.7609 180.505 44.7609C182.586 44.7609 184.312 44.4653 185.636 43.8842C186.917 43.3205 188.184 42.2836 189.409 40.7983L191.15 44.286H197.999L196.944 26.3731C196.944 23.236 195.962 20.7566 194.025 19.0027ZM188.252 32.2778V34.092C188.252 35.1617 187.889 36.0067 187.143 36.6729C186.399 37.3381 185.488 37.6749 184.44 37.6749C182.825 37.6749 181.545 36.9748 181.545 35.4689C181.545 33.4829 183.486 32.4666 186.394 32.3603L188.252 32.2778Z" fill="white"/>
<path d="M44.2629 24.5515C41.7015 22.7627 37.9261 21.8548 33.0444 21.8548H31.9565V17.0869H44.293L45.3482 9.02856H29.4848L22.0205 16.5106V44.2839H33.3994C38.1303 44.2839 41.8091 43.2861 44.3331 41.3191C46.8782 39.3362 48.1686 36.4486 48.1686 32.7373C48.1686 29.1163 46.8544 26.362 44.2629 24.5515ZM37.0086 35.5905C36.2067 36.2017 34.8413 36.5105 32.9505 36.5105H31.957V29.4859H32.9025C34.72 29.4859 36.079 29.7762 36.9395 30.3451C37.7768 30.8998 38.1841 31.7442 38.1841 32.9271C38.1846 34.1179 37.8 34.9898 37.0086 35.5905Z" fill="white"/>
<path d="M29.4775 16.5263H22L29.4775 9.03271V16.5263Z" fill="#ACD489"/>
<path d="M98.536 31.4078C98.3492 30.3656 95.1252 17.1074 95.1252 17.1074H83.1601L80.1064 44.5481H89.47L90.5964 26.0303L90.6006 26.0435C91.4469 29.627 95.2344 41.9043 95.2344 41.9043H101.818C101.818 41.9043 106.094 27.6864 106.399 26.2862L107.526 44.5481H116.89L113.836 17.1074H102.085C102.085 17.1074 98.7629 30.3017 98.536 31.4078Z" fill="white"/>
</g>
<defs>
<clipPath id="clip0_1206_867">
<rect width="176" height="47" fill="white" transform="translate(22 9)"/>
</clipPath>
</defs>
</svg>
