<svg width="334" height="17" viewBox="0 0 334 17" fill="none" xmlns="http://www.w3.org/2000/svg">
<path d="M1 13.4561C14.1544 2.28673 27.3728 11.2813 40.9788 14.6255C50.3459 16.9279 63.0357 15.3378 71.808 12.0529C84.4828 7.30666 92.5552 -2.35832 106.694 2.18327C126.578 8.57068 144.981 18.4818 166.279 13.8771C179.213 11.0806 194.545 6.04606 207.79 8.5915C216.313 10.2294 223.91 14.6115 232.76 15.3272C243.132 16.1659 253.465 16.7196 263.589 13.8303C269.32 12.1949 273.591 7.87421 279.725 7.09469C287.72 6.07864 296.384 6.18514 304.244 8.0302C313.934 10.3049 323.093 14.6212 333 15.982" stroke="#E8C50A" stroke-linecap="round"/>
</svg>
