<svg width="255" height="90" viewBox="0 0 255 90" fill="none" xmlns="http://www.w3.org/2000/svg">
<mask id="mask0_1128_1037" style="mask-type:luminance" maskUnits="userSpaceOnUse" x="25" y="20" width="206" height="63">
<path d="M230.332 20H25.5V82.3745H230.332V20Z" fill="white"/>
</mask>
<g mask="url(#mask0_1128_1037)">
<path d="M25.5 33.6864C25.5 25.584 30.731 20.6289 39.8903 20.6289C46.9719 20.6289 51.53 23.3622 53.5606 28.8289C54.0575 30.2229 53.6975 30.8554 52.2968 31.3513L46.162 33.5067C44.7183 33.8972 44.1783 33.6864 43.6345 32.2455C42.9108 30.3986 42.0108 29.6801 39.8903 29.6801C36.8228 29.6801 35.9777 30.7617 35.9777 33.6435V40.9337C35.9777 43.8154 36.8346 44.8969 39.8903 44.8969C41.7839 44.8969 43.0476 44.0418 43.6815 42.3315C44.2214 40.8906 44.8083 40.5744 46.209 41.0703L52.3008 43.2295C53.6975 43.7255 54.0614 44.4011 53.5645 45.795C51.53 51.2382 46.9719 53.9442 39.8903 53.9442C30.731 53.9442 25.5 48.9929 25.5 40.8906V33.6864Z" fill="white"/>
<path d="M76.3388 29.8594C77.6456 29.8594 78.1425 30.3553 78.1425 31.6595V52.8193C78.1425 59.4379 74.5782 63.6237 66.7727 63.6237C61.5416 63.6237 58.4742 62.1829 56.3536 58.938C55.6768 57.8565 55.9937 56.9857 57.3475 56.3727L62.3085 53.9869C63.6622 53.3114 64.1592 53.8072 64.699 54.5257C65.3302 55.4264 66.0071 55.8767 66.7296 55.8767C67.7235 55.8767 68.2163 55.291 68.2163 54.1665V52.5499C67.8251 52.5968 67.1326 52.5968 66.2328 52.5968C59.1511 52.5968 55.6689 48.9965 55.6689 42.5107V31.6595C55.6689 30.3553 56.1658 29.8594 57.4726 29.8594H63.7992C65.1059 29.8594 65.6028 30.3553 65.6028 31.6595V42.0617C65.6028 43.323 65.9941 43.729 67.2265 43.729C67.5584 43.7431 67.8909 43.7288 68.2203 43.6861V31.6595C68.2203 30.3553 68.7172 29.8594 70.024 29.8594H76.3388Z" fill="white"/>
<path d="M88.8364 20C90.1432 20 90.64 20.3905 90.64 21.8001V29.2738C91.4969 29.2269 92.1269 29.184 92.6237 29.184C99.7054 29.184 103.188 32.7412 103.188 39.2231V43.366C103.188 50.254 99.3533 53.9479 91.7747 53.9479C87.9404 53.9479 84.873 53.409 82.5255 52.386C80.9605 51.605 80.7218 51.2615 80.7218 49.6527V21.8001C80.714 20.3905 81.2109 20 82.5177 20H88.8364ZM93.2576 38.7741C93.2576 37.9619 92.7959 37.5714 91.8569 37.5714L90.64 37.751V45.213C90.6408 45.2477 90.6493 45.2819 90.6647 45.3129C90.6804 45.344 90.7026 45.3712 90.73 45.3927C91.0482 45.5067 91.3866 45.5532 91.7238 45.5293C92.7606 45.5293 93.2576 45.0802 93.2576 44.1782V38.7741Z" fill="white"/>
<path d="M105.029 39.9461C105.029 32.9683 109.181 29.1846 116.767 29.1846C120.601 29.1846 123.536 30.1295 125.519 32.0663C127.503 34.003 128.497 36.4318 128.497 39.4033V41.6095C128.497 43.2312 127.64 44.0421 125.926 44.0421H114.971V44.6279C114.971 46.1585 115.602 46.9238 116.865 46.9238C117.43 46.9229 117.987 46.7876 118.489 46.5288C118.991 46.27 119.424 45.8955 119.752 45.4362C120.339 44.6552 120.566 44.5341 122.233 45.0769L126.145 46.6974C127.409 47.2363 127.71 48.0913 127.139 49.2628C125.468 52.3866 121.998 53.9485 116.72 53.9485C108.734 53.9485 105.037 49.6533 105.037 43.144L105.029 39.9461ZM118.563 37.6501C118.563 36.256 118.171 35.6703 116.759 35.6703C115.452 35.6703 114.955 36.256 114.955 37.6501V38.0406H118.563V37.6501Z" fill="white"/>
<path d="M143.509 29.1846C144.816 29.1846 145.313 29.575 145.313 30.9847V35.8032C145.313 37.1073 144.816 37.6032 143.509 37.6032H141.748C141.416 37.5902 141.084 37.6059 140.755 37.6501C140.618 37.6501 140.528 37.7399 140.528 37.9195V51.469C140.528 52.7732 140.031 53.269 138.724 53.269H132.409C131.102 53.269 130.605 52.7732 130.605 51.469V33.5072C130.605 31.8867 130.965 31.258 132.562 30.6723C134.771 29.8158 137.974 29.3212 142.171 29.1885L143.509 29.1846Z" fill="white"/>
<path d="M155.959 21.3047C157.45 21.3047 157.943 21.8006 157.943 23.2844V44.21H168.001C169.492 44.21 169.986 44.7058 169.986 46.1897V51.2659C169.986 52.7497 169.489 53.2455 168.001 53.2455H149.464C147.977 53.2455 147.48 52.7497 147.48 51.2659V23.2883C147.48 21.8045 147.977 21.3086 149.464 21.3086L155.959 21.3047Z" fill="url(#paint0_linear_1128_1037)"/>
<path d="M155.959 21.3047C157.45 21.3047 157.943 21.8006 157.943 23.2844V44.21H168.001C169.492 44.21 169.986 44.7058 169.986 46.1897V51.2659C169.986 52.7497 169.489 53.2455 168.001 53.2455H149.464C147.977 53.2455 147.48 52.7497 147.48 51.2659V23.2883C147.48 21.8045 147.977 21.3086 149.464 21.3086L155.959 21.3047Z" fill="url(#paint1_linear_1128_1037)"/>
<path d="M155.959 21.3047C157.45 21.3047 157.943 21.8006 157.943 23.2844V44.21H168.001C169.492 44.21 169.986 44.7058 169.986 46.1897V51.2659C169.986 52.7497 169.489 53.2455 168.001 53.2455H149.464C147.977 53.2455 147.48 52.7497 147.48 51.2659V23.2883C147.48 21.8045 147.977 21.3086 149.464 21.3086L155.959 21.3047Z" fill="white"/>
<path d="M155.959 21.3047C157.45 21.3047 157.943 21.8006 157.943 23.2844V44.21H168.001C169.492 44.21 169.986 44.7058 169.986 46.1897V51.2659C169.986 52.7497 169.489 53.2455 168.001 53.2455H149.464C147.977 53.2455 147.48 52.7497 147.48 51.2659V23.2883C147.48 21.8045 147.977 21.3086 149.464 21.3086L155.959 21.3047Z" fill="url(#paint2_linear_1128_1037)"/>
<path d="M182.483 29.1846C190.287 29.1846 193.356 32.6988 193.356 39.1339V49.8055C193.356 51.5627 193.038 52.0547 191.595 52.6404C189.611 53.4956 186.544 53.9445 182.346 53.9445C178.041 53.9445 175.174 53.3589 173.593 52.1875C172.013 51.0161 171.202 49.1261 171.202 46.4241C171.202 43.4994 172.06 41.4728 173.773 40.3912C175.486 39.3096 178.421 38.8293 182.568 38.8293H183.472V37.5134C183.472 36.6582 182.933 36.2092 181.907 36.2092C181.653 36.1825 181.394 36.2132 181.153 36.2991C180.911 36.3849 180.691 36.5236 180.51 36.7051C180.293 36.8931 180.097 37.1039 179.923 37.3338L179.697 37.6501C179.11 38.431 178.793 38.5951 177.036 38.0406L173.065 36.4201C171.802 35.8813 171.501 35.0261 172.071 33.8546C173.73 30.7621 177.205 29.1846 182.483 29.1846ZM183.476 44.8973H182.392C181.265 44.8973 180.722 45.3931 180.722 46.3811C180.722 47.369 181.262 47.7751 182.287 47.7751C182.633 47.7888 182.98 47.7743 183.323 47.7322C183.342 47.7348 183.361 47.733 183.38 47.7271C183.397 47.7211 183.413 47.7111 183.426 47.6979C183.44 47.6846 183.449 47.6684 183.456 47.6507C183.462 47.6329 183.463 47.614 183.461 47.5954L183.476 44.8973Z" fill="url(#paint3_linear_1128_1037)"/>
<path d="M182.483 29.1846C190.287 29.1846 193.356 32.6988 193.356 39.1339V49.8055C193.356 51.5627 193.038 52.0547 191.595 52.6404C189.611 53.4956 186.544 53.9445 182.346 53.9445C178.041 53.9445 175.174 53.3589 173.593 52.1875C172.013 51.0161 171.202 49.1261 171.202 46.4241C171.202 43.4994 172.06 41.4728 173.773 40.3912C175.486 39.3096 178.421 38.8293 182.568 38.8293H183.472V37.5134C183.472 36.6582 182.933 36.2092 181.907 36.2092C181.653 36.1825 181.394 36.2132 181.153 36.2991C180.911 36.3849 180.691 36.5236 180.51 36.7051C180.293 36.8931 180.097 37.1039 179.923 37.3338L179.697 37.6501C179.11 38.431 178.793 38.5951 177.036 38.0406L173.065 36.4201C171.802 35.8813 171.501 35.0261 172.071 33.8546C173.73 30.7621 177.205 29.1846 182.483 29.1846ZM183.476 44.8973H182.392C181.265 44.8973 180.722 45.3931 180.722 46.3811C180.722 47.369 181.262 47.7751 182.287 47.7751C182.633 47.7888 182.98 47.7743 183.323 47.7322C183.342 47.7348 183.361 47.733 183.38 47.7271C183.397 47.7211 183.413 47.7111 183.426 47.6979C183.44 47.6846 183.449 47.6684 183.456 47.6507C183.462 47.6329 183.463 47.614 183.461 47.5954L183.476 44.8973Z" fill="url(#paint4_linear_1128_1037)"/>
<path d="M182.483 29.1846C190.287 29.1846 193.356 32.6988 193.356 39.1339V49.8055C193.356 51.5627 193.038 52.0547 191.595 52.6404C189.611 53.4956 186.544 53.9445 182.346 53.9445C178.041 53.9445 175.174 53.3589 173.593 52.1875C172.013 51.0161 171.202 49.1261 171.202 46.4241C171.202 43.4994 172.06 41.4728 173.773 40.3912C175.486 39.3096 178.421 38.8293 182.568 38.8293H183.472V37.5134C183.472 36.6582 182.933 36.2092 181.907 36.2092C181.653 36.1825 181.394 36.2132 181.153 36.2991C180.911 36.3849 180.691 36.5236 180.51 36.7051C180.293 36.8931 180.097 37.1039 179.923 37.3338L179.697 37.6501C179.11 38.431 178.793 38.5951 177.036 38.0406L173.065 36.4201C171.802 35.8813 171.501 35.0261 172.071 33.8546C173.73 30.7621 177.205 29.1846 182.483 29.1846ZM183.476 44.8973H182.392C181.265 44.8973 180.722 45.3931 180.722 46.3811C180.722 47.369 181.262 47.7751 182.287 47.7751C182.633 47.7888 182.98 47.7743 183.323 47.7322C183.342 47.7348 183.361 47.733 183.38 47.7271C183.397 47.7211 183.413 47.7111 183.426 47.6979C183.44 47.6846 183.449 47.6684 183.456 47.6507C183.462 47.6329 183.463 47.614 183.461 47.5954L183.476 44.8973Z" fill="white"/>
<path d="M182.483 29.1846C190.287 29.1846 193.356 32.6988 193.356 39.1339V49.8055C193.356 51.5627 193.038 52.0547 191.595 52.6404C189.611 53.4956 186.544 53.9445 182.346 53.9445C178.041 53.9445 175.174 53.3589 173.593 52.1875C172.013 51.0161 171.202 49.1261 171.202 46.4241C171.202 43.4994 172.06 41.4728 173.773 40.3912C175.486 39.3096 178.421 38.8293 182.568 38.8293H183.472V37.5134C183.472 36.6582 182.933 36.2092 181.907 36.2092C181.653 36.1825 181.394 36.2132 181.153 36.2991C180.911 36.3849 180.691 36.5236 180.51 36.7051C180.293 36.8931 180.097 37.1039 179.923 37.3338L179.697 37.6501C179.11 38.431 178.793 38.5951 177.036 38.0406L173.065 36.4201C171.802 35.8813 171.501 35.0261 172.071 33.8546C173.73 30.7621 177.205 29.1846 182.483 29.1846ZM183.476 44.8973H182.392C181.265 44.8973 180.722 45.3931 180.722 46.3811C180.722 47.369 181.262 47.7751 182.287 47.7751C182.633 47.7888 182.98 47.7743 183.323 47.7322C183.342 47.7348 183.361 47.733 183.38 47.7271C183.397 47.7211 183.413 47.7111 183.426 47.6979C183.44 47.6846 183.449 47.6684 183.456 47.6507C183.462 47.6329 183.463 47.614 183.461 47.5954L183.476 44.8973Z" fill="url(#paint5_linear_1128_1037)"/>
<path d="M228.629 29.8594C230.3 29.8594 230.614 30.3084 230.117 31.9289L225.108 51.6947C224.792 52.7295 223.982 53.2566 222.671 53.2566H216.49C215.002 53.2566 214.188 52.7178 214.008 51.6947L213.43 48.5045C213.113 46.7474 212.843 43.9125 212.71 42.2922L212.62 41.1206H212.229C212.052 43.601 211.714 46.0674 211.219 48.5045L210.542 51.7026C210.316 52.7373 209.506 53.2645 208.104 53.2645H202.42C201.065 53.2645 200.256 52.7255 199.939 51.7026L194.798 31.9289C194.301 30.3084 194.618 29.8594 196.285 29.8594H202.059C204.181 29.8594 204.631 30.1757 204.858 31.6595L205.445 35.9547C205.603 36.9532 205.709 37.9594 205.761 38.9692C205.808 40.2733 205.851 41.4447 205.851 42.3897L205.898 43.7837H206.289C206.343 41.1641 206.539 38.5492 206.876 35.9508L207.565 31.7141C207.745 30.1522 208.347 29.8672 210.542 29.8672H214.557C216.721 29.8672 217.264 30.1835 217.487 31.6673L218.21 35.9625C218.37 36.961 218.476 37.9672 218.527 38.977C218.617 40.2812 218.665 41.4526 218.707 42.3976L218.755 43.7915H219.204C219.294 40.2343 219.431 37.6221 219.655 35.9587L220.194 31.7141C220.374 30.1522 220.829 29.8672 223.035 29.8672L228.629 29.8594Z" fill="url(#paint6_linear_1128_1037)"/>
<path d="M228.629 29.8594C230.3 29.8594 230.614 30.3084 230.117 31.9289L225.108 51.6947C224.792 52.7295 223.982 53.2566 222.671 53.2566H216.49C215.002 53.2566 214.188 52.7178 214.008 51.6947L213.43 48.5045C213.113 46.7474 212.843 43.9125 212.71 42.2922L212.62 41.1206H212.229C212.052 43.601 211.714 46.0674 211.219 48.5045L210.542 51.7026C210.316 52.7373 209.506 53.2645 208.104 53.2645H202.42C201.065 53.2645 200.256 52.7255 199.939 51.7026L194.798 31.9289C194.301 30.3084 194.618 29.8594 196.285 29.8594H202.059C204.181 29.8594 204.631 30.1757 204.858 31.6595L205.445 35.9547C205.603 36.9532 205.709 37.9594 205.761 38.9692C205.808 40.2733 205.851 41.4447 205.851 42.3897L205.898 43.7837H206.289C206.343 41.1641 206.539 38.5492 206.876 35.9508L207.565 31.7141C207.745 30.1522 208.347 29.8672 210.542 29.8672H214.557C216.721 29.8672 217.264 30.1835 217.487 31.6673L218.21 35.9625C218.37 36.961 218.476 37.9672 218.527 38.977C218.617 40.2812 218.665 41.4526 218.707 42.3976L218.755 43.7915H219.204C219.294 40.2343 219.431 37.6221 219.655 35.9587L220.194 31.7141C220.374 30.1522 220.829 29.8672 223.035 29.8672L228.629 29.8594Z" fill="url(#paint7_linear_1128_1037)"/>
<path d="M228.629 29.8594C230.3 29.8594 230.614 30.3084 230.117 31.9289L225.108 51.6947C224.792 52.7295 223.982 53.2566 222.671 53.2566H216.49C215.002 53.2566 214.188 52.7178 214.008 51.6947L213.43 48.5045C213.113 46.7474 212.843 43.9125 212.71 42.2922L212.62 41.1206H212.229C212.052 43.601 211.714 46.0674 211.219 48.5045L210.542 51.7026C210.316 52.7373 209.506 53.2645 208.104 53.2645H202.42C201.065 53.2645 200.256 52.7255 199.939 51.7026L194.798 31.9289C194.301 30.3084 194.618 29.8594 196.285 29.8594H202.059C204.181 29.8594 204.631 30.1757 204.858 31.6595L205.445 35.9547C205.603 36.9532 205.709 37.9594 205.761 38.9692C205.808 40.2733 205.851 41.4447 205.851 42.3897L205.898 43.7837H206.289C206.343 41.1641 206.539 38.5492 206.876 35.9508L207.565 31.7141C207.745 30.1522 208.347 29.8672 210.542 29.8672H214.557C216.721 29.8672 217.264 30.1835 217.487 31.6673L218.21 35.9625C218.37 36.961 218.476 37.9672 218.527 38.977C218.617 40.2812 218.665 41.4526 218.707 42.3976L218.755 43.7915H219.204C219.294 40.2343 219.431 37.6221 219.655 35.9587L220.194 31.7141C220.374 30.1522 220.829 29.8672 223.035 29.8672L228.629 29.8594Z" fill="white"/>
<path d="M228.629 29.8594C230.3 29.8594 230.614 30.3084 230.117 31.9289L225.108 51.6947C224.792 52.7295 223.982 53.2566 222.671 53.2566H216.49C215.002 53.2566 214.188 52.7178 214.008 51.6947L213.43 48.5045C213.113 46.7474 212.843 43.9125 212.71 42.2922L212.62 41.1206H212.229C212.052 43.601 211.714 46.0674 211.219 48.5045L210.542 51.7026C210.316 52.7373 209.506 53.2645 208.104 53.2645H202.42C201.065 53.2645 200.256 52.7255 199.939 51.7026L194.798 31.9289C194.301 30.3084 194.618 29.8594 196.285 29.8594H202.059C204.181 29.8594 204.631 30.1757 204.858 31.6595L205.445 35.9547C205.603 36.9532 205.709 37.9594 205.761 38.9692C205.808 40.2733 205.851 41.4447 205.851 42.3897L205.898 43.7837H206.289C206.343 41.1641 206.539 38.5492 206.876 35.9508L207.565 31.7141C207.745 30.1522 208.347 29.8672 210.542 29.8672H214.557C216.721 29.8672 217.264 30.1835 217.487 31.6673L218.21 35.9625C218.37 36.961 218.476 37.9672 218.527 38.977C218.617 40.2812 218.665 41.4526 218.707 42.3976L218.755 43.7915H219.204C219.294 40.2343 219.431 37.6221 219.655 35.9587L220.194 31.7141C220.374 30.1522 220.829 29.8672 223.035 29.8672L228.629 29.8594Z" fill="url(#paint8_linear_1128_1037)"/>
<path d="M149.687 64.183C151.057 63.1638 152.927 62.6641 155.321 62.6641C159.112 62.6641 161.378 63.6324 162.552 65.9987C162.943 66.7797 162.728 67.1193 161.929 67.4434L158.862 68.7358C158.138 69.0326 157.864 68.9116 157.465 68.1892C157.14 67.5684 156.417 67.2443 155.321 67.2443C154.125 67.2443 153.525 67.541 153.525 68.1151C153.525 68.8374 154.347 69.0599 156.342 69.3334C157.215 69.4528 158.082 69.6183 158.936 69.8293C159.822 70.0513 160.649 70.4675 161.355 71.0476C162.477 71.9183 163.075 73.2615 163.15 75.4248C163.127 79.2318 159.387 81.1452 155.099 81.071C151.385 81.071 148.494 79.8254 147.594 77.3654C147.32 76.5844 147.52 76.2213 148.29 75.948L151.159 74.9289C151.941 74.6321 152.333 74.7063 152.755 75.4248C153.103 76.0222 153.901 76.319 155.172 76.319C156.57 76.319 157.266 76.1197 157.266 75.4482C157.266 74.7766 156.483 74.5775 154.774 74.3041C152.852 73.98 151.506 73.6559 150.736 73.2849C148.666 72.3634 147.645 70.6727 147.645 68.2361C147.623 67.4447 147.799 66.6603 148.155 65.9529C148.511 65.2457 149.038 64.6376 149.687 64.183Z" fill="white"/>
<path d="M163.823 73.0662C163.823 69.4855 165.944 67.3926 170.232 67.3926C173.3 67.3926 175.216 68.8373 175.991 71.0006C176.265 71.7815 176.093 72.0939 175.318 72.3672L172.302 73.3629C171.519 73.6363 171.178 73.4605 170.881 72.6913C170.607 72.0196 170.384 71.8713 169.958 71.8713C169.531 71.8713 169.285 72.1681 169.285 72.7655V75.7019C169.285 76.2758 169.509 76.5726 169.958 76.5726C170.408 76.5726 170.607 76.4751 170.881 75.7917C171.178 75.0107 171.504 74.8702 172.302 75.1435L175.431 76.065C176.179 76.2876 176.401 76.7601 176.104 77.5097C175.107 79.8721 173.065 81.0669 169.973 81.0669C165.811 81.0669 163.843 79.0287 163.843 75.37L163.823 73.0662Z" fill="white"/>
<path d="M181.697 62.292C182.479 62.292 182.695 62.5653 182.695 63.2876V67.4189C182.917 67.3955 183.293 67.3955 183.79 67.3955C187.702 67.3955 189.624 69.3868 189.624 72.9675V79.7111C189.624 80.4334 189.4 80.7067 188.626 80.7067H185.132C184.349 80.7067 184.134 80.4334 184.134 79.7111V73.2135C184.134 72.5185 183.911 72.292 183.238 72.292C183.055 72.2843 182.872 72.292 182.69 72.3154V79.7032C182.69 80.4256 182.467 80.699 181.692 80.699H178.207C177.424 80.699 177.209 80.4256 177.209 79.7032V63.2876C177.209 62.5653 177.431 62.292 178.207 62.292H181.697Z" fill="white"/>
<path d="M190.846 73.0388C190.846 69.4816 193.139 67.3926 197.256 67.3926C201.441 67.3926 203.688 69.4816 203.688 73.0388V75.4481C203.688 79.0053 201.445 81.0944 197.256 81.0944C193.144 81.0944 190.846 79.0053 190.846 75.4481V73.0388ZM198.226 72.8163C198.226 72.2696 197.903 71.9963 197.256 71.9963C196.633 71.9963 196.308 72.2696 196.308 72.8163V75.6511C196.308 76.1744 196.633 76.432 197.256 76.432C197.878 76.432 198.226 76.1587 198.226 75.6511V72.8163Z" fill="white"/>
<path d="M204.733 73.0388C204.733 69.4816 207.026 67.3926 211.141 67.3926C215.328 67.3926 217.575 69.4816 217.575 73.0388V75.4481C217.575 79.0053 215.332 81.0944 211.141 81.0944C207.029 81.0944 204.733 79.0053 204.733 75.4481V73.0388ZM212.112 72.8163C212.112 72.2696 211.788 71.9963 211.141 71.9963C210.519 71.9963 210.195 72.2696 210.195 72.8163V75.6511C210.195 76.1744 210.519 76.432 211.141 76.432C211.764 76.432 212.112 76.1587 212.112 75.6511V72.8163Z" fill="white"/>
<path d="M224.4 79.7071C224.4 80.4295 224.177 80.7028 223.402 80.7028H219.912C219.129 80.7028 218.915 80.4295 218.915 79.7071V63.2876C218.915 62.5653 219.138 62.292 219.912 62.292H223.402C224.185 62.292 224.4 62.5653 224.4 63.2876V79.7071Z" fill="white"/>
</g>
<defs>
<linearGradient id="paint0_linear_1128_1037" x1="10152.2" y1="477.74" x2="12160" y2="1892.61" gradientUnits="userSpaceOnUse">
<stop stop-color="#E6E129"/>
<stop offset="1" stop-color="#75B846"/>
</linearGradient>
<linearGradient id="paint1_linear_1128_1037" x1="142.519" y1="27.1189" x2="168.868" y2="53.5205" gradientUnits="userSpaceOnUse">
<stop stop-color="#E6E129"/>
<stop offset="1" stop-color="#75B846"/>
</linearGradient>
<linearGradient id="paint2_linear_1128_1037" x1="142.519" y1="27.1189" x2="168.868" y2="53.5205" gradientUnits="userSpaceOnUse">
<stop stop-color="#E6E129"/>
<stop offset="1" stop-color="#75B846"/>
</linearGradient>
<linearGradient id="paint3_linear_1128_1037" x1="10019.4" y1="383.005" x2="11662" y2="1852.84" gradientUnits="userSpaceOnUse">
<stop stop-color="#E6E129"/>
<stop offset="1" stop-color="#75B846"/>
</linearGradient>
<linearGradient id="paint4_linear_1128_1037" x1="166.32" y1="33.6917" x2="186.166" y2="58.9441" gradientUnits="userSpaceOnUse">
<stop stop-color="#E6E129"/>
<stop offset="1" stop-color="#75B846"/>
</linearGradient>
<linearGradient id="paint5_linear_1128_1037" x1="166.32" y1="33.6917" x2="186.166" y2="58.9441" gradientUnits="userSpaceOnUse">
<stop stop-color="#E6E129"/>
<stop offset="1" stop-color="#75B846"/>
</linearGradient>
<linearGradient id="paint6_linear_1128_1037" x1="16086.4" y1="364.318" x2="17518.3" y2="2551.55" gradientUnits="userSpaceOnUse">
<stop stop-color="#E6E129"/>
<stop offset="1" stop-color="#75B846"/>
</linearGradient>
<linearGradient id="paint7_linear_1128_1037" x1="186.704" y1="34.1199" x2="201.373" y2="65.9817" gradientUnits="userSpaceOnUse">
<stop stop-color="#E6E129"/>
<stop offset="1" stop-color="#75B846"/>
</linearGradient>
<linearGradient id="paint8_linear_1128_1037" x1="186.704" y1="34.1199" x2="201.373" y2="65.9817" gradientUnits="userSpaceOnUse">
<stop stop-color="#E6E129"/>
<stop offset="1" stop-color="#75B846"/>
</linearGradient>
</defs>
</svg>
