<svg width="532" height="66" viewBox="0 0 532 66" fill="none" xmlns="http://www.w3.org/2000/svg">
<path fill-rule="evenodd" clip-rule="evenodd" d="M56.2836 7.5163C50.186 3.10915 42.0358 0.905577 31.833 0.905577H2.94506C2.28097 0.905577 1.70744 1.14706 1.22446 1.63004C0.741487 2.11302 0.5 2.68655 0.5 3.35064V61.851C0.5 62.5151 0.741487 63.0886 1.22446 63.5716C1.70744 64.0545 2.28097 64.296 2.94506 64.296H31.833C42.1566 64.296 50.337 62.1528 56.3741 57.8664C62.4717 53.5196 65.5205 46.6373 65.5205 37.2192V27.9824C65.5205 27.0069 65.4861 26.0583 65.4175 25.1367H41.449C41.4981 25.5252 41.5227 25.9304 41.5227 26.3523V38.8493C41.5227 41.3245 40.6775 43.2564 38.9871 44.645C37.357 45.9732 35.1233 46.6373 32.2858 46.6373H24.045V25.1367H0.623717V18.5123H64.1911C62.7412 13.9168 60.1053 10.2515 56.2836 7.5163ZM78.7065 25.1367V61.851C78.7065 62.5151 78.948 63.0886 79.431 63.5716C79.914 64.0545 80.4875 64.296 81.1516 64.296H138.384C139.048 64.296 139.622 64.0545 140.105 63.5716C140.588 63.0886 140.829 62.5151 140.829 61.851V49.0823C140.829 48.4182 140.588 47.8447 140.105 47.3617C139.622 46.8787 139.048 46.6373 138.384 46.6373H102.252V40.9321H132.498C133.162 40.9321 133.735 40.6906 134.218 40.2077C134.701 39.7247 134.943 39.1511 134.943 38.4871V26.7145C134.943 26.1147 134.746 25.5887 134.352 25.1367H78.7065ZM137.993 18.5123H78.7065V3.35064C78.7065 2.68655 78.948 2.11302 79.431 1.63004C79.914 1.14706 80.4875 0.905577 81.1516 0.905577H137.479C138.143 0.905577 138.716 1.14706 139.199 1.63004C139.682 2.11302 139.924 2.68655 139.924 3.35064V16.1193C139.924 16.7834 139.682 17.3569 139.199 17.8399C138.846 18.1934 138.444 18.4175 137.993 18.5123ZM151.208 25.1367V61.851C151.208 62.5151 151.449 63.0886 151.932 63.5716C152.415 64.0545 152.989 64.296 153.653 64.296H170.044C170.708 64.296 171.282 64.0545 171.765 63.5716C172.248 63.0886 172.489 62.5151 172.489 61.851V33.7781L179.1 46.8184C179.281 47.241 179.703 47.724 180.368 48.2673C181.032 48.8106 181.877 49.0823 182.903 49.0823H189.061C190.087 49.0823 190.933 48.8106 191.597 48.2673C192.261 47.724 192.683 47.241 192.865 46.8184L199.475 33.7781V61.851C199.475 62.5151 199.717 63.0886 200.2 63.5716C200.683 64.0545 201.256 64.296 201.92 64.296H218.311C218.975 64.296 219.549 64.0545 220.032 63.5716C220.515 63.0886 220.756 62.5151 220.756 61.851V25.1367H151.208ZM230.32 25.1367V61.851C230.32 62.5754 230.562 63.1791 231.045 63.6621C231.528 64.0847 232.101 64.296 232.765 64.296H251.42C252.084 64.296 252.658 64.0545 253.141 63.5716C253.624 63.0886 253.865 62.5151 253.865 61.851V42.5622H271.977V61.851C271.977 62.5151 272.218 63.0886 272.701 63.5716C273.184 64.0545 273.758 64.296 274.422 64.296H293.077C293.741 64.296 294.314 64.0545 294.797 63.5716C295.28 63.0886 295.522 62.5151 295.522 61.851V25.1367H230.32ZM316.222 25.1367L303.727 61.7604L303.637 62.3038C303.637 62.8471 303.818 63.3301 304.18 63.7527C304.602 64.1149 305.085 64.296 305.629 64.296H322.744C324.676 64.296 326.034 63.2697 326.819 61.2171L329.083 54.878H351.179L353.443 61.2171C354.228 63.2697 355.586 64.296 357.518 64.296H374.634C375.177 64.296 375.63 64.1149 375.992 63.7527C376.415 63.3301 376.626 62.8471 376.626 62.3038L376.536 61.7604L364.041 25.1367H342.437L346.561 37.2192H333.702L337.826 25.1367H316.222ZM340.087 18.5123H318.482L323.469 3.89398C323.71 3.10915 324.163 2.41488 324.827 1.81115C325.491 1.20744 326.397 0.905577 327.544 0.905577H352.719C353.866 0.905577 354.771 1.20744 355.436 1.81115C356.1 2.41488 356.552 3.10915 356.794 3.89398L361.781 18.5123H340.175L340.131 18.3832L340.087 18.5123ZM384.079 25.1367C384.037 25.8294 384.016 26.5364 384.016 27.2579V37.9437C384.016 44.0413 385.496 49.1427 388.454 53.248C391.412 57.2929 395.397 60.3115 400.407 62.3038C405.479 64.2356 411.244 65.2016 417.704 65.2016C424.949 65.2016 431.076 64.0545 436.087 61.7604C441.158 59.4059 444.932 56.4779 447.407 52.9763C449.882 49.4144 451.12 45.7921 451.12 42.1094C451.12 41.566 450.908 41.1132 450.486 40.751C450.124 40.3284 449.671 40.1171 449.127 40.1171H429.567C428.239 40.1171 427.182 40.9019 426.397 42.4716C425.552 44.162 424.526 45.4298 423.318 46.275C422.111 47.1202 420.24 47.5428 417.704 47.5428C414.866 47.5428 412.602 46.8787 410.912 45.5506C409.282 44.2224 408.467 42.3207 408.467 39.8454V25.3562C408.467 25.2825 408.468 25.2093 408.469 25.1367H384.079ZM412.869 18.5123H385.237C385.974 16.1241 387.047 13.968 388.454 12.0442C391.412 7.9389 395.397 4.92031 400.407 2.98841C405.479 0.996135 411.244 0 417.704 0C424.949 0 431.076 1.17725 436.087 3.53176C441.158 5.82589 444.932 8.75392 447.407 12.3159C448.845 14.3507 449.866 16.4162 450.468 18.5123H422.604C421.418 17.9433 419.784 17.6588 417.704 17.6588C415.847 17.6588 414.235 17.9433 412.869 18.5123ZM463.581 25.1367V61.851C463.581 62.5151 463.823 63.0886 464.306 63.5716C464.789 64.0545 465.362 64.296 466.026 64.296H484.681C485.345 64.296 485.919 64.0545 486.402 63.5716C486.885 63.0886 487.126 62.5151 487.126 61.851V43.3772L502.883 62.8471C503.668 63.8131 504.755 64.296 506.143 64.296H529.507C530.051 64.296 530.504 64.1149 530.866 63.7527C531.288 63.3301 531.5 62.8471 531.5 62.3038C531.5 61.8812 531.379 61.4887 531.137 61.1265L506.687 30.3369L510.951 25.1367H463.581ZM516.384 18.5123L528.149 4.16566C528.451 3.80343 528.602 3.38083 528.602 2.89785C528.602 2.3545 528.391 1.90171 527.968 1.53948C527.606 1.11688 527.153 0.905577 526.61 0.905577H504.785C503.457 0.905577 502.34 1.41874 501.435 2.44506L488.613 18.5123H516.384ZM487.126 18.5123H463.581V3.35064C463.581 2.68655 463.823 2.11302 464.306 1.63004C464.789 1.14706 465.362 0.905577 466.026 0.905577H484.681C485.345 0.905577 485.919 1.14706 486.402 1.63004C486.885 2.11302 487.126 2.68655 487.126 3.35064V18.5123ZM295.522 18.5123H271.977V3.35064C271.977 2.68655 272.218 2.11302 272.701 1.63004C273.184 1.14706 273.758 0.905577 274.422 0.905577H293.077C293.741 0.905577 294.314 1.14706 294.797 1.63004C295.28 2.11302 295.522 2.68655 295.522 3.35064V18.5123ZM253.865 18.5123H230.32V3.35064C230.32 2.68655 230.562 2.11302 231.045 1.63004C231.528 1.14706 232.101 0.905577 232.765 0.905577H251.42C252.084 0.905577 252.658 1.14706 253.141 1.63004C253.624 2.11302 253.865 2.68655 253.865 3.35064V18.5123ZM220.756 18.5123H189.569L197.845 3.35064C198.751 1.7206 200.049 0.905577 201.739 0.905577H218.311C218.975 0.905577 219.549 1.14706 220.032 1.63004C220.515 2.11302 220.756 2.68655 220.756 3.35064V18.5123ZM182.395 18.5123H151.208V3.35064C151.208 2.68655 151.449 2.11302 151.932 1.63004C152.415 1.14706 152.989 0.905577 153.653 0.905577H170.225C171.915 0.905577 173.213 1.7206 174.119 3.35064L182.395 18.5123Z" fill="white"/>
<path fill-rule="evenodd" clip-rule="evenodd" d="M0.5 15.1165H60.7955C59.9734 12.5108 58.77 10.2041 57.1853 8.19654C60.5229 10.8491 62.8582 14.2877 64.1911 18.5126H0.623717V21.7409H0.5V15.1165ZM0.5 60.9003V61.8511C0.5 62.5152 0.741487 63.0888 1.22446 63.5717C1.70744 64.0547 2.28097 64.2962 2.94506 64.2962H31.833C42.1566 64.2962 50.337 62.153 56.3741 57.8666C62.4717 53.5198 65.5205 46.6374 65.5205 37.2194V27.9825C65.5205 27.0071 65.4862 26.0585 65.4175 25.1369H62.1249V33.8235C62.1249 43.2415 59.0761 50.1239 52.9786 54.4707C46.9414 58.7571 38.761 60.9003 28.4374 60.9003H0.5ZM24.045 43.2415V25.1369H20.6495V43.2415H24.045ZM78.7065 60.9003V61.8511C78.7065 62.5152 78.948 63.0888 79.431 63.5717C79.914 64.0547 80.4875 64.2962 81.1516 64.2962H138.384C139.048 64.2962 139.622 64.0547 140.105 63.5717C140.588 63.0888 140.829 62.5152 140.829 61.8511V49.0825C140.829 48.4184 140.588 47.8449 140.105 47.3619C139.622 46.8789 139.048 46.6374 138.384 46.6374H137.434V58.4552C137.434 59.1193 137.192 59.6928 136.709 60.1758C136.226 60.6588 135.653 60.9003 134.989 60.9003H78.7065ZM102.252 43.2415H98.856V37.5364H129.102C129.766 37.5364 130.34 37.2949 130.823 36.8119C131.306 36.3289 131.547 35.7554 131.547 35.0913V25.1369H134.352C134.746 25.589 134.943 26.1149 134.943 26.7147V38.4872C134.943 39.1513 134.701 39.7249 134.218 40.2078C133.735 40.6908 133.162 40.9323 132.498 40.9323H102.252V43.2415ZM78.7065 15.1165H134.598C135.048 15.0217 135.45 14.7976 135.804 14.4441C136.287 13.9612 136.528 13.3876 136.528 12.7235V0.905762H137.479C138.143 0.905762 138.716 1.14725 139.199 1.63023C139.682 2.1132 139.924 2.68673 139.924 3.35082V16.1195C139.924 16.7836 139.682 17.3571 139.199 17.8401C138.846 18.1937 138.443 18.4179 137.993 18.5126H78.7065V15.1165ZM151.208 60.9003V61.8511C151.208 62.5152 151.449 63.0888 151.932 63.5717C152.415 64.0547 152.989 64.2962 153.653 64.2962H170.044C170.708 64.2962 171.282 64.0547 171.765 63.5717C172.248 63.0888 172.489 62.5152 172.489 61.8511V37.0804L169.093 30.3823V58.4552C169.093 59.1193 168.852 59.6928 168.369 60.1758C167.886 60.6588 167.312 60.9003 166.648 60.9003H151.208ZM178.473 45.5816L179.1 46.8186C179.281 47.2412 179.703 47.7241 180.368 48.2675C181.032 48.8108 181.877 49.0825 182.903 49.0825H189.061C190.087 49.0825 190.933 48.8108 191.597 48.2675C192.261 47.7241 192.683 47.2412 192.865 46.8186L196.08 40.4763V30.3823L189.469 43.4226C189.288 43.8452 188.865 44.3282 188.201 44.8715C187.537 45.4149 186.692 45.6866 185.666 45.6866H179.508C179.139 45.6866 178.794 45.6516 178.473 45.5816ZM199.475 60.9003H214.916C215.58 60.9003 216.153 60.6588 216.636 60.1758C217.119 59.6928 217.361 59.1193 217.361 58.4552V25.1369H220.756V61.8511C220.756 62.5152 220.515 63.0888 220.032 63.5717C219.549 64.0547 218.975 64.2962 218.311 64.2962H201.92C201.256 64.2962 200.683 64.0547 200.2 63.5717C199.717 63.0888 199.475 62.5152 199.475 61.8511V60.9003ZM230.32 60.9003V61.8511C230.32 62.5756 230.562 63.1793 231.045 63.6623C231.527 64.0849 232.101 64.2962 232.765 64.2962H251.42C252.084 64.2962 252.658 64.0547 253.141 63.5717C253.624 63.0888 253.865 62.5152 253.865 61.8511V42.5623H268.581V39.1664H250.47V58.4552C250.47 59.1193 250.228 59.6928 249.745 60.1758C249.262 60.6588 248.689 60.9003 248.024 60.9003H230.32ZM271.977 60.9003H289.681C290.345 60.9003 290.919 60.6588 291.402 60.1758C291.885 59.6928 292.126 59.1193 292.126 58.4552V25.1369H295.522V61.8511C295.522 62.5152 295.28 63.0888 294.797 63.5717C294.314 64.0547 293.741 64.2962 293.077 64.2962H274.422C273.758 64.2962 273.184 64.0547 272.701 63.5717C272.218 63.0888 271.977 62.5152 271.977 61.8511V60.9003ZM304.021 60.9003L303.727 61.7606L303.637 62.3039C303.637 62.8473 303.818 63.3303 304.18 63.7529C304.602 64.1151 305.085 64.2962 305.629 64.2962H322.744C324.676 64.2962 326.034 63.2699 326.819 61.2172L329.083 54.8782H348.997L347.784 51.4823H325.688L323.424 57.8213C322.639 59.874 321.281 60.9003 319.349 60.9003H304.021ZM353.306 60.8334L353.443 61.2172C354.228 63.2699 355.586 64.2962 357.518 64.2962H374.634C375.177 64.2962 375.63 64.1151 375.992 63.7529C376.415 63.3303 376.626 62.8473 376.626 62.3039L376.536 61.7606L364.041 25.1369H361.804L373.14 58.3647L373.231 58.908C373.231 59.4513 373.019 59.9343 372.597 60.3569C372.234 60.7192 371.782 60.9003 371.238 60.9003H354.123C353.838 60.9003 353.566 60.878 353.306 60.8334ZM334.861 33.8235H330.306L333.271 25.1369H337.826L334.861 33.8235ZM319.64 15.1165H336.692L336.736 14.9875L336.78 15.1165H358.386L353.558 0.965969C354.317 1.0815 354.943 1.36329 355.436 1.81134C356.1 2.41506 356.552 3.10934 356.794 3.89417L361.781 18.5126H340.175L340.131 18.3834L340.087 18.5126H318.481L319.64 15.1165ZM389.4 54.4652C392.244 57.9039 395.913 60.5168 400.407 62.3039C405.479 64.2358 411.244 65.2018 417.704 65.2018C424.949 65.2018 431.076 64.0547 436.087 61.7606C441.158 59.4061 444.932 56.4781 447.407 52.9765C449.882 49.4145 451.12 45.7922 451.12 42.1096C451.12 41.5662 450.908 41.1134 450.486 40.7512C450.124 40.3286 449.671 40.1173 449.127 40.1173H447.664C447.389 43.3177 446.171 46.4721 444.011 49.5806C441.536 53.0821 437.763 56.0102 432.692 58.3647C427.681 60.6588 421.553 61.8058 414.308 61.8058C407.849 61.8058 402.083 60.8399 397.012 58.908C394.137 57.7649 391.6 56.284 389.4 54.4652ZM409.073 43.1148C408.509 42.847 407.99 42.527 407.517 42.1548C405.886 40.8266 405.071 38.9249 405.071 36.4497V25.1369H408.469C408.468 25.2096 408.467 25.2827 408.467 25.3564V39.8456C408.467 41.0774 408.669 42.1671 409.073 43.1148ZM386.588 15.1165H409.474C410.84 14.5475 412.451 14.263 414.308 14.263C416.389 14.263 418.022 14.5475 419.209 15.1165H447.073C446.47 13.0205 445.45 10.955 444.011 8.92011C443.752 8.54758 443.479 8.18199 443.192 7.82333C444.869 9.18809 446.274 10.6857 447.407 12.316C448.845 14.351 449.866 16.4165 450.468 18.5126H422.604C421.418 17.9435 419.785 17.659 417.704 17.659C415.847 17.659 414.235 17.9435 412.869 18.5126H385.237C385.604 17.3229 386.055 16.1909 386.588 15.1165ZM463.581 60.9003V61.8511C463.581 62.5152 463.823 63.0888 464.306 63.5717C464.789 64.0547 465.362 64.2962 466.026 64.2962H484.681C485.345 64.2962 485.919 64.0547 486.402 63.5717C486.885 63.0888 487.126 62.5152 487.126 61.8511V44.1771L483.731 39.9814V58.4552C483.731 59.1193 483.489 59.6928 483.006 60.1758C482.523 60.6588 481.95 60.9003 481.286 60.9003H463.581ZM501.076 60.6144C501.574 60.805 502.131 60.9003 502.748 60.9003H526.112C526.655 60.9003 527.108 60.7192 527.47 60.3569C527.893 59.9343 528.104 59.4513 528.104 58.908C528.104 58.4854 527.983 58.093 527.742 57.7308L503.291 26.9411L504.771 25.1369H510.951L506.687 30.337L531.137 61.1267C531.379 61.4889 531.5 61.8813 531.5 62.3039C531.5 62.8473 531.288 63.3303 530.866 63.7529C530.504 64.1151 530.051 64.2962 529.507 64.2962H506.143C504.755 64.2962 503.668 63.8132 502.883 62.8473L501.076 60.6144ZM524.642 0.905762L512.988 15.1165H491.323L488.613 18.5126H516.384L528.149 4.16584C528.451 3.80361 528.602 3.38101 528.602 2.89803C528.602 2.35469 528.391 1.9019 527.968 1.53967C527.606 1.11706 527.153 0.905762 526.61 0.905762H524.642ZM487.126 12.7245L485.218 15.1165H487.126V18.5126H463.581V15.1165H483.731V0.905762H484.681C485.345 0.905762 485.919 1.14725 486.402 1.63023C486.885 2.1132 487.126 2.68673 487.126 3.35082V12.7245ZM271.977 15.1165H292.126V0.905762H293.077C293.741 0.905762 294.314 1.14725 294.797 1.63023C295.28 2.1132 295.522 2.68673 295.522 3.35082V18.5126H271.977V15.1165ZM230.32 15.1165H250.47V0.905762H251.42C252.084 0.905762 252.658 1.14725 253.141 1.63023C253.624 2.1132 253.865 2.68673 253.865 3.35082V18.5126H230.32V15.1165ZM191.423 15.1165H217.361V0.905762H218.311C218.975 0.905762 219.549 1.14725 220.032 1.63023C220.515 2.1132 220.756 2.68673 220.756 3.35082V18.5126H189.569L191.423 15.1165ZM151.208 15.1165H178.999L171.311 1.03054C172.482 1.31559 173.418 2.08901 174.119 3.35082L182.395 18.5126H151.208V15.1165Z" fill="#9F9B9B"/>
</svg>
