<svg width="220" height="65" viewBox="0 0 220 65" fill="none" xmlns="http://www.w3.org/2000/svg">
<path d="M120.507 24.8298C120.507 20.1038 120.586 15.7038 120.823 11.6298L108.736 13.9927V15.1335L109.921 15.2964C110.79 15.3779 111.343 15.7038 111.659 16.1927C111.975 16.7631 112.212 17.5779 112.37 18.8001C112.528 21.1631 112.686 26.5409 112.607 35.0149C112.607 43.4075 112.528 48.7038 112.37 50.7409C116.715 51.7186 120.112 52.1261 122.64 52.1261C127.38 52.1261 131.093 50.7409 133.779 47.889C136.465 45.1186 137.887 41.2075 137.887 36.4001C137.887 32.5705 136.86 29.3927 134.806 26.8668C132.752 24.3409 130.145 23.1186 127.064 23.1186C125.01 23.1186 122.877 23.689 120.507 24.8298ZM120.744 49.9261C120.586 47.3186 120.428 39.4964 120.428 26.7038C121.139 26.4594 122.087 26.2964 123.272 26.2964C125.168 26.2964 126.669 27.2742 127.775 29.3112C128.881 31.3483 129.434 33.7927 129.434 36.889C129.434 40.7186 128.802 43.8149 127.538 46.4224C126.274 48.9483 124.694 50.252 122.719 50.252C122.087 50.089 121.455 50.0075 120.744 49.9261ZM63.39 12.4446H31.79V14.0742L33.449 14.2372C34.713 14.4816 35.582 14.9705 36.135 15.7038C36.688 16.5186 37.004 17.8224 37.083 19.6149C37.715 28.4149 37.715 36.6446 37.083 44.2224C36.925 46.0149 36.609 47.3186 36.135 48.1335C35.582 48.9483 34.713 49.4372 33.449 49.6001L31.79 49.8446V51.4742H52.172V49.8446L50.039 49.6816C48.775 49.5186 47.906 48.9483 47.353 48.2149C46.8 47.4001 46.484 46.0964 46.405 44.3038C46.168 41.0446 46.01 37.2964 46.01 33.1409L50.276 33.2224C52.567 33.3038 54.147 35.0964 54.937 38.6816H56.517V25.4001H54.937C54.147 28.9038 52.646 30.6964 50.276 30.7779L46.01 30.8594C46.01 23.5261 46.168 18.3112 46.405 15.1335H52.646C57.07 15.1335 60.072 18.0668 61.81 23.9335L63.706 23.3631L63.39 12.4446ZM59.677 37.5409C59.677 41.7779 60.862 45.2816 63.153 48.052C65.444 50.8224 68.841 52.1261 73.107 52.1261C77.373 52.1261 80.849 50.7409 83.377 47.889C85.905 45.1186 87.09 41.6149 87.09 37.3779C87.09 33.1409 85.905 29.6372 83.614 26.8668C81.323 24.0964 77.926 22.7927 73.66 22.7927C69.394 22.7927 65.918 24.1779 63.39 27.0298C60.862 29.8001 59.677 33.3038 59.677 37.5409ZM77.294 28.252C78.242 30.6149 78.637 33.7112 78.637 37.4594C78.637 46.0964 76.899 50.3335 73.502 50.3335C71.764 50.3335 70.421 49.1112 69.473 46.6668C68.525 44.2224 68.13 41.1261 68.13 37.4594C68.13 28.9038 69.868 24.6668 73.265 24.6668C75.003 24.5853 76.346 25.8075 77.294 28.252ZM144.049 48.052C146.656 50.7409 149.974 52.1261 153.924 52.1261C156.373 52.1261 158.506 51.6372 160.402 50.5779C162.298 49.6001 163.799 48.3779 164.826 46.9112L164.036 45.9335C162.298 47.3186 160.323 47.9705 158.032 47.9705C154.872 47.9705 152.423 46.9112 150.764 44.7112C149.026 42.5112 148.236 39.7409 148.394 36.1557H165.3C165.3 32.2446 164.352 29.0668 162.377 26.5409C160.402 24.0964 157.637 22.8742 154.082 22.8742C149.658 22.8742 146.261 24.3409 143.812 27.1927C141.363 30.0446 140.178 33.5483 140.178 37.7038C140.178 41.9409 141.442 45.3631 144.049 48.052ZM149.895 27.6001C150.764 25.6446 151.87 24.6668 153.371 24.6668C155.741 24.6668 156.926 27.7631 156.926 34.0372L148.552 34.2001C148.631 31.7557 149.026 29.5557 149.895 27.6001ZM186.551 24.3409C184.418 23.3631 181.732 22.7927 178.493 22.7927C175.175 22.7927 172.568 23.689 170.593 25.4001C168.618 27.1112 167.591 29.2298 167.591 31.7557C167.591 33.9557 168.223 35.6668 169.408 36.889C170.593 38.1112 172.489 39.1705 174.938 40.0668C177.15 40.8816 178.73 41.6964 179.52 42.4298C180.31 43.2446 180.784 44.1409 180.784 45.3631C180.784 46.5038 180.389 47.5631 179.52 48.3779C178.73 49.2742 177.624 49.6816 176.202 49.6816C172.726 49.6816 170.119 47.0742 168.302 41.8594L166.959 42.2668L167.275 50.4149C170.119 51.5557 173.279 52.1261 176.755 52.1261C180.389 52.1261 183.154 51.3112 185.208 49.6001C187.262 47.9705 188.289 45.6075 188.289 42.6742C188.289 40.7186 187.815 39.089 186.788 37.8668C185.761 36.6446 184.102 35.5853 181.732 34.6075C179.125 33.6298 177.308 32.7335 176.36 31.9186C175.412 31.1038 174.938 30.1261 174.938 28.9038C174.938 27.6816 175.254 26.7038 175.965 25.889C176.676 25.0742 177.545 24.7483 178.651 24.7483C181.811 24.7483 184.102 27.1112 185.524 31.7557L186.867 31.3483L186.551 24.3409ZM110.553 23.6075C109.447 23.0372 108.262 22.7927 106.919 22.7927C105.576 22.7927 104.233 23.3631 102.732 24.5038C101.231 25.6446 100.125 27.1927 99.256 29.3112L99.335 22.7927L87.327 25.2372V26.3779L88.512 26.4594C90.013 26.6224 90.882 27.8446 91.04 30.0446C91.514 35.0964 91.514 40.4742 91.04 46.1779C90.882 48.3779 90.013 49.5186 88.512 49.7631L87.327 49.9261V51.4742H104.075V49.9261L101.942 49.7631C100.441 49.6001 99.572 48.3779 99.414 46.1779C98.94 41.452 98.861 36.4001 99.256 31.1853C99.73 30.3705 100.757 29.8816 102.337 29.7187C103.917 29.5557 105.734 30.0446 107.63 31.1853L110.553 23.6075Z" fill="white"/>
</svg>
