<svg width="220" height="65" viewBox="0 0 220 65" fill="none" xmlns="http://www.w3.org/2000/svg">
<g clip-path="url(#clip0_1206_970)">
<path d="M185.689 42.729C175.551 42.729 172.143 30.8359 178.574 24.3577C180.67 22.2463 182.909 21.1833 186.003 21.1833H196.47V42.0971C196.47 46.3057 194.517 49.5951 190.994 51.5341C187.714 53.3296 183.137 52.9705 179.272 52.9705V49.1928C182.296 49.1928 187.243 49.4657 189.426 48.2018C191.436 47.0526 192.463 45.1853 192.463 42.5567V24.9611H186.003C176.805 24.9611 176.777 38.9657 185.689 38.9657C187.644 38.9657 189.368 38.42 190.852 37.3427V41.3789C189.254 42.2838 187.529 42.729 185.689 42.729Z" fill="white"/>
<path d="M139.418 34.0541V11.4167H143.382V34.0541C143.382 37.9323 144.979 38.7654 148.444 38.7654V42.4858C142.127 42.4858 139.418 40.4029 139.418 34.0541Z" fill="white"/>
<path d="M130.864 21.1842H135.142L129.809 30.4631C135.484 32.0001 135.227 37.4152 135.227 42.4858H131.349C131.349 39.4836 131.734 36.6253 129.609 34.6574C127.855 33.0199 125.174 32.8476 122.579 33.1636V42.4858H118.7V11.4167H122.579V29.6588C123.819 29.4864 125.046 29.4864 126.286 29.6588L130.864 21.1842Z" fill="#44A6DE"/>
<path d="M102.086 42.4853V30.3766C102.086 26.0243 102.999 23.0367 106.221 21.8445C108.788 20.8965 111.697 21.1837 114.763 21.1837V24.9183C112.909 24.9183 109.444 24.6598 107.947 25.2631C106.25 25.9525 105.965 27.7337 105.965 30.3766V42.4853H102.086Z" fill="#44A6DE"/>
<path d="M80.3268 24.3156C86.7865 17.7083 98.5509 22.1898 98.5509 31.8566C98.5509 43.6207 82.4515 46.5222 78.0881 36.0078C76.4768 32.1153 77.2467 27.3752 80.3268 24.3156ZM87.913 24.9621C79.1291 24.9621 79.1291 38.7513 87.913 38.7513C96.7114 38.7513 96.7114 24.9621 87.913 24.9621Z" fill="#44A6DE"/>
<path d="M74.8204 24.9179H69.7439V42.4848H65.7798V24.9179H62.7852L64.5534 21.1833H65.7798C65.7798 14.8488 70.571 11.3728 76.5744 11.3728V15.1074C72.0255 15.1074 69.7439 17.1327 69.7439 21.1833H74.8204V24.9179Z" fill="#44A6DE"/>
<path fill-rule="evenodd" clip-rule="evenodd" d="M50.8082 38.9663C48.983 38.8658 47.1434 39.0382 45.3183 38.5929C42.8655 37.9609 40.7693 36.6968 38.7729 35.2606C37.2472 34.1401 35.7357 32.991 34.1813 31.9281C31.2724 29.8741 27.3081 30.1039 23.5293 30.0321C23.5293 29.0841 23.5578 28.136 23.5578 27.188C23.5578 26.2256 23.5293 25.2777 23.5293 24.3297C27.3081 24.2578 31.2724 24.4877 34.1813 22.4336C35.7357 21.3707 37.2472 20.2216 38.7729 19.1012C40.7693 17.6648 42.8655 16.4008 45.3183 15.7688C47.1434 15.3235 48.983 15.4959 50.8082 15.3953C49.9241 14.318 49.04 13.4562 48.0561 12.4651C47.7852 12.1922 47.557 11.8762 47.7852 11.474C47.9562 11.158 48.27 11.0718 48.6122 11.0718C49.7815 11.0575 50.9081 11 52.0773 11C52.9899 11 53.7457 11.3447 54.3874 11.9911C56.07 13.7148 57.7527 15.3953 59.4211 17.119C60.3194 18.0383 60.291 18.7277 59.3784 19.6758C57.7242 21.3707 56.0131 23.0512 54.3447 24.7749C53.7315 25.3925 53.0043 25.7085 52.1486 25.7373C51.0363 25.766 49.9241 25.766 48.8118 25.766C48.3984 25.766 47.9848 25.6942 47.7852 25.2633C47.5285 24.7892 47.885 24.502 48.1702 24.2004C49.0685 23.3242 49.9526 22.4623 51.0079 21.4425C48.2273 21.1121 45.8601 21.385 43.7639 22.8358C41.9101 24.1286 40.0848 25.4644 38.1883 26.7858C37.9745 26.9295 37.8461 27.0587 37.8319 27.188C37.8461 27.3029 37.9745 27.4323 38.1883 27.5758C40.0848 28.8973 41.9101 30.2332 43.7639 31.5259C45.8601 32.9766 48.2273 33.2496 51.0079 32.9192C49.9526 31.8993 49.0685 31.0376 48.1702 30.1614C47.885 29.8597 47.5285 29.5724 47.7852 29.0984C47.9848 28.6675 48.3984 28.5957 48.8118 28.5957C49.9241 28.5957 51.0363 28.5957 52.1486 28.6244C53.0043 28.6531 53.7315 28.9691 54.3447 29.5867C56.0131 31.3105 57.7242 32.991 59.3784 34.6859C60.291 35.634 60.3194 36.3234 59.4211 37.2427C57.7527 38.9663 56.07 40.6469 54.3874 42.3705C53.7457 43.017 52.9899 43.3617 52.0773 43.3617C50.9081 43.3617 49.7815 43.3043 48.6122 43.2898C48.27 43.2898 47.9562 43.2037 47.7852 42.8876C47.557 42.4855 47.7852 42.1696 48.0561 41.8966C49.04 40.9055 49.9241 40.0436 50.8082 38.9663Z" fill="#E7A320"/>
<path d="M154.191 24.3156C160.651 17.7083 172.414 22.1898 172.414 31.8566C172.414 43.6207 156.316 46.5222 151.952 36.0078C150.341 32.1153 151.125 27.3752 154.191 24.3156ZM161.791 24.9621C152.993 24.9621 152.993 38.7513 161.791 38.7513C170.575 38.7513 170.575 24.9621 161.791 24.9621Z" fill="white"/>
</g>
<defs>
<clipPath id="clip0_1206_970">
<rect width="172.941" height="42" fill="white" transform="translate(23.5293 11)"/>
</clipPath>
</defs>
</svg>
