<svg width="220" height="65" viewBox="0 0 220 65" fill="none" xmlns="http://www.w3.org/2000/svg">
<path d="M68.5709 31.6191C67.3442 27.7759 63.7642 24.9871 59.5263 24.9871H59.48C59.4855 24.8119 59.4882 24.6359 59.4882 24.4594C59.4882 15.3691 52.1192 8 43.0288 8C39.0026 8 35.3116 9.44721 32.4519 11.8478C30.981 11.411 29.425 11.1769 27.8167 11.1769C18.7757 11.1769 11.4629 18.5558 11.4629 27.6378C11.4629 29.0103 11.6299 30.3439 11.9447 31.6191H14.7554C14.3779 30.3592 14.1749 29.0226 14.1749 27.6378C14.1749 20.0354 20.2916 13.889 27.8167 13.889C29.3964 13.889 30.9106 14.159 32.3185 14.6548L33.0901 14.9265L33.6902 14.3707C36.1433 12.0988 39.4226 10.712 43.0288 10.712C50.6213 10.712 56.7762 16.8669 56.7762 24.4594C56.7762 25.0412 56.7401 25.614 56.6703 26.1756L56.4807 27.6991H59.5263C62.2317 27.6991 64.5751 29.299 65.6637 31.6191H68.5709Z" fill="white"/>
<path d="M11.5682 31.6133C13.2609 37.2731 18.4748 41.3872 24.6314 41.3872C24.7818 41.3872 24.9317 41.3848 25.0808 41.3799L25.1329 41.3783L25.185 41.3806C25.2855 41.3849 25.3866 41.3872 25.4884 41.3872H45.0003L54.985 50.7407V41.5648H56.341C60.0423 41.5648 63.1267 38.3704 63.1267 34.5435C63.1267 33.494 62.893 32.5008 62.4753 31.6133H65.3836C65.6792 32.537 65.8388 33.5219 65.8388 34.5435C65.8388 39.3182 62.3336 43.4868 57.6971 44.1769V56.9976L43.9285 44.0993H25.4884C25.3645 44.0993 25.241 44.0969 25.118 44.0921C24.9563 44.0969 24.7942 44.0993 24.6314 44.0993C16.9544 44.0993 10.5235 38.7789 8.75781 31.6133H11.5682Z" fill="white"/>
<path d="M85.1684 28.9839V15.5713H87.2292V21.4044H88.5914L93.4115 15.5713H96.0661L90.6522 22.0331L96.136 28.9839H93.4814L89.0804 23.3254H87.2292V28.9839H85.1684ZM102.323 29.2982C101.473 29.2982 100.701 29.1382 100.009 28.818C99.3159 28.492 98.7658 28.0233 98.3583 27.4121C97.9508 26.795 97.747 26.0499 97.747 25.1767C97.747 24.4082 97.8984 23.7853 98.2011 23.308C98.5038 22.8248 98.9084 22.4464 99.4149 22.1728C99.9214 21.8992 100.48 21.6954 101.091 21.5616C101.709 21.4218 102.329 21.3112 102.951 21.2297C103.766 21.1249 104.427 21.0464 104.934 20.994C105.446 20.9357 105.818 20.8397 106.051 20.7058C106.29 20.5719 106.409 20.3391 106.409 20.0072V19.9374C106.409 19.0758 106.174 18.4063 105.702 17.929C105.236 17.4516 104.529 17.2129 103.58 17.2129C102.596 17.2129 101.825 17.4283 101.266 17.8591C100.707 18.2899 100.314 18.7498 100.087 19.2388L98.1313 18.5402C98.4805 17.7252 98.9463 17.0907 99.5284 16.6366C100.116 16.1767 100.757 15.8565 101.449 15.6761C102.148 15.4898 102.835 15.3967 103.51 15.3967C103.941 15.3967 104.436 15.449 104.995 15.5538C105.559 15.6528 106.104 15.8595 106.628 16.1738C107.157 16.4882 107.597 16.9626 107.946 17.5972C108.295 18.2317 108.47 19.0816 108.47 20.1469V28.9839H106.409V27.1676H106.305C106.165 27.4587 105.932 27.7701 105.606 28.1019C105.28 28.4338 104.846 28.7161 104.305 28.949C103.764 29.1818 103.103 29.2982 102.323 29.2982ZM102.637 27.447C103.452 27.447 104.139 27.2869 104.698 26.9668C105.263 26.6466 105.687 26.2333 105.973 25.7268C106.264 25.2203 106.409 24.6877 106.409 24.1288V22.2427C106.322 22.3474 106.13 22.4435 105.833 22.5308C105.542 22.6123 105.204 22.6851 104.82 22.7491C104.442 22.8073 104.072 22.8597 103.711 22.9063C103.356 22.9471 103.068 22.982 102.847 23.0111C102.311 23.0809 101.81 23.1945 101.345 23.3516C100.885 23.503 100.512 23.7329 100.227 24.0415C99.9475 24.3442 99.8078 24.7575 99.8078 25.2815C99.8078 25.9975 100.073 26.5389 100.602 26.9056C101.138 27.2666 101.816 27.447 102.637 27.447ZM112.232 28.9839V15.5713H114.292V21.4044H115.655L120.475 15.5713H123.129L117.715 22.0331L123.199 28.9839H120.545L116.144 23.3254H114.292V28.9839H112.232ZM142.694 15.5713V28.9839H140.633V15.5713H142.694ZM141.89 21.9632V23.8843C141.425 24.059 140.962 24.2132 140.502 24.3471C140.042 24.4752 139.559 24.5771 139.052 24.6527C138.546 24.7226 137.99 24.7575 137.384 24.7575C135.865 24.7575 134.646 24.3471 133.726 23.5263C132.812 22.7055 132.355 21.4742 132.355 19.8326V15.5364H134.416V19.8326C134.416 20.5195 134.547 21.0842 134.809 21.5266C135.07 21.9691 135.426 22.298 135.874 22.5134C136.322 22.7288 136.826 22.8364 137.384 22.8364C138.258 22.8364 139.047 22.7579 139.751 22.6007C140.461 22.4377 141.174 22.2252 141.89 21.9632ZM148.535 25.9451L154.997 15.5713H157.372V28.9839H155.312V18.6101L148.885 28.9839H146.475V15.5713H148.535V25.9451ZM159.322 17.4924V15.5713H170.22V17.4924H165.819V28.9839H163.758V17.4924H159.322ZM176.476 29.2982C175.626 29.2982 174.855 29.1382 174.162 28.818C173.469 28.492 172.919 28.0233 172.512 27.4121C172.104 26.795 171.901 26.0499 171.901 25.1767C171.901 24.4082 172.052 23.7853 172.355 23.308C172.657 22.8248 173.062 22.4464 173.568 22.1728C174.075 21.8992 174.634 21.6954 175.245 21.5616C175.862 21.4218 176.482 21.3112 177.105 21.2297C177.92 21.1249 178.581 21.0464 179.087 20.994C179.599 20.9357 179.972 20.8397 180.205 20.7058C180.443 20.5719 180.563 20.3391 180.563 20.0072V19.9374C180.563 19.0758 180.327 18.4063 179.856 17.929C179.39 17.4516 178.682 17.2129 177.734 17.2129C176.75 17.2129 175.978 17.4283 175.42 17.8591C174.861 18.2899 174.468 18.7498 174.241 19.2388L172.285 18.5402C172.634 17.7252 173.1 17.0907 173.682 16.6366C174.27 16.1767 174.91 15.8565 175.603 15.6761C176.302 15.4898 176.988 15.3967 177.664 15.3967C178.095 15.3967 178.589 15.449 179.148 15.5538C179.713 15.6528 180.257 15.8595 180.781 16.1738C181.311 16.4882 181.75 16.9626 182.1 17.5972C182.449 18.2317 182.624 19.0816 182.624 20.1469V28.9839H180.563V27.1676H180.458C180.318 27.4587 180.085 27.7701 179.759 28.1019C179.433 28.4338 179 28.7161 178.458 28.949C177.917 29.1818 177.256 29.2982 176.476 29.2982ZM176.791 27.447C177.606 27.447 178.292 27.2869 178.851 26.9668C179.416 26.6466 179.841 26.2333 180.126 25.7268C180.417 25.2203 180.563 24.6877 180.563 24.1288V22.2427C180.475 22.3474 180.283 22.4435 179.986 22.5308C179.695 22.6123 179.358 22.6851 178.974 22.7491C178.595 22.8073 178.226 22.8597 177.865 22.9063C177.509 22.9471 177.221 22.982 177 23.0111C176.465 23.0809 175.964 23.1945 175.498 23.3516C175.038 23.503 174.666 23.7329 174.38 24.0415C174.101 24.3442 173.961 24.7575 173.961 25.2815C173.961 25.9975 174.226 26.5389 174.756 26.9056C175.292 27.2666 175.97 27.447 176.791 27.447ZM184.56 17.4924V15.5713H195.458V17.4924H191.057V28.9839H188.996V17.4924H184.56ZM200.245 20.4264H204.087C205.659 20.4264 206.861 20.8251 207.694 21.6227C208.526 22.4202 208.942 23.4302 208.942 24.6527C208.942 25.4561 208.756 26.1867 208.383 26.8445C208.011 27.4965 207.464 28.0175 206.742 28.4076C206.02 28.7918 205.135 28.9839 204.087 28.9839H198.464V15.5713H200.525V27.0628H204.087C204.902 27.0628 205.572 26.8474 206.096 26.4166C206.62 25.9858 206.882 25.4328 206.882 24.7575C206.882 24.0473 206.62 23.4681 206.096 23.0198C205.572 22.5716 204.902 22.3474 204.087 22.3474H200.245V20.4264ZM92.5034 48.1896L97.1838 37.5713H99.1398L93.3417 50.9839H91.6651L85.9717 37.5713H87.8928L92.5034 48.1896ZM87.2292 37.5713V50.9839H85.1684V37.5713H87.2292ZM97.7776 50.9839V37.5713H99.8384V50.9839H97.7776ZM109.234 51.2633C107.942 51.2633 106.827 50.9781 105.89 50.4076C104.958 49.8312 104.239 49.0279 103.733 47.9975C103.232 46.9613 102.982 45.7562 102.982 44.3824C102.982 43.0085 103.232 41.7977 103.733 40.7498C104.239 39.6961 104.944 38.8753 105.846 38.2873C106.754 37.6935 107.814 37.3967 109.025 37.3967C109.723 37.3967 110.413 37.5131 111.094 37.7459C111.775 37.9788 112.395 38.3572 112.954 38.8811C113.513 39.3992 113.958 40.0862 114.29 40.9419C114.622 41.7977 114.788 42.8513 114.788 44.1029V44.9762H104.449V43.1948H112.692C112.692 42.438 112.541 41.7627 112.238 41.1689C111.941 40.5752 111.516 40.1065 110.963 39.7631C110.416 39.4196 109.77 39.2479 109.025 39.2479C108.204 39.2479 107.494 39.4516 106.894 39.8591C106.3 40.2608 105.843 40.7847 105.523 41.4309C105.203 42.0771 105.043 42.7698 105.043 43.5092V44.6967C105.043 45.7097 105.217 46.5683 105.567 47.2727C105.922 47.9713 106.414 48.504 107.042 48.8707C107.671 49.2316 108.402 49.4121 109.234 49.4121C109.776 49.4121 110.265 49.3364 110.701 49.1851C111.144 49.0279 111.525 48.795 111.845 48.4865C112.165 48.1721 112.413 47.7821 112.587 47.3164L114.578 47.8752C114.369 48.5505 114.017 49.1443 113.522 49.6566C113.027 50.1631 112.416 50.5589 111.688 50.8442C110.96 51.1236 110.142 51.2633 109.234 51.2633ZM116.491 54.826V49.0628H117.608C117.882 48.7776 118.118 48.469 118.316 48.1372C118.514 47.8054 118.685 47.4124 118.831 46.9584C118.982 46.4985 119.11 45.9396 119.215 45.2818C119.32 44.6181 119.413 43.8177 119.494 42.8804L119.949 37.5713H128.471V49.0628H130.532V54.826H128.471V50.9839H118.551V54.826H116.491ZM119.949 49.0628H126.41V39.4924H121.87L121.52 42.8804C121.375 44.2834 121.194 45.5088 120.979 46.5567C120.764 47.6045 120.42 48.4399 119.949 49.0628ZM135.328 47.9451L141.79 37.5713H144.165V50.9839H142.104V40.6101L135.677 50.9839H133.267V37.5713H135.328V47.9451ZM151.886 51.2982C151.036 51.2982 150.265 51.1382 149.572 50.818C148.88 50.492 148.33 50.0233 147.922 49.4121C147.515 48.795 147.311 48.0499 147.311 47.1767C147.311 46.4082 147.462 45.7853 147.765 45.308C148.068 44.8248 148.472 44.4464 148.979 44.1728C149.485 43.8992 150.044 43.6954 150.655 43.5616C151.272 43.4218 151.892 43.3112 152.515 43.2297C153.33 43.1249 153.991 43.0464 154.497 42.994C155.01 42.9357 155.382 42.8397 155.615 42.7058C155.854 42.5719 155.973 42.3391 155.973 42.0072V41.9374C155.973 41.0758 155.737 40.4063 155.266 39.929C154.8 39.4516 154.093 39.2129 153.144 39.2129C152.16 39.2129 151.389 39.4283 150.83 39.8591C150.271 40.2899 149.878 40.7498 149.651 41.2388L147.695 40.5402C148.044 39.7252 148.51 39.0907 149.092 38.6366C149.68 38.1767 150.32 37.8565 151.013 37.6761C151.712 37.4898 152.399 37.3967 153.074 37.3967C153.505 37.3967 154 37.449 154.558 37.5538C155.123 37.6528 155.667 37.8595 156.191 38.1738C156.721 38.4882 157.161 38.9626 157.51 39.5972C157.859 40.2317 158.034 41.0816 158.034 42.1469V50.9839H155.973V49.1676H155.868C155.729 49.4587 155.496 49.7701 155.17 50.1019C154.844 50.4338 154.41 50.7161 153.869 50.949C153.327 51.1818 152.666 51.2982 151.886 51.2982ZM152.201 49.447C153.016 49.447 153.703 49.2869 154.262 48.9668C154.826 48.6466 155.251 48.2333 155.536 47.7268C155.828 47.2203 155.973 46.6877 155.973 46.1288V44.2427C155.886 44.3474 155.694 44.4435 155.397 44.5308C155.106 44.6123 154.768 44.6851 154.384 44.7491C154.005 44.8073 153.636 44.8597 153.275 44.9063C152.92 44.9471 152.632 44.982 152.41 45.0111C151.875 45.0809 151.374 45.1945 150.908 45.3516C150.449 45.503 150.076 45.7329 149.791 46.0415C149.511 46.3442 149.372 46.7575 149.372 47.2815C149.372 47.9975 149.636 48.5389 150.166 48.9056C150.702 49.2666 151.38 49.447 152.201 49.447Z" fill="white"/>
</svg>
