<svg width="250" height="90" viewBox="0 0 250 90" fill="none" xmlns="http://www.w3.org/2000/svg">
<path d="M35.0097 69.5C48.5449 69.5 59.5174 58.531 59.5174 45C59.5174 31.469 48.5449 20.5 35.0097 20.5C21.4744 20.5 10.502 31.469 10.502 45C10.502 58.531 21.4744 69.5 35.0097 69.5Z" fill="#00BCD4"/>
<path d="M44.6685 38.8435L44.8576 35.0575L40.0603 32.9758L40.1877 30.3257L37.6809 28.934C37.9226 28.4612 38.0373 27.9338 38.0137 27.4035C37.99 26.8731 37.8289 26.358 37.546 25.9087C37.2631 25.4594 36.8681 25.0913 36.4 24.8406C35.9319 24.5898 35.4067 24.4651 34.8757 24.4785C34.3449 24.4919 33.8266 24.6431 33.3718 24.9172C32.9169 25.1912 32.5412 25.5788 32.2815 26.0418C32.0217 26.5049 31.8868 27.0275 31.89 27.5583C31.8931 28.0892 32.0343 28.6102 32.2996 29.0701L29.7725 30.5135C29.7725 30.5135 30.0768 33.0391 30.006 33.0806C29.793 33.2024 25.165 34.8044 25.165 34.8044L25.5905 38.8449L25.6212 38.838C25.7574 40.2577 27.8078 60.6663 32.7203 63.2231C32.8331 63.2993 32.9578 63.3563 33.0892 63.3918V63.3864L34.0899 63.8574L35.0117 64.3337L37.1901 63.4102L37.3052 63.3564C37.4408 63.2889 37.5708 63.2106 37.6939 63.1223C42.6417 60.0502 44.6194 38.8449 44.6194 38.8449L38.1031 37.5919V37.5831L44.6685 38.8435ZM34.9532 25.1221C35.3666 25.1211 35.7734 25.2258 36.1349 25.4264C36.4964 25.6269 36.8004 25.9165 37.0183 26.2678C37.2362 26.619 37.3606 27.0201 37.3796 27.4329C37.3986 27.8458 37.3115 28.2566 37.1268 28.6263L35.0744 27.4864L32.8496 28.757C32.6362 28.3884 32.524 27.97 32.524 27.5441C32.524 27.1183 32.6365 26.6999 32.8497 26.3313C33.063 25.9627 33.3697 25.6568 33.7391 25.4445C34.1084 25.2322 34.5272 25.121 34.9532 25.1221Z" fill="#FEE600"/>
<path d="M40.0574 32.9787L40.1847 30.3286L37.6781 28.9369C37.9197 28.4642 38.0344 27.9368 38.0108 27.4064C37.9871 26.876 37.8257 26.3609 37.5429 25.9116C37.26 25.4623 36.8652 25.0943 36.3971 24.8435C35.929 24.5928 35.4038 24.468 34.8728 24.4814C34.342 24.4949 33.8236 24.6461 33.3689 24.9201C32.914 25.1942 32.5382 25.5817 32.2784 26.0448C32.0186 26.5078 31.8836 27.0304 31.8868 27.5613C31.89 28.0921 32.0311 28.6131 32.2965 29.073L29.7696 30.5165C29.7696 30.5165 30.0738 33.042 30.0031 33.0836C29.79 33.2053 25.1621 34.8074 25.1621 34.8074L25.5876 38.8478C27.2132 38.5 31.7751 37.5881 31.7956 37.6099C31.8318 37.6565 31.8519 37.7136 31.8527 37.7725C31.8956 38.6974 33.0516 63.3267 33.0516 63.3267V63.373L34.087 63.8602L35.0088 64.3367L37.1872 63.4131L38.1014 37.5841L44.6653 38.8457L44.8547 35.0598L40.0574 32.9787ZM32.5212 27.552C32.5203 27.1855 32.6023 26.8235 32.7612 26.4933C32.9201 26.163 33.1515 25.873 33.4385 25.6449C33.7255 25.4169 34.0604 25.2567 34.4181 25.1764C34.7757 25.0961 35.1469 25.0978 35.5039 25.1814C35.8608 25.2649 36.1941 25.4282 36.479 25.6588C36.7639 25.8895 36.9928 26.1817 37.1487 26.5134C37.3045 26.8451 37.3834 27.2077 37.379 27.5741C37.3747 27.9406 37.2875 28.3013 37.1238 28.6293L35.0713 27.4894L32.8466 28.76C32.6332 28.3922 32.5208 27.9744 32.5212 27.5492V27.552Z" fill="#012D2D"/>
<path d="M79.7877 59.6964C79.6115 59.6964 79.4424 59.6286 79.3178 59.5081C79.193 59.3874 79.123 59.2239 79.123 59.0534V30.9429C79.123 30.7723 79.193 30.6087 79.3178 30.4881C79.4424 30.3675 79.6115 30.2998 79.7877 30.2998H84.7255C84.9018 30.2998 85.0708 30.3675 85.1956 30.4881C85.3202 30.6087 85.3902 30.7723 85.3902 30.9429V54.4436C85.3902 54.6141 85.4602 54.7776 85.5849 54.8983C85.7095 55.0188 85.8786 55.0866 86.0549 55.0866H94.8346C95.0109 55.0866 95.18 55.1543 95.3046 55.275C95.4292 55.3955 95.4993 55.5592 95.4993 55.7297V59.0514C95.4993 59.2221 95.4292 59.3856 95.3046 59.5061C95.18 59.6268 95.0109 59.6945 94.8346 59.6945L79.7877 59.6964Z" fill="white"/>
<path d="M116.061 59.6962C115.872 59.6889 115.691 59.625 115.542 59.5132C115.393 59.4016 115.284 59.2479 115.23 59.0733L113.925 54.1531C113.871 53.9787 113.762 53.8248 113.612 53.7132C113.464 53.6016 113.282 53.5376 113.094 53.5302H105.73C105.542 53.5378 105.36 53.6017 105.211 53.7131C105.062 53.8245 104.951 53.9778 104.896 54.1521L103.552 59.0743C103.497 59.2488 103.387 59.4022 103.237 59.5136C103.088 59.625 102.907 59.6888 102.718 59.6962H98.4385C98.3588 59.7019 98.2786 59.6882 98.2057 59.6564C98.1327 59.6246 98.0691 59.5758 98.0206 59.5142C97.972 59.4527 97.9401 59.3803 97.9277 59.3039C97.9153 59.2273 97.9228 59.1492 97.9495 59.0762L105.825 31.211C105.883 31.0366 105.994 30.8836 106.144 30.7727C106.295 30.6617 106.477 30.5982 106.666 30.5908H112.487C112.676 30.5983 112.858 30.662 113.008 30.7732C113.158 30.8843 113.268 31.0375 113.325 31.2118L121.066 59.0752C121.092 59.1485 121.099 59.2269 121.086 59.3035C121.073 59.3801 121.041 59.4523 120.992 59.5138C120.943 59.5753 120.879 59.6242 120.806 59.6561C120.733 59.6878 120.653 59.7016 120.573 59.6962H116.061ZM109.705 35.862C109.677 35.6374 109.592 35.4226 109.459 35.2364C109.326 35.4224 109.24 35.6365 109.209 35.8611L105.92 49.0408C105.896 49.1157 105.892 49.1949 105.907 49.2719C105.921 49.3488 105.955 49.4212 106.005 49.4827C106.055 49.5442 106.12 49.5931 106.194 49.625C106.268 49.657 106.348 49.6712 106.429 49.6664H112.392C112.472 49.6711 112.553 49.6568 112.627 49.6247C112.701 49.5926 112.766 49.5438 112.816 49.4823C112.867 49.4208 112.901 49.3485 112.916 49.2715C112.932 49.1946 112.928 49.1151 112.904 49.04L109.705 35.862Z" fill="white"/>
<path d="M140.12 59.6962C139.924 59.686 139.733 59.6275 139.566 59.5262C139.399 59.425 139.261 59.2844 139.166 59.1174L129.496 39.7203C129.41 39.5081 129.286 39.3122 129.13 39.1416C129.056 39.3478 129.03 39.5677 129.056 39.7846L129.151 59.0531C129.151 59.2238 129.081 59.3873 128.956 59.5078C128.832 59.6285 128.663 59.6962 128.486 59.6962H124.308C124.132 59.6962 123.963 59.6285 123.838 59.5078C123.714 59.3873 123.644 59.2238 123.644 59.0531V31.2339C123.644 31.0633 123.714 30.8998 123.838 30.7792C123.963 30.6586 124.132 30.5908 124.308 30.5908H129.965C130.161 30.6009 130.352 30.6596 130.518 30.7612C130.684 30.8629 130.821 31.0041 130.914 31.1714L140.492 50.688C140.576 50.9009 140.697 51.0977 140.853 51.2695C140.927 51.0633 140.952 50.8435 140.928 50.6265L140.88 31.2339C140.88 31.0633 140.95 30.8998 141.075 30.7792C141.2 30.6586 141.369 30.5908 141.544 30.5908H145.518C145.695 30.5908 145.864 30.6586 145.987 30.7792C146.112 30.8998 146.182 31.0633 146.182 31.2339V59.0531C146.182 59.2238 146.112 59.3873 145.987 59.5078C145.864 59.6285 145.695 59.6962 145.518 59.6962H140.12Z" fill="white"/>
<path d="M162.914 34.7835C162.737 34.7835 162.568 34.8513 162.444 34.9718C162.319 35.0925 162.249 35.256 162.249 35.4265V59.0531C162.249 59.1376 162.232 59.2212 162.198 59.2992C162.165 59.3773 162.116 59.4482 162.055 59.5078C161.992 59.5676 161.92 59.6149 161.839 59.6472C161.758 59.6796 161.671 59.6962 161.584 59.6962H156.897C156.72 59.6962 156.551 59.6285 156.426 59.5078C156.301 59.3873 156.231 59.2238 156.231 59.0531V35.4265C156.231 35.256 156.162 35.0925 156.037 34.9718C155.912 34.8513 155.743 34.7835 155.567 34.7835H150.114C149.938 34.7835 149.769 34.7158 149.644 34.5951C149.52 34.4746 149.45 34.3111 149.45 34.1404V31.2339C149.45 31.0633 149.52 30.8998 149.644 30.7792C149.769 30.6586 149.938 30.5908 150.114 30.5908H168.366C168.453 30.5908 168.539 30.6075 168.62 30.6398C168.701 30.6721 168.775 30.7195 168.836 30.7792C168.898 30.8389 168.947 30.9098 168.98 30.9878C169.013 31.0658 169.031 31.1494 169.031 31.2339V34.1404C169.031 34.2249 169.013 34.3085 168.98 34.3865C168.947 34.4646 168.898 34.5355 168.836 34.5951C168.775 34.6549 168.701 34.7023 168.62 34.7345C168.539 34.7669 168.453 34.7835 168.366 34.7835H162.914Z" fill="white"/>
<path d="M173.417 59.6962C173.241 59.6962 173.072 59.6285 172.947 59.5078C172.822 59.3873 172.752 59.2238 172.752 59.0531V31.2339C172.752 31.0633 172.822 30.8998 172.947 30.7792C173.072 30.6586 173.241 30.5908 173.417 30.5908H188.248C188.425 30.5908 188.594 30.6586 188.719 30.7792C188.842 30.8998 188.912 31.0633 188.912 31.2339V34.3049C188.912 34.4755 188.842 34.639 188.719 34.7597C188.594 34.8802 188.425 34.9479 188.248 34.9479H179.277C179.19 34.9479 179.104 34.9646 179.023 34.9969C178.943 35.0293 178.869 35.0766 178.808 35.1363C178.745 35.196 178.698 35.2669 178.663 35.345C178.63 35.423 178.613 35.5065 178.613 35.5911V42.0335C178.613 42.204 178.683 42.3675 178.808 42.4882C178.933 42.6087 179.102 42.6765 179.277 42.6765H187.488C187.665 42.6765 187.834 42.7443 187.959 42.8649C188.083 42.9855 188.154 43.1489 188.154 43.3196V46.0626C188.154 46.2333 188.083 46.3967 187.959 46.5173C187.834 46.6379 187.665 46.7057 187.488 46.7057H179.283C179.196 46.7057 179.109 46.7224 179.028 46.7546C178.949 46.7869 178.875 46.8344 178.813 46.894C178.751 46.9538 178.702 47.0246 178.669 47.1026C178.636 47.1807 178.619 47.2642 178.619 47.3487V54.6538C178.619 54.7382 178.636 54.8218 178.669 54.8999C178.702 54.9779 178.751 55.0488 178.813 55.1085C178.875 55.1682 178.949 55.2156 179.028 55.2479C179.109 55.2802 179.196 55.2968 179.283 55.2968H188.764C188.941 55.2968 189.11 55.3645 189.233 55.4852C189.358 55.6057 189.428 55.7694 189.428 55.9399V59.0531C189.428 59.2238 189.358 59.3873 189.233 59.5078C189.11 59.6285 188.941 59.6962 188.764 59.6962H173.417Z" fill="white"/>
<path d="M208.397 59.6962C208.202 59.6864 208.013 59.6268 207.849 59.5234C207.686 59.4199 207.554 59.2764 207.467 59.1074L202.389 47.8706C202.302 47.7015 202.169 47.5581 202.005 47.4547C201.841 47.3513 201.652 47.2915 201.457 47.2816H199.368C199.192 47.2816 199.023 47.3493 198.899 47.47C198.774 47.5905 198.704 47.7542 198.704 47.9247V59.0531C198.704 59.1376 198.687 59.2212 198.653 59.2992C198.619 59.3773 198.57 59.4482 198.509 59.5078C198.447 59.5676 198.374 59.6149 198.293 59.6472C198.213 59.6796 198.127 59.6962 198.039 59.6962H193.453C193.366 59.6962 193.279 59.6796 193.2 59.6472C193.119 59.6149 193.045 59.5676 192.984 59.5078C192.921 59.4482 192.872 59.3773 192.839 59.2992C192.806 59.2212 192.789 59.1376 192.789 59.0531V31.2339C192.789 31.1494 192.806 31.0658 192.839 30.9878C192.872 30.9098 192.921 30.8389 192.984 30.7792C193.045 30.7195 193.119 30.6721 193.2 30.6398C193.279 30.6075 193.366 30.5908 193.453 30.5908H202.423C202.788 30.5908 203.387 30.6074 203.753 30.6267C204.918 30.6889 206.077 30.8348 207.22 31.063C208.396 31.3408 209.498 31.8523 210.458 32.565C211.363 33.2555 212.089 34.1426 212.574 35.1546C213.111 36.3316 213.371 37.6094 213.334 38.8954C213.353 39.9126 213.172 40.9242 212.8 41.8754C212.48 42.6772 212.023 43.4209 211.447 44.0747C210.931 44.6547 210.319 45.148 209.637 45.5344C209.214 45.7659 208.769 45.9566 208.307 46.104C208.228 46.1263 208.153 46.1653 208.09 46.2183C208.028 46.2713 207.978 46.3371 207.945 46.4109C207.91 46.4846 207.894 46.5646 207.896 46.6452C207.898 46.7258 207.918 46.8051 207.954 46.8775L213.868 59.1138C213.91 59.1745 213.932 59.2453 213.932 59.318C213.933 59.3905 213.912 59.4618 213.872 59.5232C213.831 59.5845 213.775 59.6334 213.706 59.6642C213.639 59.6949 213.563 59.7059 213.488 59.6962H208.397ZM207.323 39.1416C207.352 38.3907 207.195 37.644 206.865 36.9634C206.589 36.4211 206.176 35.9543 205.665 35.6058C205.164 35.2734 204.602 35.0365 204.009 34.9075C203.624 34.8231 203.232 34.7669 202.838 34.7394C202.472 34.7192 201.875 34.7018 201.509 34.7018H199.371C199.195 34.7018 199.026 34.7696 198.901 34.8901C198.776 35.0107 198.706 35.1743 198.706 35.3448V43.0192C198.706 43.1897 198.776 43.3533 198.901 43.4738C199.026 43.5945 199.195 43.6622 199.371 43.6622H201.509C201.951 43.657 202.394 43.6262 202.832 43.5703C203.908 43.4305 204.944 43.0764 205.871 42.5304C206.369 42.1139 206.76 41.5906 207.012 41.0023C207.265 40.414 207.371 39.7769 207.323 39.1416Z" fill="white"/>
<path d="M233.586 59.6962C233.39 59.686 233.199 59.6275 233.032 59.5262C232.864 59.425 232.727 59.2844 232.631 59.1174L222.961 39.7203C222.876 39.5078 222.752 39.3118 222.595 39.1416C222.522 39.348 222.496 39.5677 222.522 39.7846L222.616 59.0531C222.616 59.2238 222.546 59.3873 222.423 59.5078C222.298 59.6285 222.129 59.6962 221.952 59.6962H217.774C217.598 59.6962 217.429 59.6285 217.304 59.5078C217.179 59.3873 217.109 59.2238 217.109 59.0531V31.2339C217.109 31.0633 217.179 30.8998 217.304 30.7792C217.429 30.6586 217.598 30.5908 217.774 30.5908H223.431C223.627 30.6009 223.817 30.6596 223.984 30.7612C224.15 30.8629 224.286 31.0041 224.38 31.1714L233.956 50.688C234.041 50.901 234.163 51.0978 234.319 51.2695C234.392 51.0632 234.418 50.8435 234.393 50.6265L234.344 31.2339C234.344 31.1494 234.362 31.0658 234.396 30.9878C234.429 30.9098 234.478 30.8389 234.539 30.7792C234.602 30.7195 234.674 30.6721 234.755 30.6398C234.836 30.6075 234.923 30.5908 235.01 30.5908H238.985C239.072 30.5908 239.158 30.6075 239.239 30.6398C239.319 30.6721 239.393 30.7195 239.454 30.7792C239.517 30.8389 239.566 30.9098 239.599 30.9878C239.632 31.0658 239.649 31.1494 239.649 31.2339V59.0531C239.649 59.1376 239.632 59.2212 239.599 59.2992C239.566 59.3773 239.517 59.4482 239.454 59.5078C239.393 59.5676 239.319 59.6149 239.239 59.6472C239.158 59.6796 239.072 59.6962 238.985 59.6962H233.586Z" fill="white"/>
</svg>
