<svg width="44" height="44" viewBox="0 0 44 44" fill="none" xmlns="http://www.w3.org/2000/svg">
<rect width="44" height="44" rx="15" fill="#D2FC2A"/>
<path d="M13 13.75C13 13.3358 13.3358 13 13.75 13H30.25C30.6642 13 31 13.3358 31 13.75C31 14.1642 30.6642 14.5 30.25 14.5H29.208L31.9446 21.217C31.9812 21.3069 32 21.403 32 21.5C32 23.433 30.433 25 28.5 25C26.567 25 25 23.433 25 21.5C25 21.403 25.0188 21.3069 25.0554 21.217L27.792 14.5H22.75L22.75 26.5H26.75C27.9926 26.5 29 27.5074 29 28.75C29 29.9926 27.9926 31 26.75 31H17.2529C16.0103 31 15.0029 29.9926 15.0029 28.75C15.0029 27.5074 16.0103 26.5 17.2529 26.5H21.25L21.25 14.5H16.208L18.9446 21.217C18.9812 21.3069 19 21.403 19 21.5C19 23.433 17.433 25 15.5 25C13.567 25 12 23.433 12 21.5C12 21.403 12.0188 21.3069 12.0554 21.217L14.792 14.5H13.75C13.3358 14.5 13 14.1642 13 13.75ZM16.5029 28.75C16.5029 29.1642 16.8387 29.5 17.2529 29.5H26.75C27.1642 29.5 27.5 29.1642 27.5 28.75C27.5 28.3358 27.1642 28 26.75 28H17.2529C16.8387 28 16.5029 28.3358 16.5029 28.75ZM17.3546 22.25H13.6454C13.9421 22.983 14.6607 23.5 15.5 23.5C16.3393 23.5 17.0579 22.983 17.3546 22.25ZM17.1346 20.75L15.5 16.7378L13.8654 20.75H17.1346ZM28.5 23.5C29.3393 23.5 30.0579 22.983 30.3546 22.25H26.6454C26.9421 22.983 27.6607 23.5 28.5 23.5ZM26.8654 20.75H30.1346L28.5 16.7378L26.8654 20.75Z" fill="#212121"/>
</svg>
