<svg width="56" height="28" viewBox="0 0 56 28" fill="none" xmlns="http://www.w3.org/2000/svg">
<path d="M1.95844 13.843C1.90456 13.843 1.85741 13.8224 1.817 13.7811C1.79006 13.7398 1.77659 13.6847 1.77659 13.6159V0.549047C1.77659 0.480238 1.79006 0.42519 1.817 0.383905C1.85741 0.342619 1.90456 0.321977 1.95844 0.321977H4.40323C5.65594 0.321977 6.5719 0.679785 7.1511 1.3954C7.74378 2.09726 8.04012 3.18444 8.04012 4.65696C8.04012 6.06067 7.73705 7.1341 7.1309 7.87724C6.52475 8.62038 5.6492 8.99195 4.50426 8.99195H3.8779V13.6159C3.8779 13.6847 3.8577 13.7398 3.81729 13.7811C3.79035 13.8224 3.74994 13.843 3.69606 13.843H1.95844ZM4.40323 7.01024C4.92856 7.01024 5.31245 6.82446 5.55491 6.45289C5.81084 6.08132 5.93881 5.49644 5.93881 4.69825C5.93881 3.83125 5.82431 3.21197 5.59532 2.8404C5.36633 2.46883 4.98918 2.28304 4.46385 2.28304H3.8779V7.01024H4.40323Z" fill="white"/>
<path d="M10.1414 13.843C10.0876 13.843 10.0404 13.8224 10 13.7811C9.97306 13.7398 9.95959 13.6847 9.95959 13.6159V0.549047C9.95959 0.480238 9.97306 0.42519 10 0.383905C10.0404 0.342619 10.0876 0.321977 10.1414 0.321977H12.8287C14.0949 0.321977 15.0176 0.638499 15.5968 1.27155C16.1894 1.89083 16.4858 2.86104 16.4858 4.18218C16.4858 6.1226 15.9672 7.35429 14.93 7.87724V7.89788L16.9707 13.554C16.9842 13.5815 16.9909 13.6228 16.9909 13.6779C16.9909 13.788 16.937 13.843 16.8293 13.843H14.9502C14.8425 13.843 14.7684 13.788 14.728 13.6779L12.9297 8.31074H12.0609V13.6159C12.0609 13.6847 12.0407 13.7398 12.0003 13.7811C11.9733 13.8224 11.9329 13.843 11.8791 13.843H10.1414ZM12.8287 6.45289C13.381 6.45289 13.7783 6.28086 14.0208 5.93682C14.2632 5.59277 14.3845 5.05606 14.3845 4.32668C14.3845 3.5973 14.2565 3.08123 14.0006 2.77847C13.7581 2.46195 13.3675 2.30368 12.8287 2.30368H12.0609V6.45289H12.8287Z" fill="white"/>
<path d="M18.9361 13.843C18.8822 13.843 18.8351 13.8224 18.7947 13.7811C18.7677 13.7398 18.7543 13.6847 18.7543 13.6159V0.549047C18.7543 0.480238 18.7677 0.42519 18.7947 0.383905C18.8351 0.342619 18.8822 0.321977 18.9361 0.321977H20.6737C20.7276 0.321977 20.768 0.342619 20.795 0.383905C20.8354 0.42519 20.8556 0.480238 20.8556 0.549047V13.6159C20.8556 13.6847 20.8354 13.7398 20.795 13.7811C20.768 13.8224 20.7276 13.843 20.6737 13.843H18.9361Z" fill="white"/>
<path d="M25.2285 13.843C25.1342 13.843 25.0736 13.7811 25.0467 13.6572L22.5009 0.590333V0.507762C22.5009 0.383905 22.548 0.321977 22.6423 0.321977H24.5416C24.6493 0.321977 24.7167 0.377024 24.7436 0.487119L26.0367 8.66166C26.1849 9.54242 26.3129 10.5264 26.4206 11.6136H26.461C26.5553 10.7053 26.69 9.72133 26.8651 8.66166L28.138 0.507762C28.165 0.383905 28.2323 0.321977 28.3401 0.321977H30.2191C30.3673 0.321977 30.4212 0.404548 30.3808 0.569691L27.8552 13.6572C27.8417 13.7811 27.7811 13.843 27.6733 13.843H25.2285Z" fill="white"/>
<path d="M38.5826 13.6779C38.5826 13.788 38.5287 13.843 38.4209 13.843H36.5217C36.4139 13.843 36.3465 13.788 36.3196 13.6779L35.8751 10.8911H33.2283L32.7635 13.6572C32.7501 13.7811 32.6827 13.843 32.5615 13.843H30.7026C30.5814 13.843 30.5343 13.7604 30.5612 13.5953L33.1878 0.507762C33.2283 0.383905 33.3091 0.321977 33.4303 0.321977H35.6933C35.828 0.321977 35.902 0.383905 35.9155 0.507762L38.5624 13.5747L38.5826 13.6779ZM35.572 9.03324L34.9861 5.42075C34.811 4.38861 34.6695 3.43904 34.5618 2.57204H34.5214C34.3732 3.78308 34.2385 4.73265 34.1173 5.42075L33.5313 9.03324H35.572Z" fill="white"/>
<path d="M43.325 13.9669C40.9005 13.9669 39.6882 12.4875 39.6882 9.52866V4.63632C39.6882 3.1638 39.998 2.05597 40.6176 1.31283C41.2372 0.56969 42.1397 0.19812 43.325 0.19812C44.4431 0.19812 45.3119 0.542167 45.9315 1.23026C46.5511 1.90459 46.8609 2.83352 46.8609 4.01704C46.8609 4.30604 46.8407 4.59504 46.8003 4.88403C46.7734 5.03541 46.7127 5.1111 46.6185 5.1111H44.8808C44.7327 5.1111 44.672 5.02853 44.699 4.86339C44.7124 4.72577 44.7192 4.52623 44.7192 4.26475C44.7192 2.8748 44.2545 2.17983 43.325 2.17983C42.7997 2.17983 42.4091 2.37938 42.1532 2.77847C41.9107 3.17756 41.7895 3.82437 41.7895 4.71889V9.42545C41.7895 10.3337 41.9107 10.9874 42.1532 11.3865C42.4091 11.7856 42.7997 11.9852 43.325 11.9852C44.2679 11.9852 44.7394 11.2833 44.7394 9.87959C44.7394 9.63188 44.7327 9.43921 44.7192 9.30159C44.7192 9.13645 44.7798 9.05388 44.901 9.05388H46.5982C46.7329 9.05388 46.807 9.13645 46.8205 9.30159C46.834 9.43921 46.8407 9.64564 46.8407 9.92088C46.8407 11.2007 46.5376 12.1985 45.9315 12.9141C45.3388 13.6159 44.47 13.9669 43.325 13.9669Z" fill="white"/>
<path d="M50.9253 13.843C50.8714 13.843 50.8242 13.8224 50.7838 13.7811C50.7569 13.7398 50.7434 13.6847 50.7434 13.6159V9.19838L48.0157 0.610976C48.0023 0.583452 47.9955 0.542167 47.9955 0.487119C47.9955 0.377024 48.0427 0.321977 48.137 0.321977H50.0969C50.2181 0.321977 50.2854 0.377024 50.2989 0.487119L51.2485 4.47118C51.3294 4.80146 51.3832 5.04918 51.4102 5.21432C51.4775 5.50332 51.6055 6.06755 51.7941 6.90703H51.8143C51.9086 6.42536 52.0971 5.60653 52.38 4.45054L53.3296 0.487119C53.3431 0.377024 53.4037 0.321977 53.5115 0.321977H55.431C55.4983 0.321977 55.5455 0.3495 55.5724 0.404548C55.5993 0.459595 55.5993 0.528405 55.5724 0.610976L52.8447 9.17774V13.6159C52.8447 13.6847 52.8313 13.7398 52.8043 13.7811C52.7774 13.8224 52.737 13.843 52.6831 13.843H50.9253Z" fill="white"/>
<path d="M5.6056 27.7945C5.6056 27.8592 5.57397 27.8915 5.5107 27.8915H4.39556C4.33229 27.8915 4.29274 27.8592 4.27693 27.7945L4.01594 26.1583H2.46186L2.189 27.7824C2.1811 27.8552 2.14155 27.8915 2.07037 27.8915H0.978958C0.907779 27.8915 0.880098 27.843 0.895915 27.7461L2.43813 20.0618C2.46186 19.9891 2.50931 19.9527 2.58049 19.9527H3.90917C3.98826 19.9527 4.03175 19.9891 4.03966 20.0618L5.59374 27.734L5.6056 27.7945ZM3.83799 25.0675L3.49396 22.9464C3.39114 22.3404 3.3081 21.7829 3.24483 21.2738H3.2211C3.13411 21.9849 3.05502 22.5424 2.98384 22.9464L2.63981 25.0675H3.83799Z" fill="white"/>
<path d="M8.39012 27.9642C6.96654 27.9642 6.25474 27.0956 6.25474 25.3584V22.4859C6.25474 21.6213 6.43665 20.9708 6.80045 20.5345C7.16426 20.0982 7.69414 19.88 8.39012 19.88C9.04655 19.88 9.55667 20.082 9.92047 20.486C10.2843 20.882 10.4662 21.4274 10.4662 22.1223C10.4662 22.2919 10.4543 22.4616 10.4306 22.6313C10.4148 22.7202 10.3792 22.7646 10.3238 22.7646H9.30359C9.21659 22.7646 9.181 22.7162 9.19682 22.6192C9.20473 22.5384 9.20868 22.4212 9.20868 22.2677C9.20868 21.4516 8.93583 21.0436 8.39012 21.0436C8.08168 21.0436 7.85232 21.1607 7.70205 21.395C7.5597 21.6294 7.48852 22.0091 7.48852 22.5343V25.2978C7.48852 25.8311 7.5597 26.2149 7.70205 26.4492C7.85232 26.6835 8.08168 26.8007 8.39012 26.8007C8.94373 26.8007 9.22054 26.3886 9.22054 25.5644C9.22054 25.419 9.21659 25.3059 9.20868 25.2251C9.20868 25.1281 9.24427 25.0796 9.31545 25.0796H10.312C10.391 25.0796 10.4345 25.1281 10.4425 25.2251C10.4504 25.3059 10.4543 25.4271 10.4543 25.5887C10.4543 26.3401 10.2764 26.9259 9.92047 27.3461C9.57248 27.7582 9.06237 27.9642 8.39012 27.9642Z" fill="white"/>
<path d="M13.7045 27.9642C12.2809 27.9642 11.5691 27.0956 11.5691 25.3584V22.4859C11.5691 21.6213 11.751 20.9708 12.1148 20.5345C12.4786 20.0982 13.0085 19.88 13.7045 19.88C14.3609 19.88 14.871 20.082 15.2348 20.486C15.5986 20.882 15.7805 21.4274 15.7805 22.1223C15.7805 22.2919 15.7687 22.4616 15.7449 22.6313C15.7291 22.7202 15.6935 22.7646 15.6382 22.7646H14.6179C14.5309 22.7646 14.4953 22.7162 14.5112 22.6192C14.5191 22.5384 14.523 22.4212 14.523 22.2677C14.523 21.4516 14.2502 21.0436 13.7045 21.0436C13.396 21.0436 13.1667 21.1607 13.0164 21.395C12.874 21.6294 12.8029 22.0091 12.8029 22.5343V25.2978C12.8029 25.8311 12.874 26.2149 13.0164 26.4492C13.1667 26.6835 13.396 26.8007 13.7045 26.8007C14.2581 26.8007 14.5349 26.3886 14.5349 25.5644C14.5349 25.419 14.5309 25.3059 14.523 25.2251C14.523 25.1281 14.5586 25.0796 14.6298 25.0796H15.6263C15.7054 25.0796 15.7489 25.1281 15.7568 25.2251C15.7647 25.3059 15.7687 25.4271 15.7687 25.5887C15.7687 26.3401 15.5907 26.9259 15.2348 27.3461C14.8868 27.7582 14.3767 27.9642 13.7045 27.9642Z" fill="white"/>
<path d="M17.1552 27.8915C17.1235 27.8915 17.0958 27.8794 17.0721 27.8552C17.0484 27.8309 17.0365 27.7986 17.0365 27.7582V20.0861C17.0365 20.0457 17.0444 20.0133 17.0603 19.9891C17.084 19.9648 17.1117 19.9527 17.1433 19.9527H20.2515C20.3226 19.9527 20.3582 19.9972 20.3582 20.0861V20.9708C20.3582 21.0678 20.3226 21.1163 20.2515 21.1163H18.2703V23.31H20.0735C20.1447 23.31 20.1803 23.3545 20.1803 23.4434V24.2797C20.1803 24.3686 20.1447 24.413 20.0735 24.413H18.2703V26.728H20.2515C20.3226 26.728 20.3582 26.7764 20.3582 26.8734V27.7582C20.3582 27.8471 20.3226 27.8915 20.2515 27.8915H17.1552Z" fill="white"/>
<path d="M21.7628 27.8915C21.7312 27.8915 21.7035 27.8794 21.6798 27.8552C21.656 27.8309 21.6442 27.7986 21.6442 27.7582V20.0861C21.6442 19.9972 21.6837 19.9527 21.7628 19.9527H22.7593C22.791 19.9527 22.8186 19.9648 22.8424 19.9891C22.8661 20.0133 22.878 20.0457 22.878 20.0861V26.728H24.7286C24.8077 26.728 24.8472 26.7764 24.8472 26.8734V27.7582C24.8472 27.8471 24.8077 27.8915 24.7286 27.8915H21.7628Z" fill="white"/>
<path d="M25.9881 27.8915C25.9565 27.8915 25.9288 27.8794 25.9051 27.8552C25.8814 27.8309 25.8695 27.7986 25.8695 27.7582V20.0861C25.8695 20.0457 25.8774 20.0133 25.8932 19.9891C25.917 19.9648 25.9447 19.9527 25.9763 19.9527H29.0844C29.1556 19.9527 29.1912 19.9972 29.1912 20.0861V20.9708C29.1912 21.0678 29.1556 21.1163 29.0844 21.1163H27.1033V23.31H28.9065C28.9777 23.31 29.0133 23.3545 29.0133 23.4434V24.2797C29.0133 24.3686 28.9777 24.413 28.9065 24.413H27.1033V26.728H29.0844C29.1556 26.728 29.1912 26.7764 29.1912 26.8734V27.7582C29.1912 27.8471 29.1556 27.8915 29.0844 27.8915H25.9881Z" fill="white"/>
<path d="M30.5839 27.8915C30.5523 27.8915 30.5246 27.8794 30.5009 27.8552C30.4851 27.8309 30.4772 27.7986 30.4772 27.7582V20.0861C30.4772 20.0457 30.4851 20.0133 30.5009 19.9891C30.5246 19.9648 30.5523 19.9527 30.5839 19.9527H32.1617C32.9052 19.9527 33.4469 20.1386 33.787 20.5103C34.135 20.8739 34.309 21.4435 34.309 22.2192C34.309 23.3585 34.0045 24.0817 33.3955 24.3888V24.4009L34.5937 27.7218C34.6016 27.738 34.6056 27.7622 34.6056 27.7945C34.6056 27.8592 34.5739 27.8915 34.5107 27.8915H33.4074C33.3441 27.8915 33.3006 27.8592 33.2769 27.7945L32.2211 24.6433H31.7109V27.7582C31.7109 27.7986 31.6991 27.8309 31.6753 27.8552C31.6595 27.8794 31.6358 27.8915 31.6042 27.8915H30.5839ZM32.1617 23.5525C32.486 23.5525 32.7193 23.4515 32.8617 23.2494C33.004 23.0474 33.0752 22.7323 33.0752 22.3041C33.0752 21.8758 33.0001 21.5728 32.8498 21.395C32.7074 21.2092 32.4781 21.1163 32.1617 21.1163H31.7109V23.5525H32.1617Z" fill="white"/>
<path d="M39.8402 27.7945C39.8402 27.8592 39.8086 27.8915 39.7453 27.8915H38.6301C38.5669 27.8915 38.5273 27.8592 38.5115 27.7945L38.2505 26.1583H36.6964L36.4236 27.7824C36.4157 27.8552 36.3761 27.8915 36.305 27.8915H35.2135C35.1424 27.8915 35.1147 27.843 35.1305 27.7461L36.6727 20.0618C36.6964 19.9891 36.7439 19.9527 36.8151 19.9527H38.1438C38.2228 19.9527 38.2663 19.9891 38.2743 20.0618L39.8283 27.734L39.8402 27.7945ZM38.0726 25.0675L37.7285 22.9464C37.6257 22.3404 37.5427 21.7829 37.4794 21.2738H37.4557C37.3687 21.9849 37.2896 22.5424 37.2184 22.9464L36.8744 25.0675H38.0726Z" fill="white"/>
<path d="M41.3168 27.8915C41.2456 27.8915 41.21 27.8471 41.21 27.7582V21.1163H40C39.9288 21.1163 39.8932 21.0678 39.8932 20.9708V20.0861C39.8932 19.9972 39.9288 19.9527 40 19.9527H43.642C43.7211 19.9527 43.7606 19.9972 43.7606 20.0861V20.9708C43.7606 21.0678 43.7211 21.1163 43.642 21.1163H42.4438V27.7582C42.4438 27.8471 42.4082 27.8915 42.337 27.8915H41.3168Z" fill="white"/>
<path d="M46.6879 27.9642C45.9919 27.9642 45.462 27.7582 45.0982 27.3461C44.7344 26.9259 44.5525 26.3078 44.5525 25.4917V22.3768C44.5525 21.5445 44.7344 20.9224 45.0982 20.5103C45.462 20.0901 45.9919 19.88 46.6879 19.88C47.3838 19.88 47.9137 20.0901 48.2775 20.5103C48.6413 20.9224 48.8232 21.5445 48.8232 22.3768V25.4917C48.8232 26.3078 48.6413 26.9259 48.2775 27.3461C47.9137 27.7582 47.3838 27.9642 46.6879 27.9642ZM46.6879 26.8007C46.9963 26.8007 47.2217 26.6916 47.3641 26.4734C47.5143 26.2553 47.5895 25.9078 47.5895 25.4311V22.4374C47.5895 21.9445 47.5143 21.589 47.3641 21.3708C47.2217 21.1526 46.9963 21.0436 46.6879 21.0436C46.3794 21.0436 46.1501 21.1526 45.9998 21.3708C45.8574 21.589 45.7863 21.9445 45.7863 22.4374V25.4311C45.7863 25.9078 45.8574 26.2553 45.9998 26.4734C46.1501 26.6916 46.3794 26.8007 46.6879 26.8007Z" fill="white"/>
<path d="M50.1962 27.8915C50.1646 27.8915 50.1369 27.8794 50.1132 27.8552C50.0973 27.8309 50.0894 27.7986 50.0894 27.7582V20.0861C50.0894 20.0457 50.0973 20.0133 50.1132 19.9891C50.1369 19.9648 50.1646 19.9527 50.1962 19.9527H51.774C52.5174 19.9527 53.0592 20.1386 53.3993 20.5103C53.7473 20.8739 53.9212 21.4435 53.9212 22.2192C53.9212 23.3585 53.6168 24.0817 53.0078 24.3888V24.4009L54.206 27.7218C54.2139 27.738 54.2178 27.7622 54.2178 27.7945C54.2178 27.8592 54.1862 27.8915 54.1229 27.8915H53.0196C52.9564 27.8915 52.9129 27.8592 52.8892 27.7945L51.8333 24.6433H51.3232V27.7582C51.3232 27.7986 51.3113 27.8309 51.2876 27.8552C51.2718 27.8794 51.2481 27.8915 51.2164 27.8915H50.1962ZM51.774 23.5525C52.0983 23.5525 52.3316 23.4515 52.4739 23.2494C52.6163 23.0474 52.6875 22.7323 52.6875 22.3041C52.6875 21.8758 52.6123 21.5728 52.4621 21.395C52.3197 21.2092 52.0904 21.1163 51.774 21.1163H51.3232V23.5525H51.774Z" fill="white"/>
</svg>
