<svg width="220" height="65" viewBox="0 0 220 65" fill="none" xmlns="http://www.w3.org/2000/svg">
<g clip-path="url(#clip0_1206_908)">
<path d="M55.0721 40.6607C60.7435 40.6607 63.8527 38.2246 64.3992 34.0485H58.1127C57.9078 35.0926 57.1904 35.9973 55.3112 35.9973C53.398 35.9973 52.1338 34.814 51.9629 32.6216H64.365V30.9512C64.365 24.4086 60.0944 21.4854 55.0721 21.4854C49.6056 21.4854 45.1641 25.1394 45.1641 31.0556V31.334C45.1641 37.3546 49.3665 40.6607 55.0721 40.6607ZM51.9971 29.0371C52.2705 26.9839 53.4321 25.9051 55.0721 25.9051C56.8828 25.9051 57.8053 27.0883 57.8736 29.0371H51.9971Z" fill="white"/>
<path d="M73.7788 31.2298C73.8472 29.9422 73.9155 28.4109 73.9497 26.7057H77.2637V35.4406H72.9247C73.3688 34.327 73.6422 32.935 73.7788 31.2298ZM71.2847 40.2084H80.4069L80.4753 44.6281H86.2834V35.4406H83.8919V22.0076H68.3806C68.3806 25.9401 68.3123 28.7589 68.1415 30.673C67.8681 33.5614 67.2874 34.9534 66.3307 35.4406H65.4082V44.6281H71.2164L71.2847 40.2084Z" fill="white"/>
<path d="M94.8195 40.2084L99.8761 30.0814V40.2084H106.538V22.0076H99.9785L94.9221 32.1694V22.0076H88.2598V40.2084H94.8195Z" fill="white"/>
<path d="M117.365 36.0669C116.135 36.0669 115.486 35.5101 115.486 34.6401C115.486 33.3524 116.306 32.9001 118.561 32.9001H119.995V33.8396C119.995 35.1968 118.902 36.0669 117.365 36.0669ZM114.939 40.6607C117.843 40.6607 119.415 39.373 120.166 38.1201V40.2082H126.658V28.4455C126.658 23.643 123.515 21.4854 118.321 21.4854C113.197 21.4854 109.78 23.7474 109.507 28.2019H115.793C115.896 27.2623 116.374 26.2531 117.911 26.2531C119.722 26.2531 119.995 27.3667 119.995 28.8979V29.2112H118.458C112.274 29.2112 108.857 30.8815 108.857 35.1621C108.857 39.0598 111.727 40.6607 114.939 40.6607Z" fill="white"/>
<path d="M145.584 26.4619C145.584 23.643 142.714 21.4854 137.521 21.4854C133.045 21.4854 129.526 23.7474 129.014 28.3063H134.856C135.163 27.0535 135.983 26.3227 137.213 26.3227C138.443 26.3227 138.887 26.8447 138.887 27.5755V27.6799C138.887 28.5151 138.307 29.0371 137.179 29.0371H135.403V32.7609H137.316C138.717 32.7609 139.263 33.3176 139.263 34.2573V34.3617C139.263 35.4404 138.614 36.0669 137.418 36.0669C135.881 36.0669 135.027 35.2317 134.617 33.6657H128.706C129.321 37.981 132.088 40.6607 137.589 40.6607C143.056 40.6607 146.028 38.1201 146.028 34.8837V34.7793C146.028 32.3781 144.491 31.0556 141.996 30.6728C144.32 30.2204 145.584 28.9328 145.584 26.5663V26.4619Z" fill="white"/>
<path d="M157.537 40.6608C163.106 40.6608 167.48 37.1458 167.48 31.1602V30.8817C167.48 25.0352 163.14 21.5203 157.571 21.5203C151.934 21.5203 147.595 25.1396 147.595 31.0557V31.3341C147.595 37.3199 151.968 40.6608 157.537 40.6608ZM157.571 35.6146C155.419 35.6146 154.393 34.0833 154.393 31.1253V30.8469C154.393 27.9932 155.521 26.5664 157.571 26.5664C159.656 26.5664 160.646 28.0976 160.646 30.9513V31.1949C160.646 34.0833 159.622 35.6146 157.571 35.6146Z" fill="white"/>
<path d="M181.248 40.2084H187.944V22.0076H181.248V28.6197H176.567V22.0076H169.87V40.2084H176.567V33.3875H181.248V40.2084Z" fill="white"/>
<path d="M198.775 36.0669C197.545 36.0669 196.896 35.5101 196.896 34.6401C196.896 33.3524 197.716 32.9001 199.971 32.9001H201.406V33.8396C201.406 35.1968 200.312 36.0669 198.775 36.0669ZM196.35 40.6607C199.253 40.6607 200.826 39.373 201.577 38.1201V40.2082H208.068V28.4455C208.068 23.643 204.925 21.4854 199.732 21.4854C194.607 21.4854 191.191 23.7474 190.917 28.2019H197.204C197.306 27.2623 197.784 26.2531 199.322 26.2531C201.132 26.2531 201.406 27.3667 201.406 28.8979V29.2112H199.868C193.684 29.2112 190.268 30.8815 190.268 35.1621C190.268 39.0598 193.138 40.6607 196.35 40.6607Z" fill="white"/>
</g>
<g clip-path="url(#clip1_1206_908)">
<path d="M12.9609 40.2083H19.8624V25.5223L25.3289 40.2083H27.9255L33.4944 25.5223V40.2083H41.1817V15.3257H31.3421L27.1397 27.4016L23.0056 15.3257H12.9609V40.2083Z" fill="white"/>
</g>
<defs>
<clipPath id="clip0_1206_908">
<rect width="164.99" height="29.3023" fill="white" transform="translate(43.0781 15.3257)"/>
</clipPath>
<clipPath id="clip1_1206_908">
<rect width="28.8077" height="29.3023" fill="white" transform="translate(12.9609 15.3257)"/>
</clipPath>
</defs>
</svg>
