<svg width="220" height="65" viewBox="0 0 220 65" fill="none" xmlns="http://www.w3.org/2000/svg">
<g clip-path="url(#clip0_1206_762)">
<path d="M32.511 29.7036V49.7965L41.9186 52.729V29.7036H47.9703V49.7965L57.3229 52.729L63.4296 44.5832H57.3779V24.7618L48.0253 21.5577L41.9186 28.6174V24.7618L32.566 21.5577L26.4593 28.6174V24.7618L17.1067 21.5577L11 29.7036H17.0517V49.7965L26.4593 52.729V29.7036H32.511ZM133.519 44.5832V24.4902L124.111 21.5577V49.525L133.464 52.729L139.571 45.6693V49.525L148.923 52.729L155.03 44.5832H148.978V24.4902L139.571 21.5577V44.5832H133.519ZM202.948 25.5763L193.761 21.5577L182.868 26.6625L193.761 30.6811L178.797 37.7951V49.4164L188.204 52.729L193.761 45.615V49.525L203.168 52.729L209 44.5289H202.948V25.5763ZM75.5879 52.729L86.3709 48.4932L75.5879 44.5289V38.8269L89.7269 32.093L81.6946 21.5577L66.1803 28.889V48.7647L75.5879 52.729ZM176.761 43.9316L165.318 40.5103L176.046 27.0426L162.622 21.5577L155.58 30.3552L167.078 33.8308L156.13 47.2442L169.719 52.729L176.761 43.9316ZM188.204 44.5832V36.546L193.761 33.9394V44.5832H188.204ZM75.5879 26.8254L80.3193 33.2334L75.5879 35.4599V26.8254ZM92.1475 48.7647L101.555 52.729L117.014 46.6468V22.5896L92.1475 12V21.3793L107.607 27.4072V46.7011L101.555 44.5289V27.5856L92.1475 30.5181V48.7647Z" fill="#DCAD76"/>
</g>
<defs>
<clipPath id="clip0_1206_762">
<rect width="198" height="41" fill="white" transform="translate(11 12)"/>
</clipPath>
</defs>
</svg>
