<svg width="44" height="44" viewBox="0 0 44 44" fill="none" xmlns="http://www.w3.org/2000/svg">
<rect width="44" height="44" rx="15" fill="#FE9E2E"/>
<path d="M13 15.75C13 14.2312 14.2312 13 15.75 13H28.25C29.7688 13 31 14.2312 31 15.75V20.3542C30.5925 19.8925 30.08 19.5256 29.5 19.2908V15.75C29.5 15.0596 28.9404 14.5 28.25 14.5H15.75C15.0596 14.5 14.5 15.0596 14.5 15.75V28.25C14.5 28.9404 15.0596 29.5 15.75 29.5H22.0036C22.0263 30.0358 22.1547 30.5386 22.3714 31H15.75C14.2312 31 13 29.7688 13 28.25V15.75ZM28 24.5C27.1716 24.5 26.5 23.8284 26.5 23C26.5 22.1716 27.1716 21.5 28 21.5V22H30.8293C30.6976 21.6274 30.4944 21.2885 30.2361 21H28V20C26.3431 20 25 21.3431 25 23C25 24.6569 26.3431 26 28 26C28.8885 26 29.6868 25.6137 30.2361 25H28V24.5ZM24.9375 27C24.3563 27 23.8688 27.2822 23.5423 27.6347C23.2184 27.9845 23 28.4582 23 28.944V29.328C23 31.2893 25.0414 33 28 33V32H31.4726C31.881 31.7117 32.2176 31.373 32.4698 31H28V31.5C25.4707 31.5 24.5 30.1114 24.5 29.328V28.944C24.5 28.8976 24.5307 28.7751 24.6429 28.654C24.7497 28.5386 24.8601 28.5 24.9375 28.5H28V28H32.7296C32.6519 27.8682 32.5601 27.7453 32.4577 27.6347C32.1312 27.2822 31.6437 27 31.0625 27H24.9375ZM28 24V23H31C31 23.3506 30.9398 23.6872 30.8293 24H28ZM32.9189 30H28V29H33V29.328C33 29.5561 32.9724 29.7809 32.9189 30Z" fill="#171347"/>
</svg>
