<svg width="101" height="35" viewBox="0 0 101 35" fill="none" xmlns="http://www.w3.org/2000/svg">
<path d="M0.904297 34.5342V14.1925L14.5926 0.207581L20.8146 6.56437V0.207581H21.2812H25.6366H26.1032V11.9676L28.2809 14.1925V34.5342H18.5864H16.7703V23.0781C17.8929 22.344 18.6369 21.0587 18.6369 19.5958C18.6369 17.3138 16.8262 15.4639 14.5926 15.4639C12.359 15.4639 10.5483 17.3138 10.5483 19.5958C10.5483 21.0587 11.2924 22.344 12.4149 23.0781V34.5342H10.5988H0.904297Z" fill="#F4440D"/>
<path d="M39.0288 18.4727C38.9666 18.4727 38.9122 18.4489 38.8656 18.4013C38.8345 18.3536 38.819 18.2901 38.819 18.2107V3.13355C38.819 3.05416 38.8345 2.99064 38.8656 2.94301C38.9122 2.89537 38.9666 2.87155 39.0288 2.87155H41.8497C43.2952 2.87155 44.352 3.2844 45.0204 4.11012C45.7042 4.91995 46.0461 6.1744 46.0461 7.87346C46.0461 9.49312 45.6964 10.7317 44.997 11.5892C44.2976 12.4466 43.2874 12.8754 41.9663 12.8754H41.2436V18.2107C41.2436 18.2901 41.2203 18.3536 41.1736 18.4013C41.1426 18.4489 41.0959 18.4727 41.0338 18.4727H39.0288ZM41.8497 10.5888C42.4559 10.5888 42.8988 10.3744 43.1786 9.94568C43.4739 9.51694 43.6216 8.84208 43.6216 7.92109C43.6216 6.92071 43.4894 6.20615 43.2252 5.77742C42.961 5.34868 42.5258 5.13432 41.9197 5.13432H41.2436V10.5888H41.8497Z" fill="white"/>
<path d="M48.4707 18.4727C48.4086 18.4727 48.3542 18.4489 48.3075 18.4013C48.2765 18.3536 48.2609 18.2901 48.2609 18.2107V3.13355C48.2609 3.05416 48.2765 2.99064 48.3075 2.94301C48.3542 2.89537 48.4086 2.87155 48.4707 2.87155H51.5714C53.0324 2.87155 54.097 3.23677 54.7654 3.9672C55.4492 4.68176 55.7911 5.80124 55.7911 7.32563C55.7911 9.56458 55.1928 10.9858 53.996 11.5892V11.613L56.3507 18.1393C56.3662 18.171 56.374 18.2187 56.374 18.2822C56.374 18.4092 56.3118 18.4727 56.1875 18.4727H54.0193C53.895 18.4727 53.8095 18.4092 53.7629 18.2822L51.688 12.0894H50.6855V18.2107C50.6855 18.2901 50.6622 18.3536 50.6156 18.4013C50.5845 18.4489 50.5379 18.4727 50.4757 18.4727H48.4707ZM51.5714 9.94568C52.2086 9.94568 52.6671 9.74719 52.9469 9.35021C53.2267 8.95323 53.3665 8.33395 53.3665 7.49236C53.3665 6.65077 53.2189 6.0553 52.9236 5.70596C52.6438 5.34074 52.1931 5.15814 51.5714 5.15814H50.6855V9.94568H51.5714Z" fill="white"/>
<path d="M58.6184 18.4727C58.5563 18.4727 58.5019 18.4489 58.4552 18.4013C58.4242 18.3536 58.4086 18.2901 58.4086 18.2107V3.13355C58.4086 3.05416 58.4242 2.99064 58.4552 2.94301C58.5019 2.89537 58.5563 2.87155 58.6184 2.87155H60.6234C60.6856 2.87155 60.7322 2.89537 60.7633 2.94301C60.8099 2.99064 60.8332 3.05416 60.8332 3.13355V18.2107C60.8332 18.2901 60.8099 18.3536 60.7633 18.4013C60.7322 18.4489 60.6856 18.4727 60.6234 18.4727H58.6184Z" fill="white"/>
<path d="M65.8789 18.4727C65.7701 18.4727 65.7002 18.4013 65.6691 18.2584L62.7316 3.18119V3.08592C62.7316 2.943 62.786 2.87155 62.8948 2.87155H65.0863C65.2106 2.87155 65.2883 2.93507 65.3194 3.0621L66.8114 12.4943C66.9824 13.5105 67.1301 14.6459 67.2544 15.9003H67.301C67.4098 14.8523 67.5652 13.717 67.7673 12.4943L69.236 3.08592C69.2671 2.943 69.3448 2.87155 69.4692 2.87155H71.6373C71.8083 2.87155 71.8705 2.96682 71.8238 3.15737L68.9097 18.2584C68.8941 18.4013 68.8242 18.4727 68.6998 18.4727H65.8789Z" fill="white"/>
<path d="M81.2874 18.2822C81.2874 18.4092 81.2253 18.4727 81.1009 18.4727H78.9095C78.7851 18.4727 78.7074 18.4092 78.6763 18.2822L78.1634 15.0667H75.1094L74.5732 18.2584C74.5576 18.4013 74.4799 18.4727 74.34 18.4727H72.1952C72.0553 18.4727 72.0009 18.3775 72.032 18.1869L75.0627 3.08592C75.1094 2.943 75.2026 2.87155 75.3425 2.87155H77.9536C78.109 2.87155 78.1945 2.943 78.2101 3.08592L81.2641 18.1631L81.2874 18.2822ZM77.8137 12.923L77.1376 8.75475C76.9356 7.56382 76.7724 6.46816 76.6481 5.46778H76.6014C76.4305 6.86514 76.275 7.96079 76.1352 8.75475L75.4591 12.923H77.8137Z" fill="white"/>
<path d="M86.7595 18.6156C83.9619 18.6156 82.5631 16.9086 82.5631 13.4946V7.84964C82.5631 6.15058 82.9206 4.87231 83.6355 4.01484C84.3505 3.15737 85.3918 2.72864 86.7595 2.72864C88.0495 2.72864 89.052 3.12561 89.7669 3.91957C90.4819 4.69764 90.8394 5.76948 90.8394 7.13508C90.8394 7.46854 90.816 7.802 90.7694 8.13546C90.7383 8.31013 90.6684 8.39747 90.5596 8.39747H88.5546C88.3837 8.39747 88.3137 8.30219 88.3448 8.11164C88.3604 7.95285 88.3681 7.72261 88.3681 7.4209C88.3681 5.81712 87.8319 5.01522 86.7595 5.01522C86.1534 5.01522 85.7026 5.24547 85.4073 5.70596C85.1276 6.16646 84.9877 6.91277 84.9877 7.94491V13.3756C84.9877 14.4236 85.1276 15.1778 85.4073 15.6383C85.7026 16.0988 86.1534 16.3291 86.7595 16.3291C87.8475 16.3291 88.3914 15.5192 88.3914 13.8996C88.3914 13.6137 88.3837 13.3914 88.3681 13.2326C88.3681 13.0421 88.4381 12.9468 88.578 12.9468H90.5363C90.6917 12.9468 90.7772 13.0421 90.7927 13.2326C90.8083 13.3914 90.816 13.6296 90.816 13.9472C90.816 15.424 90.4663 16.5752 89.7669 17.4009C89.0831 18.2107 88.0806 18.6156 86.7595 18.6156Z" fill="white"/>
<path d="M95.529 18.4727C95.4668 18.4727 95.4124 18.4489 95.3658 18.4013C95.3347 18.3536 95.3192 18.2901 95.3192 18.2107V13.1136L92.1719 3.20501C92.1563 3.17325 92.1485 3.12561 92.1485 3.0621C92.1485 2.93507 92.2029 2.87155 92.3117 2.87155H94.5731C94.713 2.87155 94.7907 2.93507 94.8063 3.0621L95.902 7.65909C95.9953 8.04019 96.0574 8.32601 96.0885 8.51656C96.1662 8.85002 96.3139 9.50106 96.5315 10.4697H96.5548C96.6636 9.91392 96.8812 8.96911 97.2076 7.63527L98.3033 3.0621C98.3188 2.93507 98.3888 2.87155 98.5131 2.87155H100.728C100.806 2.87155 100.86 2.90331 100.891 2.96682C100.922 3.03034 100.922 3.10974 100.891 3.20501L97.7438 13.0897V18.2107C97.7438 18.2901 97.7282 18.3536 97.6971 18.4013C97.666 18.4489 97.6194 18.4727 97.5573 18.4727H95.529Z" fill="white"/>
<path d="M43.2371 34.5707C43.2371 34.6453 43.2006 34.6826 43.1276 34.6826H41.8409C41.7679 34.6826 41.7222 34.6453 41.704 34.5707L41.4029 32.6827H39.6097L39.2949 34.5567C39.2857 34.6406 39.2401 34.6826 39.158 34.6826H37.8986C37.8165 34.6826 37.7846 34.6266 37.8028 34.5147L39.5823 25.6483C39.6097 25.5644 39.6644 25.5224 39.7466 25.5224H41.2797C41.3709 25.5224 41.4211 25.5644 41.4302 25.6483L43.2234 34.5007L43.2371 34.5707ZM41.1975 31.4241L40.8006 28.9767C40.6819 28.2775 40.5861 27.6341 40.5131 27.0468H40.4857C40.3854 27.8672 40.2941 28.5105 40.212 28.9767L39.815 31.4241H41.1975Z" fill="white"/>
<path d="M46.45 34.7665C44.8074 34.7665 43.9861 33.7642 43.9861 31.7597V28.4453C43.9861 27.4477 44.196 26.6972 44.6158 26.1937C45.0355 25.6902 45.6469 25.4385 46.45 25.4385C47.2074 25.4385 47.796 25.6716 48.2158 26.1378C48.6356 26.5946 48.8454 27.2239 48.8454 28.0257C48.8454 28.2215 48.8317 28.4173 48.8044 28.6131C48.7861 28.7156 48.7451 28.7669 48.6812 28.7669H47.504C47.4036 28.7669 47.3625 28.711 47.3808 28.5991C47.3899 28.5059 47.3945 28.3707 47.3945 28.1935C47.3945 27.2519 47.0796 26.7811 46.45 26.7811C46.0941 26.7811 45.8294 26.9163 45.6561 27.1866C45.4918 27.457 45.4097 27.8952 45.4097 28.5012V31.6898C45.4097 32.3051 45.4918 32.748 45.6561 33.0183C45.8294 33.2887 46.0941 33.4239 46.45 33.4239C47.0888 33.4239 47.4082 32.9484 47.4082 31.9974C47.4082 31.8296 47.4036 31.6991 47.3945 31.6059C47.3945 31.494 47.4355 31.438 47.5177 31.438H48.6675C48.7587 31.438 48.8089 31.494 48.8181 31.6059C48.8272 31.6991 48.8318 31.8389 48.8318 32.0254C48.8318 32.8925 48.6264 33.5684 48.2158 34.0532C47.8143 34.5287 47.2257 34.7665 46.45 34.7665Z" fill="white"/>
<path d="M52.5819 34.7665C50.9393 34.7665 50.118 33.7642 50.118 31.7597V28.4453C50.118 27.4477 50.3279 26.6972 50.7477 26.1937C51.1675 25.6902 51.7789 25.4385 52.5819 25.4385C53.3393 25.4385 53.9279 25.6716 54.3477 26.1378C54.7675 26.5946 54.9774 27.2239 54.9774 28.0257C54.9774 28.2215 54.9637 28.4173 54.9363 28.6131C54.9181 28.7156 54.877 28.7669 54.8131 28.7669H53.6359C53.5355 28.7669 53.4945 28.711 53.5127 28.5991C53.5218 28.5059 53.5264 28.3707 53.5264 28.1935C53.5264 27.2519 53.2116 26.7811 52.5819 26.7811C52.226 26.7811 51.9614 26.9163 51.788 27.1866C51.6237 27.457 51.5416 27.8952 51.5416 28.5012V31.6898C51.5416 32.3051 51.6237 32.748 51.788 33.0183C51.9614 33.2887 52.226 33.4239 52.5819 33.4239C53.2207 33.4239 53.5401 32.9484 53.5401 31.9974C53.5401 31.8296 53.5355 31.6991 53.5264 31.6059C53.5264 31.494 53.5675 31.438 53.6496 31.438H54.7994C54.8907 31.438 54.9409 31.494 54.95 31.6059C54.9591 31.6991 54.9637 31.8389 54.9637 32.0254C54.9637 32.8925 54.7584 33.5684 54.3477 34.0532C53.9462 34.5287 53.3576 34.7665 52.5819 34.7665Z" fill="white"/>
<path d="M56.5635 34.6826C56.527 34.6826 56.4951 34.6686 56.4677 34.6406C56.4403 34.6126 56.4266 34.5753 56.4266 34.5287V25.6763C56.4266 25.6296 56.4357 25.5923 56.454 25.5644C56.4814 25.5364 56.5133 25.5224 56.5498 25.5224H60.1361C60.2183 25.5224 60.2593 25.5737 60.2593 25.6763V26.6972C60.2593 26.809 60.2183 26.865 60.1361 26.865H57.8502V29.3962H59.9308C60.013 29.3962 60.054 29.4475 60.054 29.5501V30.515C60.054 30.6176 60.013 30.6689 59.9308 30.6689H57.8502V33.34H60.1361C60.2183 33.34 60.2593 33.3959 60.2593 33.5078V34.5287C60.2593 34.6313 60.2183 34.6826 60.1361 34.6826H56.5635Z" fill="white"/>
<path d="M61.88 34.6826C61.8435 34.6826 61.8116 34.6686 61.7842 34.6406C61.7568 34.6126 61.7431 34.5753 61.7431 34.5287V25.6763C61.7431 25.5737 61.7888 25.5224 61.88 25.5224H63.0298C63.0663 25.5224 63.0983 25.5364 63.1257 25.5644C63.153 25.5923 63.1667 25.6296 63.1667 25.6763V33.34H65.3021C65.3933 33.34 65.439 33.3959 65.439 33.5078V34.5287C65.439 34.6313 65.3933 34.6826 65.3021 34.6826H61.88Z" fill="white"/>
<path d="M66.7554 34.6826C66.7189 34.6826 66.687 34.6686 66.6596 34.6406C66.6322 34.6126 66.6185 34.5753 66.6185 34.5287V25.6763C66.6185 25.6296 66.6276 25.5923 66.6459 25.5644C66.6733 25.5364 66.7052 25.5224 66.7417 25.5224H70.3281C70.4102 25.5224 70.4512 25.5737 70.4512 25.6763V26.6972C70.4512 26.809 70.4102 26.865 70.3281 26.865H68.0421V29.3962H70.1227C70.2049 29.3962 70.2459 29.4475 70.2459 29.5501V30.515C70.2459 30.6176 70.2049 30.6689 70.1227 30.6689H68.0421V33.34H70.3281C70.4102 33.34 70.4512 33.3959 70.4512 33.5078V34.5287C70.4512 34.6313 70.4102 34.6826 70.3281 34.6826H66.7554Z" fill="white"/>
<path d="M72.0582 34.6826C72.0217 34.6826 71.9898 34.6686 71.9624 34.6406C71.9442 34.6126 71.935 34.5753 71.935 34.5287V25.6763C71.935 25.6296 71.9442 25.5923 71.9624 25.5644C71.9898 25.5364 72.0217 25.5224 72.0582 25.5224H73.8788C74.7366 25.5224 75.3617 25.7369 75.7541 26.1657C76.1556 26.5853 76.3564 27.2426 76.3564 28.1376C76.3564 29.4522 76.005 30.2866 75.3024 30.6409V30.6549L76.6849 34.4868C76.694 34.5054 76.6986 34.5334 76.6986 34.5707C76.6986 34.6453 76.6621 34.6826 76.5891 34.6826H75.316C75.243 34.6826 75.1929 34.6453 75.1655 34.5707L73.9472 30.9346H73.3586V34.5287C73.3586 34.5753 73.3449 34.6126 73.3176 34.6406C73.2993 34.6686 73.2719 34.6826 73.2354 34.6826H72.0582ZM73.8788 29.6759C74.2529 29.6759 74.5221 29.5594 74.6864 29.3263C74.8506 29.0932 74.9328 28.7296 74.9328 28.2355C74.9328 27.7414 74.8461 27.3917 74.6727 27.1866C74.5084 26.9722 74.2438 26.865 73.8788 26.865H73.3586V29.6759H73.8788Z" fill="white"/>
<path d="M82.7385 34.5707C82.7385 34.6453 82.702 34.6826 82.629 34.6826H81.3423C81.2693 34.6826 81.2237 34.6453 81.2054 34.5707L80.9043 32.6827H79.1111L78.7963 34.5567C78.7872 34.6406 78.7415 34.6826 78.6594 34.6826H77.4001C77.318 34.6826 77.286 34.6266 77.3043 34.5147L79.0838 25.6483C79.1111 25.5644 79.1659 25.5224 79.248 25.5224H80.7811C80.8724 25.5224 80.9226 25.5644 80.9317 25.6483L82.7248 34.5007L82.7385 34.5707ZM80.699 31.4241L80.302 28.9767C80.1834 28.2775 80.0876 27.6341 80.0146 27.0468H79.9872C79.8868 27.8672 79.7955 28.5105 79.7134 28.9767L79.3165 31.4241H80.699Z" fill="white"/>
<path d="M84.4423 34.6826C84.3602 34.6826 84.3191 34.6313 84.3191 34.5287V26.865H82.9229C82.8408 26.865 82.7997 26.809 82.7997 26.6972V25.6763C82.7997 25.5737 82.8408 25.5224 82.9229 25.5224H87.1252C87.2165 25.5224 87.2621 25.5737 87.2621 25.6763V26.6972C87.2621 26.809 87.2165 26.865 87.1252 26.865H85.7427V34.5287C85.7427 34.6313 85.7016 34.6826 85.6195 34.6826H84.4423Z" fill="white"/>
<path d="M90.6397 34.7665C89.8366 34.7665 89.2252 34.5287 88.8054 34.0532C88.3857 33.5684 88.1758 32.8552 88.1758 31.9135V28.3194C88.1758 27.3591 88.3857 26.6412 88.8054 26.1657C89.2252 25.6809 89.8366 25.4385 90.6397 25.4385C91.4427 25.4385 92.0541 25.6809 92.4739 26.1657C92.8937 26.6412 93.1036 27.3591 93.1036 28.3194V31.9135C93.1036 32.8552 92.8937 33.5684 92.4739 34.0532C92.0541 34.5287 91.4427 34.7665 90.6397 34.7665ZM90.6397 33.4239C90.9956 33.4239 91.2557 33.298 91.4199 33.0463C91.5933 32.7946 91.68 32.3937 91.68 31.8436V28.3893C91.68 27.8206 91.5933 27.4104 91.4199 27.1587C91.2557 26.9069 90.9956 26.7811 90.6397 26.7811C90.2838 26.7811 90.0191 26.9069 89.8458 27.1587C89.6815 27.4104 89.5994 27.8206 89.5994 28.3893V31.8436C89.5994 32.3937 89.6815 32.7946 89.8458 33.0463C90.0191 33.298 90.2838 33.4239 90.6397 33.4239Z" fill="white"/>
<path d="M94.6878 34.6826C94.6513 34.6826 94.6193 34.6686 94.592 34.6406C94.5737 34.6126 94.5646 34.5753 94.5646 34.5287V25.6763C94.5646 25.6296 94.5737 25.5923 94.592 25.5644C94.6193 25.5364 94.6513 25.5224 94.6878 25.5224H96.5083C97.3661 25.5224 97.9912 25.7369 98.3836 26.1657C98.7851 26.5853 98.9859 27.2426 98.9859 28.1376C98.9859 29.4522 98.6346 30.2866 97.9319 30.6409V30.6549L99.3144 34.4868C99.3235 34.5054 99.3281 34.5334 99.3281 34.5707C99.3281 34.6453 99.2916 34.6826 99.2186 34.6826H97.9456C97.8726 34.6826 97.8224 34.6453 97.795 34.5707L96.5768 30.9346H95.9882V34.5287C95.9882 34.5753 95.9745 34.6126 95.9471 34.6406C95.9288 34.6686 95.9015 34.6826 95.865 34.6826H94.6878ZM96.5083 29.6759C96.8825 29.6759 97.1517 29.5594 97.3159 29.3263C97.4802 29.0932 97.5623 28.7296 97.5623 28.2355C97.5623 27.7414 97.4756 27.3917 97.3022 27.1866C97.138 26.9722 96.8733 26.865 96.5083 26.865H95.9882V29.6759H96.5083Z" fill="white"/>
</svg>
