<svg width="198" height="90" viewBox="0 0 198 90" fill="none" xmlns="http://www.w3.org/2000/svg">
<path d="M43.0614 67.1526V48.4074C43.0614 40.7597 47.5616 34.6691 56.5635 34.6691C58.0083 34.648 59.4501 34.807 60.8553 35.1422V42.8539C59.8324 42.7864 58.9478 42.7864 58.5376 42.7864C53.7691 42.7864 51.7186 44.9513 51.7186 49.3504V67.1526H43.0614ZM63.447 51.254C63.447 41.8469 70.607 34.6737 80.5638 34.6737C90.5205 34.6737 97.678 41.8423 97.678 51.254C97.678 60.6656 90.5183 67.8967 80.5626 67.8967C70.607 67.8967 63.447 60.656 63.447 51.254ZM89.1555 51.254C89.1555 45.9072 85.5409 42.1179 80.5638 42.1179C75.5866 42.1179 71.9707 45.9039 71.9707 51.254C71.9707 56.6679 75.5853 60.39 80.5638 60.39C85.5423 60.39 89.1544 56.6632 89.1544 51.254H89.1555ZM122.772 42.1805H113.43V54.0234C113.43 58.1515 114.93 60.0468 119.226 60.0468C119.635 60.0468 120.657 60.0468 121.954 59.9794V66.9504C120.181 67.4236 118.616 67.6946 116.907 67.6946C109.679 67.6946 104.769 63.363 104.769 55.1746V42.1808H98.9728V35.3455H100.418C101.572 35.3454 102.679 34.89 103.496 34.0791C103.9 33.6783 104.221 33.2019 104.439 32.6773C104.658 32.1527 104.77 31.5903 104.769 31.0224V24.5848H113.43V35.3455H122.772V42.1802V42.1805ZM125.362 51.254C125.362 41.8469 132.522 34.6737 142.479 34.6737C152.436 34.6737 159.594 41.8423 159.594 51.254C159.594 60.6656 152.434 67.9014 142.479 67.9014C132.523 67.9014 125.362 60.656 125.362 51.254ZM151.069 51.254C151.069 45.9072 147.455 42.1179 142.478 42.1179C137.501 42.1179 133.885 45.9037 133.885 51.254C133.885 56.6679 137.499 60.39 142.478 60.39C147.456 60.39 151.069 56.6629 151.069 51.254ZM164.095 67.1526V49.0841C164.095 40.6922 169.482 34.6691 179.097 34.6691C188.643 34.6691 194.031 40.6925 194.031 49.0841V67.1526H185.439V49.7607C185.439 45.0923 183.324 42.1819 179.097 42.1819C174.869 42.1819 172.754 45.0921 172.754 49.7607V67.1526H164.095ZM3.95899 54.8471V67.1515H12.6614V55.3795C12.6614 54.2341 13.1201 53.1358 13.9361 52.3259C14.7532 51.5155 15.8597 51.0608 17.0129 51.0611H25.9361C30.0961 51.0609 34.0865 49.4196 37.0338 46.4964C38.4902 45.0519 39.6459 43.3354 40.4348 41.4452C41.2236 39.5551 41.6301 37.5286 41.6308 35.4818C41.6302 33.4347 41.2239 31.4078 40.4349 29.5174C39.646 27.627 38.49 25.9102 37.0333 24.4655C34.0856 21.5421 30.0944 19.9009 25.9339 19.9014H3.95899V35.2818H12.6614V28.0305H25.3474C27.3157 28.0301 29.204 28.8063 30.5989 30.1891C31.2882 30.8724 31.8353 31.6844 32.2088 32.5786C32.5823 33.4728 32.7749 34.4316 32.7754 35.4001C32.7752 36.3688 32.5828 37.3279 32.2095 38.2224C31.8361 39.117 31.2891 39.9293 30.5997 40.6129C29.2047 41.9962 27.3159 42.7726 25.3471 42.7721H16.1251C14.5274 42.7713 12.9452 43.083 11.4683 43.6896C9.99258 44.2957 8.6511 45.1851 7.52041 46.3072C6.39111 47.4278 5.49502 48.7593 4.8835 50.2254C4.2724 51.6902 3.95821 53.2609 3.95899 54.8471Z" fill="white"/>
</svg>
