<svg width="199" height="90" viewBox="0 0 199 90" fill="none" xmlns="http://www.w3.org/2000/svg">
<path d="M52.9968 64.2808V48.6976C52.9968 42.3399 56.738 37.2767 64.2214 37.2767C65.4225 37.2592 66.6211 37.3913 67.7892 37.67V44.0809C66.9389 44.0248 66.2035 44.0248 65.8625 44.0248C61.8983 44.0248 60.1938 45.8245 60.1938 49.4815V64.2808H52.9968ZM69.9438 51.064C69.9438 43.2438 75.8961 37.2806 84.1733 37.2806C92.4505 37.2806 98.4007 43.2399 98.4007 51.064C98.4007 58.8881 92.4487 64.8995 84.1724 64.8995C75.8961 64.8995 69.9438 58.8801 69.9438 51.064ZM91.3157 51.064C91.3157 46.6192 88.3109 43.4691 84.1733 43.4691C80.0357 43.4691 77.0297 46.6165 77.0297 51.064C77.0297 55.5647 80.0346 58.659 84.1733 58.659C88.312 58.659 91.3148 55.5608 91.3148 51.064H91.3157ZM119.262 43.5211H111.495V53.3664C111.495 56.7981 112.742 58.3737 116.314 58.3737C116.654 58.3737 117.503 58.3737 118.582 58.3176V64.1128C117.108 64.5061 115.807 64.7314 114.387 64.7314C108.378 64.7314 104.296 61.1305 104.296 54.3234V43.5213H99.4771V37.839H100.678C101.638 37.8389 102.558 37.4604 103.237 36.7862C103.573 36.453 103.84 36.057 104.021 35.6209C104.203 35.1848 104.296 34.7172 104.296 34.2451V28.8935H111.495V37.839H119.262V43.5208V43.5211ZM121.415 51.064C121.415 43.2438 127.367 37.2806 135.644 37.2806C143.922 37.2806 149.873 43.2399 149.873 51.064C149.873 58.8881 143.921 64.9033 135.644 64.9033C127.368 64.9033 121.415 58.8801 121.415 51.064ZM142.786 51.064C142.786 46.6192 139.781 43.4691 135.644 43.4691C131.506 43.4691 128.5 46.6162 128.5 51.064C128.5 55.5647 131.505 58.659 135.644 58.659C139.782 58.659 142.786 55.5606 142.786 51.064ZM153.614 64.2808V49.2601C153.614 42.2838 158.093 37.2767 166.086 37.2767C174.022 37.2767 178.501 42.284 178.501 49.2601V64.2808H171.358V49.8227C171.358 45.9417 169.6 43.5222 166.086 43.5222C162.571 43.5222 160.813 45.9415 160.813 49.8227V64.2808H153.614ZM20.4902 54.0511V64.2799H27.7248V54.4937C27.7248 53.5415 28.1061 52.6285 28.7844 51.9551C29.4637 51.2815 30.3835 50.9034 31.3423 50.9037H38.7602C42.2185 50.9035 45.5359 49.539 47.986 47.109C49.1967 45.9081 50.1575 44.4811 50.8133 42.9098C51.4691 41.3386 51.8069 39.6539 51.8075 37.9523C51.8071 36.2505 51.4692 34.5655 50.8134 32.994C50.1575 31.4224 49.1965 29.9953 47.9855 28.7943C45.5351 26.3639 42.2171 24.9996 38.7584 25H20.4902V37.7861H27.7248V31.7579H38.2708C39.9071 31.7576 41.4769 32.4028 42.6365 33.5524C43.2095 34.1204 43.6643 34.7955 43.9748 35.5388C44.2853 36.2822 44.4454 37.0793 44.4459 37.8844C44.4457 38.6897 44.2858 39.487 43.9754 40.2307C43.665 40.9743 43.2103 41.6496 42.6372 42.2179C41.4775 43.3679 39.9073 44.0133 38.2706 44.0129H30.6041C29.276 44.0122 27.9607 44.2714 26.7329 44.7756C25.5061 45.2795 24.3909 46.0189 23.4509 46.9516C22.5121 47.8832 21.7672 48.9902 21.2588 50.2089C20.7508 51.4267 20.4896 52.7325 20.4902 54.0511Z" fill="white"/>
</svg>
