<svg width="270" height="90" viewBox="0 0 270 90" fill="none" xmlns="http://www.w3.org/2000/svg">
<path d="M68.102 42.7797C70.7586 42.7121 73.3393 43.6707 75.3099 45.4572C76.2714 46.3158 77.0331 47.3753 77.5414 48.5611C78.0497 49.7468 78.292 51.0299 78.2515 52.3197C78.2984 53.5691 78.0851 54.8146 77.625 55.9767C77.1649 57.1389 76.4683 58.1923 75.5794 59.0697L77.7575 61.6347C77.8743 61.7661 77.9452 61.9319 77.9596 62.1072C77.9495 62.2147 77.9162 62.3187 77.8619 62.412C77.8076 62.5052 77.7336 62.5855 77.6452 62.6472L75.6917 64.0422C75.5614 64.1574 75.3938 64.2213 75.2201 64.2222C75.1073 64.2229 74.9963 64.1943 74.8979 64.139C74.7995 64.0838 74.7171 64.0039 74.6588 63.9072L72.4133 61.1172C71.0409 61.6326 69.59 61.9066 68.1245 61.9272C65.462 61.9982 62.8711 61.0578 60.8717 59.2947C59.9048 58.4357 59.1396 57.3728 58.631 56.1825C58.1225 54.9921 57.8831 53.7037 57.9301 52.4097C57.9075 51.1389 58.1585 49.8781 58.6661 48.7132C59.1737 47.5484 59.926 46.5069 60.8717 45.6597C62.8227 43.8042 65.4121 42.7728 68.102 42.7797ZM63.7908 47.9547C63.2104 48.5238 62.7548 49.2079 62.4532 49.9634C62.1517 50.7189 62.0107 51.5291 62.0393 52.3422C62.0036 53.1542 62.1391 53.9647 62.437 54.7207C62.7349 55.4767 63.1886 56.1612 63.7683 56.7297C64.915 57.8304 66.4469 58.4363 68.0347 58.4172C68.8227 58.4391 69.6069 58.3009 70.3402 58.0109C71.0734 57.7209 71.7404 57.285 72.301 56.7297C72.8848 56.1632 73.3426 55.4795 73.6444 54.7234C73.9463 53.9673 74.0853 53.1559 74.0525 52.3422C74.0797 51.5292 73.9381 50.7194 73.6366 49.9642C73.3351 49.2089 72.8803 48.5246 72.301 47.9547C71.7363 47.4066 71.068 46.977 70.3354 46.6911C69.6028 46.4052 68.8206 46.2687 68.0347 46.2897C66.4496 46.2622 64.9173 46.8602 63.7683 47.9547" fill="white"/>
<path d="M115.054 58.5296H106.073L104.703 61.2521C104.651 61.3739 104.563 61.4764 104.45 61.5451C104.337 61.6137 104.206 61.645 104.074 61.6346H100.459C100.302 61.6346 100.234 61.6346 100.234 61.4321C100.24 61.3044 100.279 61.1804 100.347 61.0721L109.014 43.1846H112.203L120.87 61.1846C120.89 61.3038 120.89 61.4254 120.87 61.5446C120.87 61.7021 120.87 61.7471 120.623 61.7471H117.075C116.943 61.7652 116.808 61.7372 116.693 61.6675C116.579 61.5979 116.492 61.4909 116.447 61.3646L115.054 58.5296ZM107.487 55.1546H113.685L111.911 51.7796C111.709 51.3746 111.551 50.9021 111.304 50.3396C111.057 49.7771 110.945 49.3046 110.833 48.9896L110.631 48.4496H110.474C110.092 49.5746 109.665 50.6996 109.194 51.7346L107.487 55.1546Z" fill="white"/>
<path d="M119.074 46.6946C118.97 46.6699 118.877 46.6151 118.804 46.5371C118.76 46.5014 118.723 46.4571 118.696 46.4068C118.669 46.3566 118.652 46.3014 118.647 46.2446V43.5671C118.67 43.4626 118.723 43.3668 118.798 43.2911C118.874 43.2154 118.969 43.1628 119.074 43.1396H136.543C136.65 43.1562 136.746 43.2124 136.813 43.2971C136.894 43.3667 136.95 43.4619 136.97 43.5671V46.2446C136.946 46.3512 136.893 46.4492 136.818 46.5284C136.743 46.6076 136.648 46.665 136.543 46.6946H129.807V61.3196C129.84 61.4067 129.84 61.5026 129.807 61.5896C129.761 61.6101 129.711 61.6207 129.661 61.6207C129.611 61.6207 129.561 61.6101 129.515 61.5896H126.035C125.992 61.6097 125.946 61.62 125.9 61.62C125.853 61.62 125.807 61.6097 125.765 61.5896C125.726 61.5562 125.693 61.5149 125.67 61.4685C125.647 61.4221 125.633 61.3715 125.63 61.3196V46.6946H119.074Z" fill="white"/>
<path d="M148.085 42.7804C150.737 42.7158 153.314 43.6651 155.293 45.4354C156.239 46.2817 156.993 47.323 157.5 48.488C158.008 49.6531 158.258 50.9144 158.234 52.1854C158.266 53.4774 158.02 54.761 157.512 55.9491C157.005 57.1371 156.248 58.2017 155.293 59.0704C153.267 60.7836 150.702 61.7234 148.051 61.7234C145.4 61.7234 142.835 60.7836 140.809 59.0704C139.834 58.2176 139.061 57.1564 138.548 55.965C138.035 54.7735 137.795 53.482 137.845 52.1854C137.827 50.9131 138.082 49.6517 138.594 48.487C139.105 47.3222 139.861 46.2815 140.809 45.4354C142.78 43.6665 145.35 42.717 147.995 42.7804H148.085ZM143.818 47.9554C143.237 48.5237 142.781 49.2076 142.479 49.9633C142.177 50.719 142.037 51.5296 142.067 52.3429C142.037 53.1563 142.177 53.9669 142.479 54.7226C142.781 55.4782 143.237 56.1622 143.818 56.7304C144.962 57.8352 146.496 58.4419 148.085 58.4179C148.876 58.4425 149.664 58.3056 150.401 58.0155C151.137 57.7254 151.808 57.2882 152.37 56.7305C152.933 56.1728 153.377 55.5063 153.675 54.7713C153.973 54.0364 154.118 53.2485 154.103 52.4554C154.156 51.6227 154.027 50.7883 153.725 50.0109C153.422 49.2335 152.953 48.5319 152.351 47.9554C151.198 46.8718 149.677 46.2688 148.096 46.2688C146.515 46.2688 144.994 46.8718 143.841 47.9554" fill="white"/>
<path d="M81.6645 43.5227C81.6548 43.4329 81.6548 43.3424 81.6645 43.2527C81.69 43.2171 81.7237 43.1882 81.7629 43.1686C81.802 43.149 81.8453 43.1393 81.889 43.1402H90.4217C92.413 43.046 94.3723 43.6684 95.9456 44.8952C96.6387 45.47 97.1898 46.1976 97.556 47.0212C97.9221 47.8447 98.0933 48.7419 98.0563 49.6427C98.0958 50.8934 97.6987 52.1188 96.9336 53.1077C96.1558 54.0894 95.1107 54.8241 93.9246 55.2227C94.285 55.6093 94.6153 56.023 94.9126 56.4602L98.0114 60.9602C98.0999 61.0669 98.1684 61.1889 98.2135 61.3202C98.2135 61.4777 98.2135 61.5227 97.9665 61.5227H93.9696C93.8663 61.5208 93.7655 61.4904 93.6783 61.4348C93.5912 61.3793 93.521 61.3007 93.4756 61.2077L89.7481 55.6952H85.7736V61.2077C85.7865 61.2972 85.7865 61.3881 85.7736 61.4777C85.7014 61.5054 85.6214 61.5054 85.5491 61.4777H81.9788C81.9788 61.4777 81.7992 61.4777 81.7543 61.4777C81.7215 61.3907 81.7215 61.2947 81.7543 61.2077L81.6645 43.5227ZM85.8186 46.6952V52.5227H90.3095C91.2787 52.5784 92.2399 52.3179 93.0489 51.7802C93.3782 51.5421 93.6444 51.227 93.8244 50.8623C94.0044 50.4976 94.0928 50.0944 94.0818 49.6877C94.107 49.2757 94.0251 48.8643 93.844 48.4935C93.663 48.1228 93.389 47.8055 93.0489 47.5727C92.255 46.997 91.2882 46.7111 90.3095 46.7627L85.8186 46.6952Z" fill="white"/>
<path d="M161.58 43.5227C161.56 43.4338 161.56 43.3415 161.58 43.2527C161.645 43.1843 161.733 43.1439 161.827 43.1402H170.337C172.329 43.046 174.288 43.6684 175.861 44.8952C176.554 45.47 177.105 46.1976 177.472 47.0212C177.838 47.8447 178.009 48.7419 177.972 49.6427C178.02 50.8909 177.63 52.1166 176.872 53.1077C176.085 54.0901 175.033 54.8245 173.84 55.2227C174.201 55.6093 174.531 56.023 174.828 56.4602L177.927 60.9602C178.031 61.0551 178.102 61.1814 178.129 61.3202C178.129 61.4777 178.129 61.5227 177.905 61.5227H173.863C173.762 61.522 173.664 61.4917 173.58 61.4358C173.496 61.3798 173.431 61.3005 173.391 61.2077L169.641 55.6952H165.667V61.2302C165.69 61.3263 165.69 61.4265 165.667 61.5227C165.628 61.5394 165.586 61.548 165.543 61.548C165.501 61.548 165.459 61.5394 165.42 61.5227H161.894C161.894 61.5227 161.692 61.5227 161.647 61.5227C161.626 61.477 161.614 61.4271 161.614 61.3764C161.614 61.3258 161.626 61.2758 161.647 61.2302L161.58 43.5227ZM165.667 46.6727V52.5227H170.158C171.135 52.5833 172.104 52.3226 172.92 51.7802C173.242 51.5357 173.503 51.2193 173.683 50.8561C173.862 50.4929 173.954 50.0929 173.953 49.6877C173.967 49.2772 173.881 48.8695 173.7 48.5006C173.52 48.1316 173.252 47.8129 172.92 47.5727C172.113 47.0064 171.142 46.7218 170.158 46.7627L165.667 46.6727Z" fill="white"/>
<path d="M185.943 60.1948H196.767C196.767 60.1948 196.767 60.1948 196.969 60.1948C196.983 60.2266 196.99 60.2611 196.99 60.296C196.99 60.3309 196.983 60.3654 196.969 60.3973V61.3873C196.969 61.3873 196.969 61.4998 196.969 61.5898C196.937 61.6041 196.902 61.6114 196.868 61.6114C196.833 61.6114 196.798 61.6041 196.767 61.5898H184.484C184.457 61.5929 184.43 61.5907 184.405 61.5833C184.379 61.576 184.355 61.5635 184.334 61.5468C184.313 61.53 184.296 61.5093 184.283 61.4858C184.27 61.4623 184.262 61.4364 184.259 61.4098V43.4098C184.253 43.3832 184.252 43.3555 184.256 43.3284C184.26 43.3013 184.27 43.2754 184.285 43.2523C184.3 43.2291 184.319 43.2092 184.342 43.1937C184.364 43.1783 184.39 43.1676 184.417 43.1623H185.719C185.774 43.1602 185.829 43.1768 185.874 43.2094C185.918 43.2421 185.951 43.2889 185.966 43.3423V60.1048L185.943 60.1948Z" fill="white"/>
<path d="M214.73 57.5854H203.188L201.257 61.4329C201.223 61.5275 201.157 61.6078 201.072 61.6608C200.986 61.7138 200.886 61.7366 200.786 61.7254H199.641C199.438 61.7254 199.304 61.7254 199.304 61.5679C199.335 61.4646 199.38 61.3662 199.438 61.2754L208.555 43.2754H209.318L218.3 61.2754C218.367 61.361 218.413 61.4612 218.435 61.5679C218.435 61.5679 218.435 61.7254 218.121 61.7254H216.975C216.884 61.7236 216.794 61.6949 216.719 61.6429C216.643 61.591 216.584 61.518 216.549 61.4329L214.73 57.5854ZM204.019 56.0104H213.877L210.239 48.7654L209.004 45.8179H208.869C208.553 46.8309 208.155 47.8166 207.679 48.7654L204.019 56.0104Z" fill="white"/>
<path d="M221.938 61.7253C221.882 61.7274 221.828 61.7108 221.783 61.6782C221.738 61.6455 221.706 61.5987 221.691 61.5453V43.5453C221.684 43.5182 221.683 43.4899 221.689 43.4626C221.695 43.4352 221.707 43.4096 221.724 43.3878C221.742 43.3659 221.764 43.3485 221.789 43.3368C221.815 43.3251 221.843 43.3194 221.87 43.3203H230.56C232.165 43.2041 233.758 43.667 235.051 44.6253C235.551 45.0407 235.95 45.5643 236.219 46.1567C236.487 46.7492 236.618 47.3949 236.601 48.0453C236.619 48.8091 236.425 49.5629 236.041 50.2225C235.656 50.8821 235.096 51.4215 234.423 51.7803C235.339 52.1052 236.126 52.7196 236.665 53.5311C237.204 54.3426 237.465 55.3074 237.409 56.2803C237.446 57.0186 237.307 57.7551 237.002 58.4283C236.697 59.1015 236.236 59.6919 235.658 60.1503C234.221 61.1545 232.489 61.6458 230.74 61.5453L221.938 61.7253ZM223.397 44.7828V51.2403H231.212C233.682 51.2403 234.917 50.1603 234.917 47.9553C234.917 45.7503 233.435 44.7828 230.426 44.7828H223.397ZM230.695 60.1953C234.041 60.1953 235.747 58.9803 235.747 56.5053C235.771 55.986 235.678 55.4679 235.476 54.9891C235.274 54.5103 234.968 54.0827 234.58 53.7378C233.574 53.0208 232.353 52.6713 231.122 52.7478H223.442V60.1728L230.695 60.1953Z" fill="white"/>
<path d="M242.192 55.7851C242.231 55.7821 242.269 55.7866 242.306 55.7986C242.342 55.8105 242.376 55.8295 242.405 55.8546C242.435 55.8797 242.459 55.9104 242.476 55.9448C242.493 55.9792 242.504 56.0167 242.507 56.0551C242.507 59.0926 244.752 60.5551 249.086 60.5551C250.665 60.6437 252.233 60.2431 253.577 59.4076C254.056 59.0791 254.445 58.6347 254.708 58.1157C254.971 57.5966 255.1 57.0195 255.081 56.4376C255.078 56.0498 254.997 55.6665 254.843 55.3108C254.689 54.9551 254.464 54.6343 254.183 54.3676C253.326 53.6903 252.265 53.3253 251.174 53.3326L245.852 52.9276C242.439 52.7026 240.71 51.2176 240.71 48.5851C240.732 47.8153 240.923 47.0596 241.268 46.3715C241.613 45.6834 242.105 45.0796 242.709 44.6026C244.324 43.3607 246.336 42.7526 248.367 42.8926C250.396 42.7455 252.415 43.2928 254.093 44.4451C254.71 44.9399 255.203 45.5714 255.534 46.2898C255.865 47.0083 256.025 47.7941 256.002 48.5851C256.002 48.7426 256.002 48.8326 255.732 48.8326H254.497C254.295 48.8326 254.205 48.8326 254.205 48.5176C254.224 47.9246 254.101 47.3357 253.847 46.7996C253.594 46.2636 253.216 45.7958 252.746 45.4351C251.41 44.5798 249.836 44.1775 248.255 44.2876C246.74 44.2038 245.238 44.6058 243.966 45.4351C243.47 45.7532 243.063 46.1929 242.784 46.7127C242.505 47.2325 242.363 47.815 242.372 48.4051C242.372 50.1151 243.562 50.9926 245.942 51.1951L251.241 51.5776C252.745 51.5965 254.2 52.1193 255.373 53.0626C255.804 53.4622 256.144 53.9507 256.369 54.4945C256.594 55.0383 256.698 55.6245 256.675 56.2126C256.661 56.9666 256.478 57.7077 256.14 58.3813C255.802 59.055 255.317 59.6441 254.722 60.1051C253.061 61.3771 250.991 61.9936 248.906 61.8376C246.752 61.9689 244.61 61.4264 242.776 60.2851C242.07 59.8226 241.493 59.1873 241.1 58.4392C240.707 57.6912 240.511 56.8552 240.531 56.0101V55.6501C240.531 55.6501 240.531 55.4476 240.71 55.4251L242.192 55.7851Z" fill="white"/>
<path d="M32.3992 63.9075C28.1614 63.9075 24.0189 62.6481 20.4956 60.2885C16.9724 57.9289 14.2267 54.5752 12.606 50.6516C10.9853 46.7281 10.5624 42.4111 11.3908 38.2467C12.2192 34.0822 14.2616 30.2576 17.2597 27.2565C20.2579 24.2555 24.0769 22.2129 28.2338 21.3873C32.3907 20.5616 36.6985 20.9899 40.6124 22.6179C44.5263 24.246 47.8704 27.0007 50.2215 30.5336C52.5727 34.0665 53.8253 38.2187 53.8208 42.465C53.8149 48.154 51.5553 53.6079 47.5386 57.6286C43.5219 61.6492 38.0767 63.9076 32.3992 63.9075ZM32.3992 22.3725C28.4333 22.3725 24.5564 23.551 21.2589 25.7587C17.9614 27.9665 15.3913 31.1046 13.8736 34.776C12.3559 38.4474 11.9588 42.4873 12.7326 46.3849C13.5063 50.2825 15.416 53.8626 18.2203 56.6726C21.0246 59.4826 24.5975 61.3962 28.4872 62.1715C32.3769 62.9468 36.4087 62.5489 40.0727 61.0281C43.7367 59.5073 46.8684 56.932 49.0717 53.6278C51.2751 50.3237 52.4511 46.439 52.4511 42.465C52.4511 39.8265 51.9324 37.2137 50.9247 34.776C49.917 32.3382 48.44 30.1233 46.578 28.2575C44.716 26.3917 42.5055 24.9117 40.0727 23.902C37.6399 22.8923 35.0324 22.3725 32.3992 22.3725Z" fill="white"/>
<path d="M45.6249 64.5596C43.8485 64.5596 42.1119 64.0317 40.6349 63.0428C39.1578 62.0539 38.0066 60.6483 37.3268 59.0037C36.647 57.3592 36.4691 55.5496 36.8157 53.8038C37.1622 52.0579 38.0177 50.4543 39.2738 49.1956C40.5299 47.9369 42.1303 47.0798 43.8726 46.7325C45.6149 46.3852 47.4209 46.5635 49.0621 47.2447C50.7033 47.9258 52.1061 49.0794 53.093 50.5594C54.0799 52.0395 54.6067 53.7795 54.6067 55.5596C54.6067 57.9465 53.6604 60.2357 51.976 61.9235C50.2916 63.6114 48.007 64.5596 45.6249 64.5596ZM45.6249 48.0896C44.1325 48.0717 42.6685 48.4991 41.4192 49.3174C40.1699 50.1357 39.1918 51.3079 38.6093 52.6849C38.0269 54.0618 37.8663 55.5813 38.1482 57.0499C38.43 58.5186 39.1415 59.87 40.1921 60.9323C41.2427 61.9945 42.5849 62.7196 44.048 63.0153C45.5111 63.3109 47.0288 63.1638 48.4082 62.5926C49.7876 62.0214 50.9662 61.0519 51.7941 59.8075C52.6219 58.5631 53.0617 57.1001 53.0573 55.6046C53.0514 53.6094 52.2563 51.698 50.8462 50.2893C49.4361 48.8806 47.5262 48.0896 45.5351 48.0896" fill="white"/>
</svg>
