<svg width="190" height="65" viewBox="0 0 190 65" fill="none" xmlns="http://www.w3.org/2000/svg">
<path fill-rule="evenodd" clip-rule="evenodd" d="M173.2 5.09741C172.389 6.79673 171.696 8.29421 170.963 9.7726C167.587 16.5617 164.241 23.3644 160.795 30.1167C159.948 31.7751 159.921 33.1636 160.777 34.8465C164.674 42.4976 168.458 50.2058 172.275 57.8951C172.564 58.4815 172.814 59.0925 173.18 59.9026H22.1816V5.09741H173.2Z" fill="#AD475C"/>
<path d="M50.3806 47.5928L43.4774 38.0067H42.1305V47.5928H34.5117V17.4287H46.4239C49.7072 17.4287 52.3449 18.2382 54.3372 19.8571C56.3576 21.4762 57.41 23.9756 57.4942 27.3556C57.4942 32.6954 55.5439 35.9901 51.6433 37.2398L59.7672 47.5928H50.3806ZM42.1305 31.4457H46.5501C48.0374 31.4457 49.0898 30.8775 49.7072 29.7414C50.3244 28.5769 50.3244 27.4266 49.7072 26.2904C49.0898 25.126 48.0374 24.5437 46.5501 24.5437H42.1305V31.4457Z" fill="white"/>
<path d="M83.571 26.6313C83.5429 27.4551 83.2623 28.3497 82.7292 29.3154C82.224 30.2811 81.4805 31.0196 80.4982 31.5308C82.3223 32.4681 83.5429 33.7179 84.1603 35.28C84.7777 36.8422 84.96 38.3476 84.7075 39.7961C83.8937 44.994 80.3579 47.5928 74.1003 47.5928H61.9355V17.4287H73.8898C76.8082 17.4287 79.1654 18.2666 80.9613 19.9424C82.7852 21.5898 83.6551 23.8194 83.571 26.6313ZM69.5121 29.2302H73.8898C75.0403 29.2302 75.854 28.79 76.3311 27.9094C76.8363 27.0006 76.8502 26.1059 76.3732 25.2253C75.8961 24.3165 75.0684 23.862 73.8898 23.862H69.5121V29.2302ZM69.5121 40.9038H73.8898C75.3209 40.9038 76.3171 40.3926 76.8783 39.3701C77.4676 38.3192 77.4676 37.2825 76.8783 36.2599C76.289 35.2374 75.2928 34.7262 73.8898 34.7262H69.5121V40.9038Z" fill="white"/>
<path d="M87.1035 43.5879C87.1035 42.4235 87.5104 41.4293 88.3243 40.6056C89.138 39.782 90.1203 39.3701 91.2708 39.3701C92.4213 39.3701 93.4034 39.782 94.2172 40.6056C95.059 41.4293 95.4799 42.4235 95.4799 43.5879C95.4799 44.7809 95.059 45.8034 94.2172 46.6555C93.4034 47.4792 92.4213 47.891 91.2708 47.891C90.1203 47.891 89.138 47.4792 88.3243 46.6555C87.5104 45.8034 87.1035 44.7809 87.1035 43.5879Z" fill="white"/>
<path d="M114.98 47.5928L108.077 38.0067H106.73V47.5928H99.1113V17.4287H111.023C114.307 17.4287 116.944 18.2382 118.937 19.8571C120.957 21.4762 122.01 23.9756 122.094 27.3556C122.094 32.6954 120.144 35.9901 116.243 37.2398L124.367 47.5928H114.98ZM106.73 31.4457H111.15C112.637 31.4457 113.689 30.8775 114.307 29.7414C114.924 28.5769 114.924 27.4266 114.307 26.2904C113.689 25.126 112.637 24.5437 111.15 24.5437H106.73V31.4457Z" fill="white"/>
<path d="M133.984 17.4287V37.4955C133.984 38.4045 134.279 39.1854 134.868 39.8387C135.457 40.4636 136.159 40.847 136.973 40.9891C137.814 41.1312 138.656 41.1312 139.498 40.9891C140.34 40.847 141.056 40.4636 141.645 39.8387C142.234 39.1854 142.529 38.4045 142.529 37.4955V17.4287H150.148V37.4955C150.148 39.0292 149.867 40.4353 149.306 41.7133C148.772 42.963 148.043 43.9998 147.117 44.8235C146.191 45.6472 145.125 46.3572 143.918 46.9537C142.739 47.5217 141.491 47.8626 140.172 47.9762C138.881 48.0898 137.576 48.0898 136.257 47.9762C134.938 47.8626 133.675 47.5217 132.469 46.9537C131.29 46.3572 130.238 45.6472 129.312 44.8235C128.414 43.9998 127.698 42.963 127.165 41.7133C126.632 40.4353 126.365 39.0292 126.365 37.4955V17.4287H133.984Z" fill="white"/>
</svg>
