<svg width="220" height="65" viewBox="0 0 220 65" fill="none" xmlns="http://www.w3.org/2000/svg">
<path d="M13.2246 22.1448C16.1399 22.1448 18.2629 22.7707 19.5937 24.0225C20.9457 25.2534 21.6217 26.9538 21.6217 29.1235C21.6217 30.4171 21.3471 31.6376 20.7979 32.785C20.2486 33.9116 19.3297 34.8192 18.0411 35.5077C16.7736 36.1962 15.0414 36.5404 12.8444 36.5404H10.7847V44.4893H6V22.1448H13.2246ZM12.9711 26.0254H10.7847V32.6599H12.3691C13.7211 32.6599 14.7879 32.3991 15.5695 31.8775C16.3722 31.335 16.7736 30.4692 16.7736 29.28C16.7736 27.1102 15.5061 26.0254 12.9711 26.0254Z" fill="white"/>
<path d="M24.4713 44.4893V22.1448H38.7622V26.0567H29.2561V30.7196H31.1573C33.2909 30.7196 35.0337 31.0117 36.3856 31.5958C37.7588 32.18 38.7727 32.9832 39.4276 34.0055C40.0825 35.0278 40.4099 36.1962 40.4099 37.5105C40.4099 39.722 39.66 41.4433 38.1601 42.6742C36.6814 43.8842 34.3154 44.4893 31.0622 44.4893H24.4713ZM30.8721 40.6087C32.3297 40.6087 33.4704 40.3792 34.2943 39.9202C35.1393 39.4613 35.5618 38.658 35.5618 37.5105C35.5618 36.3213 35.1076 35.539 34.1992 35.1634C33.2909 34.7879 32.0551 34.6001 30.4919 34.6001H29.2561V40.6087H30.8721Z" fill="white"/>
<path d="M61.6939 44.4893H56.2438L48.0368 33.1606V44.4893H43.2521V22.1448H48.0368V32.9728L56.1487 22.1448H61.2503L53.0117 32.8789L61.6939 44.4893Z" fill="white"/>
<path d="M80.6249 20L86.0796 25.3872V28.5357H88.9203L94.3751 33.9229L88.9203 39.3101H86.0796V42.4588L80.6249 47.846L75.1702 42.4588V39.3101H71.6348L66.1801 33.9229L71.6348 28.5357H75.1702V25.3872L80.6249 20Z" fill="white"/>
<path d="M111.457 44.4893H106.673V26.0879H100.525V22.1448H117.605V26.0879H111.457V44.4893Z" fill="white"/>
<path d="M127.184 27.0894C129.127 27.0894 130.701 27.8404 131.905 29.3426C133.109 30.8239 133.711 33.0145 133.711 35.9145C133.711 38.8145 133.088 41.026 131.842 42.549C130.595 44.0511 129 44.8022 127.057 44.8022C125.811 44.8022 124.818 44.5831 124.078 44.145C123.339 43.686 122.737 43.1749 122.272 42.6116H122.019C122.188 43.4878 122.272 44.3223 122.272 45.1151V52H117.551V27.4023H121.385L122.05 29.6242H122.272C122.737 28.9357 123.36 28.3411 124.142 27.8404C124.923 27.3397 125.937 27.0894 127.184 27.0894ZM125.663 30.8134C124.437 30.8134 123.571 31.189 123.064 31.94C122.578 32.6911 122.314 33.8386 122.272 35.3825V35.8832C122.272 37.5314 122.515 38.804 123.001 39.7011C123.508 40.5774 124.416 41.0155 125.726 41.0155C126.803 41.0155 127.596 40.5774 128.103 39.7011C128.631 38.804 128.895 37.5209 128.895 35.8519C128.895 32.4929 127.817 30.8134 125.663 30.8134Z" fill="white"/>
<path d="M143.148 27.0894C145.535 27.0894 147.426 27.7674 148.82 29.1235C150.214 30.4588 150.911 32.3677 150.911 34.8505V37.1037H139.757C139.8 38.4181 140.191 39.4508 140.93 40.2019C141.69 40.9529 142.736 41.3285 144.067 41.3285C145.187 41.3285 146.201 41.2242 147.109 41.0155C148.017 40.786 148.957 40.4418 149.929 39.9828V43.5817C149.084 43.999 148.186 44.3015 147.236 44.4893C146.306 44.6979 145.176 44.8022 143.845 44.8022C142.113 44.8022 140.581 44.4893 139.251 43.8634C137.92 43.2166 136.874 42.2465 136.113 40.9529C135.353 39.6594 134.973 38.0321 134.973 36.071C134.973 34.0681 135.311 32.4095 135.987 31.0951C136.684 29.7598 137.645 28.7584 138.87 28.0908C140.095 27.4232 141.521 27.0894 143.148 27.0894ZM143.18 30.4066C142.271 30.4066 141.511 30.6987 140.898 31.2829C140.307 31.867 139.958 32.7746 139.853 34.0055H146.475C146.454 32.9623 146.179 32.1069 145.651 31.4393C145.123 30.7508 144.299 30.4066 143.18 30.4066Z" fill="white"/>
<path d="M157.877 27.4023V33.9742H164.468V27.4023H169.189V44.4893H164.468V37.4479H157.877V44.4893H153.155V27.4023H157.877Z" fill="white"/>
<path d="M188.11 27.4023V41.0781H190.645V50.623H186.399V44.4893H174.769V50.623H170.523V41.0781H171.981C172.741 39.9306 173.386 38.6267 173.914 37.1663C174.442 35.685 174.865 34.1098 175.181 32.4408C175.498 30.7717 175.731 29.0922 175.878 27.4023H188.11ZM179.839 30.9073C179.586 32.8059 179.237 34.6105 178.794 36.3213C178.35 38.0112 177.727 39.5968 176.924 41.0781H183.388V30.9073H179.839Z" fill="white"/>
<path d="M192.009 44.4893V27.4023H196.731V34.0055H199.012C201.653 34.0055 203.607 34.4228 204.874 35.2573C206.142 36.0918 206.775 37.354 206.775 39.044C206.775 40.6922 206.184 42.017 205.001 43.0184C203.818 43.999 201.874 44.4893 199.17 44.4893H192.009ZM209.279 44.4893V27.4023H214V44.4893H209.279ZM198.917 41.2659C199.846 41.2659 200.596 41.099 201.167 40.7652C201.758 40.4314 202.054 39.8785 202.054 39.1065C202.054 37.8548 200.987 37.2289 198.854 37.2289H196.731V41.2659H198.917Z" fill="white"/>
</svg>
