<svg width="166" height="65" viewBox="0 0 166 65" fill="none" xmlns="http://www.w3.org/2000/svg">
<path fill-rule="evenodd" clip-rule="evenodd" d="M161 5.09741C160.189 6.79673 159.496 8.29421 158.763 9.7726C155.387 16.5617 152.041 23.3644 148.595 30.1167C147.748 31.7751 147.721 33.1636 148.577 34.8465C152.474 42.4976 156.258 50.2058 160.075 57.8951C160.364 58.4815 160.614 59.0925 160.979 59.9026H9.98145V5.09741H161Z" fill="#AD475C"/>
<path d="M38.1804 47.5927L31.2772 38.0066H29.9303V47.5927H22.3115V17.4286H34.2237C37.507 17.4286 40.1447 18.2381 42.137 19.857C44.1574 21.4761 45.2098 23.9755 45.294 27.3555C45.294 32.6953 43.3437 35.99 39.4431 37.2397L47.567 47.5927H38.1804ZM29.9303 31.4456H34.3499C35.8372 31.4456 36.8896 30.8774 37.507 29.7413C38.1242 28.5768 38.1242 27.4264 37.507 26.2903C36.8896 25.1258 35.8372 24.5435 34.3499 24.5435H29.9303V31.4456Z" fill="white"/>
<path d="M71.3708 26.6312C71.3427 27.4549 71.0621 28.3496 70.529 29.3153C70.0238 30.281 69.2803 31.0195 68.298 31.5307C70.1221 32.468 71.3427 33.7178 71.9601 35.2799C72.5775 36.8421 72.7598 38.3475 72.5073 39.796C71.6935 44.9938 68.1577 47.5927 61.9001 47.5927H49.7354V17.4286H61.6896C64.608 17.4286 66.9652 18.2665 68.7611 19.9422C70.585 21.5897 71.4549 23.8193 71.3708 26.6312ZM57.3119 29.2301H61.6896C62.8401 29.2301 63.6538 28.7899 64.1309 27.9093C64.6361 27.0005 64.65 26.1058 64.173 25.2252C63.6959 24.3164 62.8682 23.8619 61.6896 23.8619H57.3119V29.2301ZM57.3119 40.9037H61.6896C63.1207 40.9037 64.1169 40.3925 64.6781 39.37C65.2674 38.3191 65.2674 37.2823 64.6781 36.2598C64.0888 35.2373 63.0926 34.7261 61.6896 34.7261H57.3119V40.9037Z" fill="white"/>
<path d="M74.9043 43.5879C74.9043 42.4235 75.3112 41.4293 76.1251 40.6056C76.9388 39.782 77.9211 39.3701 79.0715 39.3701C80.222 39.3701 81.2042 39.782 82.018 40.6056C82.8598 41.4293 83.2807 42.4235 83.2807 43.5879C83.2807 44.7809 82.8598 45.8034 82.018 46.6555C81.2042 47.4792 80.222 47.891 79.0715 47.891C77.9211 47.891 76.9388 47.4792 76.1251 46.6555C75.3112 45.8034 74.9043 44.7809 74.9043 43.5879Z" fill="white"/>
<path d="M102.78 47.5927L95.8767 38.0066H94.5297V47.5927H86.9111V17.4286H98.8232C102.106 17.4286 104.744 18.2381 106.737 19.857C108.757 21.4761 109.809 23.9755 109.894 27.3555C109.894 32.6953 107.943 35.99 104.043 37.2397L112.166 47.5927H102.78ZM94.5297 31.4456H98.9495C100.437 31.4456 101.489 30.8774 102.106 29.7413C102.724 28.5768 102.724 27.4264 102.106 26.2903C101.489 25.1258 100.437 24.5435 98.9495 24.5435H94.5297V31.4456Z" fill="white"/>
<path d="M121.784 17.4286V37.4954C121.784 38.4043 122.079 39.1853 122.668 39.8386C123.257 40.4635 123.959 40.8469 124.772 40.9889C125.614 41.131 126.456 41.131 127.298 40.9889C128.14 40.8469 128.855 40.4635 129.445 39.8386C130.034 39.1853 130.329 38.4043 130.329 37.4954V17.4286H137.947V37.4954C137.947 39.0291 137.667 40.4351 137.105 41.7132C136.572 42.9629 135.843 43.9997 134.917 44.8234C133.991 45.6471 132.924 46.3571 131.718 46.9535C130.539 47.5216 129.29 47.8625 127.971 47.9761C126.681 48.0896 125.376 48.0896 124.057 47.9761C122.738 47.8625 121.475 47.5216 120.269 46.9535C119.09 46.3571 118.038 45.6471 117.112 44.8234C116.214 43.9997 115.498 42.9629 114.965 41.7132C114.432 40.4351 114.165 39.0291 114.165 37.4954V17.4286H121.784Z" fill="white"/>
</svg>
