<svg width="305" height="90" viewBox="0 0 305 90" fill="none" xmlns="http://www.w3.org/2000/svg">
<g clip-path="url(#clip0_204_420)">
<path d="M7.03363 46.229V55.7073H0V27.3506H10.6943C12.8301 27.3506 14.6645 27.5873 16.1976 28.0607C17.7308 28.534 18.9932 29.1862 19.9848 30.0171C20.9558 30.8191 21.7085 31.8259 22.1805 32.9542C22.6516 34.0833 22.8874 35.3029 22.888 36.613C22.888 38.0275 22.6454 39.3251 22.1601 40.5055C21.6871 41.6689 20.9237 42.7098 19.9334 43.5415C18.9339 44.385 17.668 45.0434 16.1357 45.5165C14.6034 45.9896 12.7896 46.2263 10.6943 46.2266L7.03363 46.229ZM7.03363 41.2676H10.696C12.5262 41.2676 13.8439 40.8589 14.6491 40.0415C15.4543 39.2241 15.8567 38.0822 15.8564 36.6157C15.8564 35.9666 15.7523 35.3764 15.5441 34.8451C15.3447 34.326 15.0208 33.8565 14.5973 33.4726C14.1729 33.0902 13.6389 32.795 12.9953 32.5871C12.3517 32.3791 11.5852 32.2752 10.696 32.2755H7.03363V41.2676Z" fill="white"/>
<path d="M34.8125 35.2129C36.4475 35.2129 37.9386 35.453 39.2859 35.9333C40.6331 36.4136 41.788 37.1015 42.7505 37.9972C43.7147 38.8927 44.4644 39.9794 44.9997 41.2575C45.535 42.5355 45.802 43.9724 45.8009 45.568C45.8009 47.1768 45.5338 48.6267 44.9997 49.9177C44.4655 51.2088 43.7158 52.3049 42.7505 53.2062C41.7857 54.1085 40.6309 54.8027 39.2859 55.2888C37.9409 55.7749 36.4497 56.0183 34.8125 56.0191C33.1608 56.0191 31.6589 55.7759 30.3069 55.2896C28.9548 54.8032 27.7896 54.109 26.8113 53.207C25.833 52.3054 25.0767 51.2093 24.5426 49.9185C24.0084 48.6278 23.7416 47.1776 23.7422 45.568C23.7422 43.9718 24.0091 42.535 24.543 41.2575C25.0769 39.98 25.8331 38.8932 26.8117 37.9972C27.7895 37.1026 28.9547 36.4146 30.3073 35.9333C31.6599 35.452 33.1617 35.2118 34.8125 35.2129ZM34.8125 51.5419C36.2956 51.5419 37.3878 51.0524 38.0891 50.0733C38.7905 49.0943 39.1411 47.6057 39.1411 45.6077C39.1411 43.6099 38.7908 42.1243 38.09 41.1511C37.3892 40.1779 36.2967 39.6906 34.8125 39.6893C33.2847 39.6893 32.1672 40.1759 31.4599 41.1491C30.7526 42.1224 30.399 43.6085 30.399 45.6077C30.399 47.6057 30.7526 49.0948 31.4599 50.0749C32.1672 51.055 33.2847 51.5446 34.8125 51.5435V51.5419Z" fill="white"/>
<path d="M64.8929 40.3124C64.727 40.5068 64.5384 40.6832 64.3306 40.8383C64.1506 40.9681 63.8934 41.0328 63.5616 41.0328C63.2581 41.0368 62.9592 40.9628 62.6976 40.8189C62.4407 40.676 62.1527 40.5172 61.8335 40.3426C61.4758 40.1514 61.0997 39.9919 60.7102 39.8663C60.2802 39.7242 59.7461 39.653 59.1082 39.6527C58.3174 39.6527 57.6342 39.7889 57.0584 40.0612C56.4854 40.3314 55.9951 40.7332 55.6334 41.2289C55.2591 41.7353 54.9815 42.3549 54.8007 43.0876C54.6199 43.8203 54.53 44.6474 54.5308 45.5687C54.5308 47.5022 54.9296 48.9879 55.7272 50.0257C56.5247 51.0635 57.624 51.5824 59.025 51.5824C59.7742 51.5824 60.3673 51.4948 60.8044 51.3196C61.1988 51.1667 61.5724 50.9708 61.9176 50.7357C62.2231 50.5217 62.5039 50.3232 62.7599 50.1404C63.016 49.9575 63.3385 49.8668 63.7275 49.8681C64.241 49.8681 64.6295 50.0434 64.8929 50.394L66.7656 52.5544C66.1002 53.2688 65.3997 53.8493 64.6641 54.2957C63.9594 54.7293 63.2015 55.0823 62.4069 55.3471C61.6545 55.5961 60.8768 55.7721 60.0859 55.8722C59.3345 55.9675 58.5772 56.0162 57.8189 56.0179C56.5226 56.0219 55.2386 55.7839 54.042 55.3177C52.8471 54.8542 51.7695 54.1615 50.8786 53.2843C49.9705 52.3952 49.249 51.3021 48.7143 50.005C48.1796 48.7079 47.9125 47.229 47.9131 45.5683C47.9131 44.1151 48.1448 42.7559 48.6082 41.4908C49.0716 40.2257 49.7583 39.1297 50.6681 38.2028C51.5763 37.2767 52.7001 36.5468 54.0394 36.013C55.3787 35.4793 56.929 35.2133 58.6902 35.2149C60.3823 35.2149 61.8666 35.4679 63.1432 35.9741C64.4197 36.4803 65.5712 37.2197 66.5976 38.1921L64.8929 40.3124Z" fill="white"/>
<path d="M81.9817 37.043C82.3058 36.5841 82.7451 36.2064 83.2612 35.9428C83.7718 35.6699 84.3494 35.5257 84.9375 35.5244H90.0351L85.4972 42.8614C85.1509 43.4064 84.7973 43.8476 84.4363 44.1847C84.0639 44.5291 83.6167 44.7947 83.125 44.9634C83.8322 45.1846 84.4078 45.4961 84.8517 45.8977C85.2956 46.2994 85.6909 46.8055 86.0374 47.4159L90.5533 55.7063H86.1015C85.6021 55.7124 85.1033 55.6701 84.6132 55.58C84.2178 55.5052 83.8359 55.3775 83.4793 55.201C83.1541 55.0384 82.8591 54.8278 82.6055 54.5774C82.3436 54.3166 82.1133 54.0295 81.9189 53.7213L79.6272 48.6408C79.419 48.1867 79.117 47.8528 78.7212 47.639C78.3254 47.4252 77.8713 47.3182 77.3589 47.3179H75.7357V55.7055H69.2852V35.526H75.7357V43.5246H77.0687C77.6512 43.5246 78.0846 43.4371 78.369 43.2622C78.6533 43.0873 78.9065 42.792 79.1286 42.3763L81.9817 37.043Z" fill="white"/>
<path d="M102.061 35.2129C103.696 35.2129 105.187 35.453 106.535 35.9333C107.882 36.4136 109.037 37.1015 109.999 37.9972C110.963 38.8927 111.713 39.9794 112.249 41.2575C112.784 42.5355 113.051 43.9724 113.049 45.568C113.049 47.1768 112.783 48.6267 112.249 49.9177C111.715 51.2088 110.965 52.3049 109.999 53.2062C109.034 54.1085 107.88 54.8027 106.535 55.2888C105.19 55.7749 103.699 56.018 102.061 56.0183C100.409 56.0183 98.9077 55.7751 97.5554 55.2888C96.203 54.8024 95.0377 54.1082 94.0593 53.2062C93.0816 52.3046 92.3256 51.2085 91.7915 49.9177C91.2573 48.627 90.9902 47.177 90.9902 45.568C90.9902 43.9718 91.2573 42.535 91.7915 41.2575C92.3256 39.98 93.0816 38.8932 94.0593 37.9972C95.0371 37.1026 96.2025 36.4146 97.5554 35.9333C98.9083 35.452 100.41 35.2118 102.061 35.2129ZM102.061 51.5419C103.545 51.5419 104.637 51.0524 105.338 50.0733C106.038 49.0943 106.389 47.6057 106.389 45.6077C106.389 43.6099 106.038 42.1243 105.338 41.1511C104.637 40.1779 103.544 39.6913 102.061 39.6913C100.535 39.6913 99.417 40.1779 98.708 41.1511C97.999 42.1243 97.6448 43.6099 97.6453 45.6077C97.6453 47.6057 97.9997 49.0948 98.7084 50.0749C99.4171 51.055 100.535 51.5446 102.061 51.5435L102.061 51.5419Z" fill="white"/>
<path d="M129.218 46.7927C129.426 46.2481 129.648 45.7128 129.884 45.1868C130.108 44.683 130.366 44.1925 130.655 43.7182L134.316 36.8119C134.622 36.2801 134.993 35.9297 135.43 35.7609C135.848 35.5957 136.297 35.5097 136.752 35.5077H142.161V55.7105H136.335V46.1505C136.335 45.6575 136.359 45.1029 136.408 44.4866C136.453 43.8958 136.533 43.3077 136.647 42.7251L131.382 52.2812C130.994 52.9427 130.391 53.2735 129.572 53.2735H128.886C128.068 53.2735 127.465 52.9427 127.075 52.2812L121.771 42.6668C121.882 43.2378 121.969 43.8378 122.031 44.4668C122.093 45.0958 122.124 45.6566 122.125 46.1493V55.705H116.298V35.5049H121.708C122.163 35.5072 122.613 35.5966 123.03 35.7676C123.466 35.9436 123.837 36.2908 124.143 36.8091L127.784 43.7174C128.333 44.7125 128.812 45.7398 129.218 46.7927Z" fill="white"/>
<path d="M162.385 40.3116C162.219 40.5059 162.03 40.6822 161.823 40.8376C161.643 40.9672 161.386 41.032 161.053 41.032C160.75 41.0362 160.451 40.9622 160.189 40.8181C159.933 40.6752 159.645 40.5164 159.326 40.3418C158.968 40.1506 158.592 39.9912 158.202 39.8655C157.772 39.7234 157.238 39.6522 156.6 39.652C155.81 39.652 155.127 39.7881 154.55 40.0604C153.977 40.3307 153.487 40.7325 153.125 41.2281C152.751 41.7346 152.474 42.3542 152.293 43.0869C152.113 43.8196 152.023 44.6465 152.024 45.5676C152.024 47.5011 152.422 48.9867 153.22 50.0245C154.017 51.0623 155.117 51.5812 156.518 51.5812C157.267 51.5812 157.86 51.4936 158.297 51.3184C158.691 51.1658 159.065 50.9698 159.41 50.7346C159.715 50.5205 159.996 50.3221 160.253 50.1392C160.509 49.9564 160.832 49.8656 161.221 49.8669C161.733 49.8669 162.122 50.0422 162.386 50.3928L164.259 52.5532C163.593 53.2677 162.892 53.8481 162.157 54.2945C161.452 54.7283 160.694 55.0813 159.9 55.3459C159.147 55.5949 158.37 55.7708 157.579 55.871C156.827 55.9664 156.07 56.015 155.311 56.0167C154.015 56.0208 152.731 55.7827 151.534 55.3165C150.339 54.8532 149.262 54.1605 148.371 53.2832C147.463 52.3941 146.742 51.301 146.207 50.0039C145.672 48.7068 145.404 47.228 145.403 45.5676C145.403 44.1143 145.636 42.7552 146.101 41.4901C146.565 40.225 147.252 39.1286 148.162 38.2009C149.07 37.2747 150.194 36.5448 151.533 36.0111C152.872 35.4774 154.422 35.2113 156.182 35.2129C157.875 35.2129 159.359 35.466 160.635 35.9722C161.912 36.4784 163.063 37.2177 164.09 38.1901L162.385 40.3116Z" fill="#758CDA"/>
<path d="M166.776 35.5264H175.807C177.194 35.5264 178.401 35.6497 179.427 35.8963C180.453 36.1429 181.303 36.4869 181.977 36.9283C182.649 37.3688 183.148 37.8913 183.475 38.4957C183.803 39.1083 183.972 39.7853 183.965 40.4707C183.963 40.9265 183.904 41.3805 183.788 41.8234C183.666 42.2942 183.458 42.7419 183.174 43.1471C182.883 43.5686 182.484 43.9547 181.977 44.3053C181.471 44.6559 180.822 44.9284 180.032 45.1229C180.661 45.2583 181.272 45.4607 181.852 45.7262C182.389 45.9689 182.881 46.2905 183.309 46.6788C183.717 47.0538 184.042 47.5002 184.266 47.9926C184.494 48.4919 184.609 49.0595 184.61 49.6954C184.61 50.7726 184.367 51.6902 183.882 52.4484C183.404 53.1997 182.745 53.8362 181.957 54.3071C181.159 54.7868 180.25 55.1402 179.231 55.3673C178.205 55.5951 177.154 55.7094 176.099 55.7078H166.78L166.776 35.5264ZM172.894 43.7587H175.62C176.41 43.7587 177.055 43.535 177.555 43.0876C178.055 42.6401 178.304 42.0658 178.304 41.3646C178.303 41.1137 178.261 40.8644 178.179 40.6255C178.093 40.375 177.943 40.1479 177.743 39.9639C177.534 39.7688 177.256 39.6101 176.91 39.4876C176.564 39.365 176.134 39.3034 175.62 39.3026H172.894V43.7587ZM172.894 47.3397V51.7367H176.057C176.861 51.7367 177.499 51.5328 177.971 51.125C178.443 50.7173 178.678 50.1627 178.679 49.4612C178.68 49.1862 178.649 48.912 178.585 48.6435C178.526 48.39 178.397 48.1552 178.211 47.9624C178.023 47.768 177.755 47.615 177.409 47.5036C177.063 47.3922 176.612 47.3372 176.057 47.3385L172.894 47.3397Z" fill="#758CDA"/>
<path d="M197.872 35.2129C199.507 35.2129 200.998 35.453 202.346 35.9333C203.693 36.4136 204.848 37.1015 205.811 37.9972C206.774 38.8927 207.524 39.9794 208.06 41.2575C208.596 42.5355 208.863 43.9724 208.861 45.568C208.861 47.1768 208.594 48.6267 208.06 49.9177C207.526 51.2088 206.776 52.3049 205.811 53.2062C204.846 54.1085 203.691 54.8027 202.346 55.2888C201.001 55.7749 199.51 56.018 197.872 56.0183C196.221 56.0183 194.719 55.7751 193.366 55.2888C192.014 54.8024 190.849 54.1077 189.871 53.2046C188.894 52.3031 188.138 51.207 187.603 49.9165C187.069 48.626 186.802 47.1765 186.802 45.568C186.802 43.9724 187.069 42.5355 187.603 41.2575C188.138 39.9794 188.894 38.8927 189.871 37.9972C190.849 37.1026 192.014 36.4146 193.367 35.9333C194.72 35.452 196.222 35.2118 197.872 35.2129ZM197.872 51.5419C199.356 51.5419 200.448 51.0524 201.148 50.0733C201.849 49.0943 202.199 47.6057 202.2 45.6077C202.2 43.6099 201.849 42.1243 201.148 41.1511C200.447 40.1779 199.355 39.6913 197.872 39.6913C196.346 39.6913 195.229 40.1779 194.522 41.1511C193.814 42.1243 193.46 43.6099 193.459 45.6077C193.459 47.6057 193.813 49.0948 194.522 50.0749C195.23 51.055 196.347 51.5446 197.872 51.5435V51.5419Z" fill="#758CDA"/>
<path d="M224.142 32.7219C222.949 32.787 221.926 32.9854 221.073 33.3173C220.22 33.6491 219.516 34.0997 218.961 34.6692C218.396 35.2553 217.967 35.9445 217.701 36.6934C217.416 37.4716 217.246 38.3344 217.192 39.2817C217.551 38.8408 217.962 38.4394 218.418 38.085C218.907 37.7055 219.446 37.3854 220.021 37.1324C220.643 36.8577 221.296 36.6459 221.966 36.5005C222.714 36.3399 223.478 36.2614 224.245 36.2667C225.673 36.2667 226.963 36.5034 228.115 36.9768C229.242 37.4334 230.246 38.117 231.058 38.9788C231.869 39.8415 232.493 40.8761 232.931 42.0827C233.368 43.2893 233.587 44.6326 233.587 46.1126C233.587 47.6441 233.32 49.0201 232.786 50.2405C232.252 51.4608 231.503 52.4988 230.537 53.3542C229.573 54.2108 228.418 54.8693 227.072 55.3297C225.727 55.7901 224.235 56.0198 222.596 56.0187C220.945 56.0187 219.44 55.7722 218.08 55.2793C216.72 54.7863 215.552 54.0015 214.575 52.9248C213.597 51.8481 212.841 50.4599 212.307 48.7604C211.773 47.0608 211.506 44.9968 211.506 42.5685C211.506 40.571 211.704 38.6923 212.1 36.9324C212.496 35.1724 213.164 33.6216 214.105 32.2797C215.041 30.9371 216.283 29.8505 217.83 29.0199C219.377 28.1893 221.301 27.7027 223.604 27.56L231.24 27.0742L231.594 30.1098C231.663 30.7449 231.559 31.2865 231.281 31.7348C231.004 32.183 230.511 32.42 229.803 32.4456L224.142 32.7219ZM222.602 51.7551C224.086 51.7551 225.179 51.2913 225.879 50.3639C226.58 49.4364 226.93 48.0255 226.93 46.1312C226.93 44.2374 226.58 42.8297 225.879 41.9081C225.178 40.9864 224.086 40.526 222.602 40.5268C221.061 40.5268 219.938 40.9843 219.231 41.8993C218.525 42.8143 218.17 44.2121 218.168 46.0927C218.168 48.0003 218.523 49.4211 219.231 50.3552C219.94 51.2892 221.063 51.7559 222.602 51.7551Z" fill="#758CDA"/>
<path d="M246.844 35.2129C248.479 35.2129 249.97 35.453 251.318 35.9333C252.665 36.4136 253.82 37.1015 254.783 37.9972C255.746 38.8927 256.496 39.9794 257.032 41.2575C257.568 42.5355 257.834 43.9724 257.832 45.568C257.832 47.1768 257.565 48.6267 257.031 49.9177C256.497 51.2088 255.747 52.3049 254.782 53.2062C253.817 54.1085 252.662 54.8027 251.317 55.2888C249.972 55.7749 248.481 56.018 246.843 56.0183C245.192 56.0183 243.69 55.7751 242.338 55.2888C240.985 54.8024 239.82 54.1082 238.842 53.2062C237.864 52.3046 237.108 51.2085 236.574 49.9177C236.039 48.627 235.773 47.177 235.773 45.568C235.773 43.9718 236.041 42.535 236.575 41.2575C237.109 39.98 237.865 38.8932 238.843 37.9972C239.821 37.1026 240.986 36.4146 242.339 35.9333C243.691 35.452 245.193 35.2118 246.844 35.2129ZM246.844 51.5419C248.328 51.5419 249.42 51.0524 250.121 50.0733C250.822 49.0943 251.172 47.6057 251.172 45.6077C251.172 43.6099 250.822 42.1243 250.121 41.1511C249.42 40.1779 248.328 39.6913 246.844 39.6913C245.318 39.6913 244.201 40.1779 243.492 41.1511C242.783 42.1243 242.43 43.6099 242.434 45.6077C242.434 47.6057 242.788 49.0948 243.495 50.0749C244.203 51.055 245.319 51.5446 246.844 51.5435V51.5419Z" fill="#758CDA"/>
<path d="M280.863 35.5256V51.3871H284.838V60.6105C284.838 61.1289 284.668 61.5439 284.329 61.8556C283.989 62.1674 283.555 62.3231 283.026 62.3228H278.968V55.7059H264.59V60.6899C264.59 60.8951 264.555 61.0989 264.486 61.2936C264.417 61.4871 264.307 61.6658 264.163 61.8191C264.011 61.9791 263.822 62.1053 263.612 62.1887C263.361 62.2851 263.092 62.3314 262.821 62.3248H258.723V51.5609H259.452C259.903 51.5493 260.35 51.484 260.783 51.3664C261.213 51.2497 261.626 51.0065 262.021 50.6369C262.416 50.2672 262.787 49.7288 263.134 49.0215C263.481 48.3142 263.797 47.3703 264.082 46.1899C264.366 45.0095 264.619 43.5497 264.841 41.8107C265.063 40.0722 265.243 37.9768 265.382 35.5244L280.863 35.5256ZM270.647 39.9837C270.397 42.8516 270.029 45.2221 269.544 47.0952C269.058 48.9684 268.489 50.457 267.837 51.5609H274.623V39.9829L270.647 39.9837Z" fill="#758CDA"/>
<path d="M302.072 55.7068C301.462 55.7068 301 55.629 300.688 55.4734C300.376 55.3178 300.116 54.993 299.908 54.499L299.45 53.39C298.909 53.8187 298.389 54.1951 297.89 54.5192C297.401 54.8382 296.882 55.115 296.339 55.3464C295.794 55.5767 295.221 55.7464 294.633 55.852C293.971 55.9672 293.298 56.0227 292.625 56.0176C291.64 56.0176 290.745 55.8977 289.941 55.658C289.136 55.4182 288.453 55.0646 287.891 54.597C287.32 54.1179 286.875 53.522 286.591 52.8558C286.286 52.1614 286.133 51.3599 286.133 50.4513C286.133 49.7368 286.328 49.004 286.716 48.2527C287.104 47.5015 287.777 46.8171 288.734 46.1995C289.69 45.5832 290.98 45.0673 292.604 44.6516C294.227 44.2359 296.274 44.0022 298.743 43.9506V43.0945C298.743 41.914 298.483 41.0609 297.963 40.5352C297.442 40.0094 296.704 39.7468 295.746 39.7473C294.982 39.7473 294.358 39.8251 293.873 39.9807C293.425 40.1217 292.99 40.2975 292.573 40.5062C292.192 40.7015 291.821 40.8766 291.46 41.0317C291.099 41.1868 290.669 41.2646 290.17 41.2651C289.726 41.2651 289.351 41.1614 289.046 40.9539C288.748 40.754 288.494 40.503 288.297 40.2141L287.131 38.3263C288.398 37.2707 289.871 36.4547 291.47 35.9234C293.058 35.3979 294.761 35.135 296.58 35.1348C297.884 35.1348 299.059 35.3332 300.107 35.7301C301.154 36.127 302.042 36.6784 302.77 37.3841C303.499 38.0914 304.057 38.9314 304.447 39.9041C304.836 40.8768 305.03 41.9408 305.03 43.096V55.7072L302.072 55.7068ZM294.665 52.0286C295.496 52.0286 296.224 51.8923 296.849 51.6198C297.473 51.3472 298.105 50.9061 298.743 50.2965V47.4939C297.453 47.5449 296.392 47.6486 295.56 47.805C294.729 47.9614 294.07 48.1563 293.584 48.3897C293.099 48.6231 292.762 48.8889 292.575 49.1871C292.389 49.4817 292.291 49.8181 292.294 50.1603C292.294 50.8483 292.495 51.3316 292.897 51.6102C293.299 51.8889 293.888 52.0278 294.666 52.027L294.665 52.0286Z" fill="#758CDA"/>
</g>
<defs>
<clipPath id="clip0_204_420">
<rect width="305" height="90" fill="white"/>
</clipPath>
</defs>
</svg>
