<svg width="320" height="90" viewBox="0 0 320 90" fill="none" xmlns="http://www.w3.org/2000/svg">
<path d="M15.0336 46.229V55.7073H8V27.3506H18.6943C20.8301 27.3506 22.6645 27.5873 24.1976 28.0607C25.7308 28.534 26.9932 29.1862 27.9848 30.0171C28.9558 30.8191 29.7085 31.8259 30.1805 32.9542C30.6516 34.0833 30.8874 35.3029 30.888 36.613C30.888 38.0275 30.6454 39.3251 30.1601 40.5055C29.6871 41.6689 28.9237 42.7098 27.9334 43.5415C26.9339 44.385 25.668 45.0434 24.1357 45.5165C22.6034 45.9896 20.7896 46.2263 18.6943 46.2266L15.0336 46.229ZM15.0336 41.2676H18.696C20.5262 41.2676 21.8439 40.8589 22.6491 40.0415C23.4543 39.2241 23.8567 38.0822 23.8564 36.6157C23.8564 35.9666 23.7523 35.3764 23.5441 34.8451C23.3447 34.326 23.0208 33.8565 22.5973 33.4726C22.1729 33.0902 21.6389 32.795 20.9953 32.5871C20.3517 32.3791 19.5852 32.2752 18.696 32.2755H15.0336V41.2676Z" fill="white"/>
<path d="M42.8125 35.2129C44.4475 35.2129 45.9386 35.453 47.2859 35.9333C48.6331 36.4136 49.788 37.1015 50.7505 37.9972C51.7147 38.8927 52.4644 39.9794 52.9997 41.2575C53.535 42.5355 53.802 43.9724 53.8009 45.568C53.8009 47.1768 53.5338 48.6267 52.9997 49.9177C52.4655 51.2088 51.7158 52.3049 50.7505 53.2062C49.7857 54.1085 48.6309 54.8027 47.2859 55.2888C45.9409 55.7749 44.4497 56.0183 42.8125 56.0191C41.1608 56.0191 39.6589 55.7759 38.3069 55.2896C36.9548 54.8032 35.7896 54.109 34.8113 53.207C33.833 52.3054 33.0767 51.2093 32.5426 49.9185C32.0084 48.6278 31.7416 47.1776 31.7422 45.568C31.7422 43.9718 32.0091 42.535 32.543 41.2575C33.0769 39.98 33.8331 38.8932 34.8117 37.9972C35.7895 37.1026 36.9547 36.4146 38.3073 35.9333C39.6599 35.452 41.1617 35.2118 42.8125 35.2129ZM42.8125 51.5419C44.2956 51.5419 45.3878 51.0524 46.0891 50.0733C46.7905 49.0943 47.1411 47.6057 47.1411 45.6077C47.1411 43.6099 46.7908 42.1243 46.09 41.1511C45.3892 40.1779 44.2967 39.6906 42.8125 39.6893C41.2847 39.6893 40.1672 40.1759 39.4599 41.1491C38.7526 42.1224 38.399 43.6085 38.399 45.6077C38.399 47.6057 38.7526 49.0948 39.4599 50.0749C40.1672 51.055 41.2847 51.5446 42.8125 51.5435V51.5419Z" fill="white"/>
<path d="M72.8929 40.3124C72.727 40.5068 72.5384 40.6832 72.3306 40.8383C72.1506 40.9681 71.8934 41.0328 71.5616 41.0328C71.2581 41.0368 70.9592 40.9628 70.6976 40.8189C70.4407 40.676 70.1527 40.5172 69.8335 40.3426C69.4758 40.1514 69.0997 39.9919 68.7102 39.8663C68.2802 39.7242 67.7461 39.653 67.1082 39.6527C66.3174 39.6527 65.6342 39.7889 65.0584 40.0612C64.4854 40.3314 63.9951 40.7332 63.6334 41.2289C63.2591 41.7353 62.9815 42.3549 62.8007 43.0876C62.6199 43.8203 62.53 44.6474 62.5308 45.5687C62.5308 47.5022 62.9296 48.9879 63.7272 50.0257C64.5247 51.0635 65.624 51.5824 67.025 51.5824C67.7742 51.5824 68.3673 51.4948 68.8044 51.3196C69.1988 51.1667 69.5724 50.9708 69.9176 50.7357C70.2231 50.5217 70.5039 50.3232 70.7599 50.1404C71.016 49.9575 71.3385 49.8668 71.7275 49.8681C72.241 49.8681 72.6295 50.0434 72.8929 50.394L74.7656 52.5544C74.1002 53.2688 73.3997 53.8493 72.6641 54.2957C71.9594 54.7293 71.2015 55.0823 70.4069 55.3471C69.6545 55.5961 68.8768 55.7721 68.0859 55.8722C67.3345 55.9675 66.5772 56.0162 65.8189 56.0179C64.5226 56.0219 63.2386 55.7839 62.042 55.3177C60.8471 54.8542 59.7695 54.1615 58.8786 53.2843C57.9705 52.3952 57.249 51.3021 56.7143 50.005C56.1796 48.7079 55.9125 47.229 55.9131 45.5683C55.9131 44.1151 56.1448 42.7559 56.6082 41.4908C57.0716 40.2257 57.7583 39.1297 58.6681 38.2028C59.5763 37.2767 60.7001 36.5468 62.0394 36.013C63.3787 35.4793 64.929 35.2133 66.6902 35.2149C68.3823 35.2149 69.8666 35.4679 71.1432 35.9741C72.4197 36.4803 73.5712 37.2197 74.5976 38.1921L72.8929 40.3124Z" fill="white"/>
<path d="M89.9817 37.043C90.3058 36.5841 90.7451 36.2064 91.2612 35.9428C91.7718 35.6699 92.3494 35.5257 92.9375 35.5244H98.0351L93.4972 42.8614C93.1509 43.4064 92.7973 43.8476 92.4363 44.1847C92.0639 44.5291 91.6167 44.7947 91.125 44.9634C91.8322 45.1846 92.4078 45.4961 92.8517 45.8977C93.2956 46.2994 93.6909 46.8055 94.0374 47.4159L98.5533 55.7063H94.1015C93.6021 55.7124 93.1033 55.6701 92.6132 55.58C92.2178 55.5052 91.8359 55.3775 91.4793 55.201C91.1541 55.0384 90.8591 54.8278 90.6055 54.5774C90.3436 54.3166 90.1133 54.0295 89.9189 53.7213L87.6272 48.6408C87.419 48.1867 87.117 47.8528 86.7212 47.639C86.3254 47.4252 85.8713 47.3182 85.3589 47.3179H83.7357V55.7055H77.2852V35.526H83.7357V43.5246H85.0687C85.6512 43.5246 86.0846 43.4371 86.369 43.2622C86.6533 43.0873 86.9065 42.792 87.1286 42.3763L89.9817 37.043Z" fill="white"/>
<path d="M110.061 35.2129C111.696 35.2129 113.187 35.453 114.535 35.9333C115.882 36.4136 117.037 37.1015 117.999 37.9972C118.963 38.8927 119.713 39.9794 120.249 41.2575C120.784 42.5355 121.051 43.9724 121.049 45.568C121.049 47.1768 120.783 48.6267 120.249 49.9177C119.715 51.2088 118.965 52.3049 117.999 53.2062C117.034 54.1085 115.88 54.8027 114.535 55.2888C113.19 55.7749 111.699 56.018 110.061 56.0183C108.409 56.0183 106.908 55.7751 105.555 55.2888C104.203 54.8024 103.038 54.1082 102.059 53.2062C101.082 52.3046 100.326 51.2085 99.7915 49.9177C99.2573 48.627 98.9902 47.177 98.9902 45.568C98.9902 43.9718 99.2573 42.535 99.7915 41.2575C100.326 39.98 101.082 38.8932 102.059 37.9972C103.037 37.1026 104.202 36.4146 105.555 35.9333C106.908 35.452 108.41 35.2118 110.061 35.2129ZM110.061 51.5419C111.545 51.5419 112.637 51.0524 113.338 50.0733C114.038 49.0943 114.389 47.6057 114.389 45.6077C114.389 43.6099 114.038 42.1243 113.338 41.1511C112.637 40.1779 111.544 39.6913 110.061 39.6913C108.535 39.6913 107.417 40.1779 106.708 41.1511C105.999 42.1243 105.645 43.6099 105.645 45.6077C105.645 47.6057 106 49.0948 106.708 50.0749C107.417 51.055 108.535 51.5446 110.061 51.5435L110.061 51.5419Z" fill="white"/>
<path d="M137.218 46.7927C137.426 46.2481 137.648 45.7128 137.884 45.1868C138.108 44.683 138.366 44.1925 138.655 43.7182L142.316 36.8119C142.622 36.2801 142.993 35.9297 143.43 35.7609C143.848 35.5957 144.297 35.5097 144.752 35.5077H150.161V55.7105H144.335V46.1505C144.335 45.6575 144.359 45.1029 144.408 44.4866C144.453 43.8958 144.533 43.3077 144.647 42.7251L139.382 52.2812C138.994 52.9427 138.391 53.2735 137.572 53.2735H136.886C136.068 53.2735 135.465 52.9427 135.075 52.2812L129.771 42.6668C129.882 43.2378 129.969 43.8378 130.031 44.4668C130.093 45.0958 130.124 45.6566 130.125 46.1493V55.705H124.298V35.5049H129.708C130.163 35.5072 130.613 35.5966 131.03 35.7676C131.466 35.9436 131.837 36.2908 132.143 36.8091L135.784 43.7174C136.333 44.7125 136.812 45.7398 137.218 46.7927Z" fill="white"/>
<path d="M170.385 40.3116C170.219 40.5059 170.03 40.6822 169.823 40.8376C169.643 40.9672 169.386 41.032 169.053 41.032C168.75 41.0362 168.451 40.9622 168.189 40.8181C167.933 40.6752 167.645 40.5164 167.326 40.3418C166.968 40.1506 166.592 39.9912 166.202 39.8655C165.772 39.7234 165.238 39.6522 164.6 39.652C163.81 39.652 163.127 39.7881 162.55 40.0604C161.977 40.3307 161.487 40.7325 161.125 41.2281C160.751 41.7346 160.474 42.3542 160.293 43.0869C160.113 43.8196 160.023 44.6465 160.024 45.5676C160.024 47.5011 160.422 48.9867 161.22 50.0245C162.017 51.0623 163.117 51.5812 164.518 51.5812C165.267 51.5812 165.86 51.4936 166.297 51.3184C166.691 51.1658 167.065 50.9698 167.41 50.7346C167.715 50.5205 167.996 50.3221 168.253 50.1392C168.509 49.9564 168.832 49.8656 169.221 49.8669C169.733 49.8669 170.122 50.0422 170.386 50.3928L172.259 52.5532C171.593 53.2677 170.892 53.8481 170.157 54.2945C169.452 54.7283 168.694 55.0813 167.9 55.3459C167.147 55.5949 166.37 55.7708 165.579 55.871C164.827 55.9664 164.07 56.015 163.311 56.0167C162.015 56.0208 160.731 55.7827 159.534 55.3165C158.339 54.8532 157.262 54.1605 156.371 53.2832C155.463 52.3941 154.742 51.301 154.207 50.0039C153.672 48.7068 153.404 47.228 153.403 45.5676C153.403 44.1143 153.636 42.7552 154.101 41.4901C154.565 40.225 155.252 39.1286 156.162 38.2009C157.07 37.2747 158.194 36.5448 159.533 36.0111C160.872 35.4774 162.422 35.2113 164.182 35.2129C165.875 35.2129 167.359 35.466 168.635 35.9722C169.912 36.4784 171.063 37.2177 172.09 38.1901L170.385 40.3116Z" fill="#758CDA"/>
<path d="M174.776 35.5264H183.807C185.194 35.5264 186.401 35.6497 187.427 35.8963C188.453 36.1429 189.303 36.4869 189.977 36.9283C190.649 37.3688 191.148 37.8913 191.475 38.4957C191.803 39.1083 191.972 39.7853 191.965 40.4707C191.963 40.9265 191.904 41.3805 191.788 41.8234C191.666 42.2942 191.458 42.7419 191.174 43.1471C190.883 43.5686 190.484 43.9547 189.977 44.3053C189.471 44.6559 188.822 44.9284 188.032 45.1229C188.661 45.2583 189.272 45.4607 189.852 45.7262C190.389 45.9689 190.881 46.2905 191.309 46.6788C191.717 47.0538 192.042 47.5002 192.266 47.9926C192.494 48.4919 192.609 49.0595 192.61 49.6954C192.61 50.7726 192.367 51.6902 191.882 52.4484C191.404 53.1997 190.745 53.8362 189.957 54.3071C189.159 54.7868 188.25 55.1402 187.231 55.3673C186.205 55.5951 185.154 55.7094 184.099 55.7078H174.78L174.776 35.5264ZM180.894 43.7587H183.62C184.41 43.7587 185.055 43.535 185.555 43.0876C186.055 42.6401 186.304 42.0658 186.304 41.3646C186.303 41.1137 186.261 40.8644 186.179 40.6255C186.093 40.375 185.943 40.1479 185.743 39.9639C185.534 39.7688 185.256 39.6101 184.91 39.4876C184.564 39.365 184.134 39.3034 183.62 39.3026H180.894V43.7587ZM180.894 47.3397V51.7367H184.057C184.861 51.7367 185.499 51.5328 185.971 51.125C186.443 50.7173 186.678 50.1627 186.679 49.4612C186.68 49.1862 186.649 48.912 186.585 48.6435C186.526 48.39 186.397 48.1552 186.211 47.9624C186.023 47.768 185.755 47.615 185.409 47.5036C185.063 47.3922 184.612 47.3372 184.057 47.3385L180.894 47.3397Z" fill="#758CDA"/>
<path d="M205.872 35.2129C207.507 35.2129 208.998 35.453 210.346 35.9333C211.693 36.4136 212.848 37.1015 213.811 37.9972C214.774 38.8927 215.524 39.9794 216.06 41.2575C216.596 42.5355 216.863 43.9724 216.861 45.568C216.861 47.1768 216.594 48.6267 216.06 49.9177C215.526 51.2088 214.776 52.3049 213.811 53.2062C212.846 54.1085 211.691 54.8027 210.346 55.2888C209.001 55.7749 207.51 56.018 205.872 56.0183C204.221 56.0183 202.719 55.7751 201.366 55.2888C200.014 54.8024 198.849 54.1077 197.871 53.2046C196.894 52.3031 196.138 51.207 195.603 49.9165C195.069 48.626 194.802 47.1765 194.802 45.568C194.802 43.9724 195.069 42.5355 195.603 41.2575C196.138 39.9794 196.894 38.8927 197.871 37.9972C198.849 37.1026 200.014 36.4146 201.367 35.9333C202.72 35.452 204.222 35.2118 205.872 35.2129ZM205.872 51.5419C207.356 51.5419 208.448 51.0524 209.148 50.0733C209.849 49.0943 210.199 47.6057 210.2 45.6077C210.2 43.6099 209.849 42.1243 209.148 41.1511C208.447 40.1779 207.355 39.6913 205.872 39.6913C204.346 39.6913 203.229 40.1779 202.522 41.1511C201.814 42.1243 201.46 43.6099 201.459 45.6077C201.459 47.6057 201.813 49.0948 202.522 50.0749C203.23 51.055 204.347 51.5446 205.872 51.5435V51.5419Z" fill="#758CDA"/>
<path d="M232.142 32.7219C230.949 32.787 229.926 32.9854 229.073 33.3173C228.22 33.6491 227.516 34.0997 226.961 34.6692C226.396 35.2553 225.967 35.9445 225.701 36.6934C225.416 37.4716 225.246 38.3344 225.192 39.2817C225.551 38.8408 225.962 38.4394 226.418 38.085C226.907 37.7055 227.446 37.3854 228.021 37.1324C228.643 36.8577 229.296 36.6459 229.966 36.5005C230.714 36.3399 231.478 36.2614 232.245 36.2667C233.673 36.2667 234.963 36.5034 236.115 36.9768C237.242 37.4334 238.246 38.117 239.058 38.9788C239.869 39.8415 240.493 40.8761 240.931 42.0827C241.368 43.2893 241.587 44.6326 241.587 46.1126C241.587 47.6441 241.32 49.0201 240.786 50.2405C240.252 51.4608 239.503 52.4988 238.537 53.3542C237.573 54.2108 236.418 54.8693 235.072 55.3297C233.727 55.7901 232.235 56.0198 230.596 56.0187C228.945 56.0187 227.44 55.7722 226.08 55.2793C224.72 54.7863 223.552 54.0015 222.575 52.9248C221.597 51.8481 220.841 50.4599 220.307 48.7604C219.773 47.0608 219.506 44.9968 219.506 42.5685C219.506 40.571 219.704 38.6923 220.1 36.9324C220.496 35.1724 221.164 33.6216 222.105 32.2797C223.041 30.9371 224.283 29.8505 225.83 29.0199C227.377 28.1893 229.301 27.7027 231.604 27.56L239.24 27.0742L239.594 30.1098C239.663 30.7449 239.559 31.2865 239.281 31.7348C239.004 32.183 238.511 32.42 237.803 32.4456L232.142 32.7219ZM230.602 51.7551C232.086 51.7551 233.179 51.2913 233.879 50.3639C234.58 49.4364 234.93 48.0255 234.93 46.1312C234.93 44.2374 234.58 42.8297 233.879 41.9081C233.178 40.9864 232.086 40.526 230.602 40.5268C229.061 40.5268 227.938 40.9843 227.231 41.8993C226.525 42.8143 226.17 44.2121 226.168 46.0927C226.168 48.0003 226.523 49.4211 227.231 50.3552C227.94 51.2892 229.063 51.7559 230.602 51.7551Z" fill="#758CDA"/>
<path d="M254.844 35.2129C256.479 35.2129 257.97 35.453 259.318 35.9333C260.665 36.4136 261.82 37.1015 262.783 37.9972C263.746 38.8927 264.496 39.9794 265.032 41.2575C265.568 42.5355 265.834 43.9724 265.832 45.568C265.832 47.1768 265.565 48.6267 265.031 49.9177C264.497 51.2088 263.747 52.3049 262.782 53.2062C261.817 54.1085 260.662 54.8027 259.317 55.2888C257.972 55.7749 256.481 56.018 254.843 56.0183C253.192 56.0183 251.69 55.7751 250.338 55.2888C248.985 54.8024 247.82 54.1082 246.842 53.2062C245.864 52.3046 245.108 51.2085 244.574 49.9177C244.039 48.627 243.773 47.177 243.773 45.568C243.773 43.9718 244.041 42.535 244.575 41.2575C245.109 39.98 245.865 38.8932 246.843 37.9972C247.821 37.1026 248.986 36.4146 250.339 35.9333C251.691 35.452 253.193 35.2118 254.844 35.2129ZM254.844 51.5419C256.328 51.5419 257.42 51.0524 258.121 50.0733C258.822 49.0943 259.172 47.6057 259.172 45.6077C259.172 43.6099 258.822 42.1243 258.121 41.1511C257.42 40.1779 256.328 39.6913 254.844 39.6913C253.318 39.6913 252.201 40.1779 251.492 41.1511C250.783 42.1243 250.43 43.6099 250.434 45.6077C250.434 47.6057 250.788 49.0948 251.495 50.0749C252.203 51.055 253.319 51.5446 254.844 51.5435V51.5419Z" fill="#758CDA"/>
<path d="M288.863 35.5256V51.3871H292.838V60.6105C292.838 61.1289 292.668 61.5439 292.329 61.8556C291.989 62.1674 291.555 62.3231 291.026 62.3228H286.968V55.7059H272.59V60.6899C272.59 60.8951 272.555 61.0989 272.486 61.2936C272.417 61.4871 272.307 61.6658 272.163 61.8191C272.011 61.9791 271.822 62.1053 271.612 62.1887C271.361 62.2851 271.092 62.3314 270.821 62.3248H266.723V51.5609H267.452C267.903 51.5493 268.35 51.484 268.783 51.3664C269.213 51.2497 269.626 51.0065 270.021 50.6369C270.416 50.2672 270.787 49.7288 271.134 49.0215C271.481 48.3142 271.797 47.3703 272.082 46.1899C272.366 45.0095 272.619 43.5497 272.841 41.8107C273.063 40.0722 273.243 37.9768 273.382 35.5244L288.863 35.5256ZM278.647 39.9837C278.397 42.8516 278.029 45.2221 277.544 47.0952C277.058 48.9684 276.489 50.457 275.837 51.5609H282.623V39.9829L278.647 39.9837Z" fill="#758CDA"/>
<path d="M310.072 55.7068C309.462 55.7068 309 55.629 308.688 55.4734C308.376 55.3178 308.116 54.993 307.908 54.499L307.45 53.39C306.909 53.8187 306.389 54.1951 305.89 54.5192C305.401 54.8382 304.882 55.115 304.339 55.3464C303.794 55.5767 303.221 55.7464 302.633 55.852C301.971 55.9672 301.298 56.0227 300.625 56.0176C299.64 56.0176 298.745 55.8977 297.941 55.658C297.136 55.4182 296.453 55.0646 295.891 54.597C295.32 54.1179 294.875 53.522 294.591 52.8558C294.286 52.1614 294.133 51.3599 294.133 50.4513C294.133 49.7368 294.328 49.004 294.716 48.2527C295.104 47.5015 295.777 46.8171 296.734 46.1995C297.69 45.5832 298.98 45.0673 300.604 44.6516C302.227 44.2359 304.274 44.0022 306.743 43.9506V43.0945C306.743 41.914 306.483 41.0609 305.963 40.5352C305.442 40.0094 304.704 39.7468 303.746 39.7473C302.982 39.7473 302.358 39.8251 301.873 39.9807C301.425 40.1217 300.99 40.2975 300.573 40.5062C300.192 40.7015 299.821 40.8766 299.46 41.0317C299.099 41.1868 298.669 41.2646 298.17 41.2651C297.726 41.2651 297.351 41.1614 297.046 40.9539C296.748 40.754 296.494 40.503 296.297 40.2141L295.131 38.3263C296.398 37.2707 297.871 36.4547 299.47 35.9234C301.058 35.3979 302.761 35.135 304.58 35.1348C305.884 35.1348 307.059 35.3332 308.107 35.7301C309.154 36.127 310.042 36.6784 310.77 37.3841C311.499 38.0914 312.057 38.9314 312.447 39.9041C312.836 40.8768 313.03 41.9408 313.03 43.096V55.7072L310.072 55.7068ZM302.665 52.0286C303.496 52.0286 304.224 51.8923 304.849 51.6198C305.473 51.3472 306.105 50.9061 306.743 50.2965V47.4939C305.453 47.5449 304.392 47.6486 303.56 47.805C302.729 47.9614 302.07 48.1563 301.584 48.3897C301.099 48.6231 300.762 48.8889 300.575 49.1871C300.389 49.4817 300.291 49.8181 300.294 50.1603C300.294 50.8483 300.495 51.3316 300.897 51.6102C301.299 51.8889 301.888 52.0278 302.666 52.027L302.665 52.0286Z" fill="#758CDA"/>
</svg>
