<svg width="220" height="65" viewBox="0 0 220 65" fill="none" xmlns="http://www.w3.org/2000/svg">
<g clip-path="url(#clip0_1206_782)">
<path d="M133.763 31.11H151.808V25.51H139.607V20.946H150.515V15.304H139.607V10.978H158.417V31.11H164.261V10.978H172.97V5.37801H133.763V31.11ZM71.085 31.11H89.1024V25.51H76.9424V20.946H87.8502V15.304H76.9424V10.978H89.1024V5.37801H71.085V31.11ZM90.1041 31.11H95.9476V17.53L105.102 31.11H112.699L103.057 17.208L112.699 5.36401H105.061L95.9476 17.474V5.36401H90.1041V31.11ZM158.334 35.17H164.247V60.944H158.334V35.17Z" fill="white"/>
<path fill-rule="evenodd" clip-rule="evenodd" d="M65.0608 35.1419V31.0399C67.1608 30.5865 69.0959 29.5596 70.6538 28.0719L67.426 23.4519C65.73 24.9966 63.5075 25.8239 61.2208 25.7619C56.1286 25.7619 53.0399 22.4859 53.0399 17.8379C53.0399 13.7499 56.1286 10.6139 60.6921 10.6139C63.0573 10.6139 65.3391 11.5099 67.106 13.1059L70.626 8.76592C67.7786 6.28526 64.1241 4.94486 60.3582 4.99992C51.8712 4.99992 46.793 11.2299 46.793 18.2999C46.793 25.9999 52.1495 31.2219 59.1756 31.6139V35.1419C52.0382 35.1699 46.793 39.8739 46.793 46.8319C46.793 53.8739 51.9686 58.5499 59.1756 58.5499V61.1539H65.0608V58.5499C72.4904 58.5499 77.513 53.8179 77.513 46.8599C77.513 39.6079 72.3095 35.1699 65.0608 35.1419ZM59.1756 53.0199C54.6538 53.0479 53.0399 49.7159 53.0399 46.8179C53.0399 44.1019 54.4034 40.5459 59.1756 40.5459V53.0059V53.0199ZM65.0608 40.5599V53.0199C69.513 53.0479 71.2382 49.8279 71.2382 46.8179C71.2382 44.1019 69.833 40.5459 65.0608 40.5459V40.5599ZM144.476 43.2059C145.381 43.0939 146.285 43.0379 147.203 43.0659C154.174 43.0659 157.513 46.4959 157.527 51.7879C157.527 57.6259 153.743 61.0699 145.52 61.0699C144.49 61.0699 143.377 61.0419 142.306 61.0139C141.407 60.9839 140.507 60.9652 139.607 60.9579H138.633V45.0399L131.343 54.3219H130.48L123.203 45.0119V60.9439H117.332V35.1839H123.245L131.356 45.6559L138.911 35.1699H144.476V43.2059ZM144.476 55.3019C145.2 55.3859 145.937 55.4279 146.661 55.4139H146.675C149.624 55.4139 151.266 54.3079 151.266 51.9139C151.266 49.7159 149.457 48.6519 146.73 48.6519C145.979 48.6379 145.228 48.6799 144.476 48.7639V55.3019ZM102.125 35.1419L105.283 35.0999C113.743 35.0999 116.511 39.2859 116.511 44.2279C116.511 49.6879 112.713 53.5099 105.423 53.5099C104.56 53.5099 103.892 53.5099 102.779 53.4259V60.9439H96.9217V44.7599L83.5373 60.9579H78.3895V35.1979H84.2608V51.3959L97.6034 35.1839H98.6469C99.593 35.1839 100.873 35.1839 102.125 35.1559V35.1419ZM102.765 47.6719C103.711 47.8119 104.657 47.8819 105.603 47.8539C108.442 47.8539 110.264 46.6919 110.264 44.2279C110.264 41.9179 108.873 40.7419 105.256 40.7419C104.81 40.7419 104.449 40.7699 104.073 40.7839C103.669 40.7979 103.266 40.8259 102.765 40.8259V47.6859V47.6719ZM121.854 23.6619C120.977 23.6619 120.101 23.6199 119.238 23.5219V31.1239H113.395V5.36392C114.925 5.33592 118.765 5.27992 121.715 5.27992C130.202 5.27992 132.984 8.83592 132.984 14.3939C132.984 19.8259 129.172 23.6759 121.854 23.6759V23.6619ZM119.489 10.9639L119.238 10.9779V17.7959C120.115 17.9639 121.005 18.0339 121.896 18.0199C124.901 18.0199 126.696 16.8439 126.696 14.3799C126.696 11.9299 125.054 10.8799 121.464 10.8799C120.671 10.8799 119.976 10.9219 119.475 10.9639H119.489Z" fill="white"/>
</g>
<defs>
<clipPath id="clip0_1206_782">
<rect width="128" height="56" fill="white" transform="translate(46 5)"/>
</clipPath>
</defs>
</svg>
