<svg width="220" height="65" viewBox="0 0 220 65" fill="none" xmlns="http://www.w3.org/2000/svg">
<g clip-path="url(#clip0_1206_775)">
<path d="M38.5141 43.7122H42.9115V37.7293H32.4813C30.846 37.7293 28.1338 37.8988 26.8275 36.1638C26.5682 35.7649 25.9999 34.7678 25.9999 32.0455C25.9468 30.9883 26.1166 29.9317 26.4984 28.9444C27.0668 27.4586 28.2933 26.1524 31.913 26.1524H42.3132V20.1695H27.0668C23.6366 20.1894 20.5853 20.7478 18.4614 22.6424C15.44 25.1054 15.2705 28.7948 15.2705 32.215C15.2705 35.8347 15.5996 38.6965 17.7335 40.8404C20.356 43.3732 24.0454 43.7022 26.5084 43.7022L38.5141 43.7122ZM65.866 31.9857C65.866 33.7108 65.6964 35.1068 64.799 36.074C64.3004 36.6623 63.0739 37.7293 60.1922 37.7293C57.0212 37.7293 55.7249 36.3333 55.5554 36.074C55.1266 35.6054 54.4885 34.5185 54.4885 31.9857C54.5583 29.1937 55.1266 28.2065 55.5554 27.7977C56.1238 27.2293 57.3503 26.2621 60.1922 26.2421C63.0739 26.2421 64.3802 27.2393 64.8688 27.7977C65.3574 28.3561 65.866 29.5227 65.866 31.9857ZM76.6651 31.9857C76.6651 29.6923 76.4258 25.0056 72.9058 22.3831C69.7848 20.0897 64.6993 20.0199 60.1423 20.0199C55.6252 19.9301 50.5697 20.0897 47.4685 22.3133C43.9486 24.9358 43.6893 29.5925 43.6893 31.9857C43.6893 34.3789 43.9486 38.9658 47.4685 41.5883C50.5697 43.8817 55.6252 43.9515 60.1423 43.9515C64.6594 44.0413 69.6651 43.8817 72.7662 41.6581C76.3859 39.0356 76.6152 34.3789 76.6152 31.9857M98.3631 35.7649C98.4067 35.956 98.3992 36.1552 98.3415 36.3425C98.2837 36.5297 98.1777 36.6985 98.034 36.8319C97.5862 37.0847 97.0824 37.2218 96.5682 37.2307H91.054C90.5153 37.2634 89.9778 37.1497 89.4984 36.9017C89.335 36.7635 89.2071 36.5882 89.1256 36.3904C89.044 36.1926 89.0112 35.9781 89.0298 35.7649V34.2791H96.4785C97.0215 34.2852 97.5551 34.422 98.034 34.678C98.1917 34.808 98.3138 34.976 98.3888 35.1661C98.4638 35.3562 98.4892 35.5623 98.4628 35.7649M109.033 35.6652C109.033 33.6111 108.773 31.1481 106.57 29.7521C105.01 28.9222 103.246 28.5522 101.484 28.6851H88.9799V28.366C88.9661 28.085 89.0093 27.804 89.107 27.5401C89.2046 27.2762 89.3548 27.0348 89.5483 26.8304C89.9802 26.4493 90.4876 26.1635 91.0374 25.9917C91.5872 25.8199 92.1671 25.7659 92.7392 25.8333H93.7363L107.008 25.9031L107.078 20.0199H88.1323C84.6822 20.0199 82.3887 21.017 81.0825 22.0142C78.8189 23.9487 78.4899 26.7307 78.4899 28.6253L78.3902 38.4971C78.3349 39.1906 78.4311 39.8878 78.6721 40.5404C78.9132 41.193 79.2933 41.7853 79.7862 42.2763C81.2169 43.2189 82.9267 43.6446 84.6323 43.4829H93.7363L101.444 43.5527C103.239 43.5527 105.134 43.4829 106.689 42.3262C108.813 40.6908 108.983 37.5697 108.983 35.6851M130.122 36.084C130.14 36.3122 130.094 36.5409 129.991 36.7449C129.887 36.949 129.729 37.1205 129.534 37.2407C129.055 37.4887 128.517 37.6024 127.978 37.5697H122.494C122.002 37.5577 121.522 37.4204 121.098 37.1709C120.943 37.0401 120.824 36.871 120.754 36.6804C120.684 36.4898 120.665 36.2842 120.699 36.084C120.667 35.8868 120.687 35.6846 120.757 35.4975C120.827 35.3103 120.944 35.1447 121.098 35.017C121.559 34.7175 122.106 34.5774 122.654 34.6182H130.122V36.084ZM140.622 38.876L140.692 29.0441C140.692 27.0498 140.363 24.2877 138 22.4031C135.938 20.9566 133.456 20.2342 130.94 20.3489H112.084V26.1623H126.343C126.931 26.0984 127.525 26.1538 128.09 26.3251C128.656 26.4965 129.181 26.7803 129.634 27.1595C129.965 27.6097 130.14 28.156 130.132 28.715V29.0242H117.638C115.882 28.8637 114.118 29.2098 112.553 30.0213C110.359 31.4173 110.09 33.9501 110.09 35.9344C110.09 37.9188 110.179 40.9202 112.383 42.5555C113.869 43.7122 115.833 43.782 117.628 43.782H125.386L134.36 43.8817C135.996 43.8817 137.88 43.782 139.206 42.6552C139.713 42.174 140.102 41.583 140.344 40.9279C140.586 40.2727 140.674 39.5708 140.602 38.876M153.226 43.8618L153.306 20.3489H142.736V43.8717L153.226 43.8618ZM166.189 29.3433L174.705 20.3689H163.078L156.098 28.6452C154.941 29.9715 154.373 30.9387 154.373 31.7663C154.532 32.7719 155.024 33.6952 155.769 34.3888L164.045 43.8219H175.862L175.034 42.9942L165.84 33.7806C165.342 33.2122 164.614 32.4843 164.614 31.7863C164.614 31.0883 165.112 30.49 166.169 29.3233M194.09 36.1339C194.127 36.3513 194.1 36.575 194.011 36.7771C193.922 36.9792 193.776 37.1508 193.591 37.2706C193.113 37.5215 192.574 37.6354 192.035 37.5997H186.551C186.037 37.5907 185.533 37.4536 185.085 37.2008C184.941 37.0644 184.828 36.8984 184.754 36.7143C184.68 36.5301 184.647 36.3321 184.657 36.1339C184.653 35.9364 184.689 35.7402 184.763 35.5569C184.836 35.3736 184.946 35.207 185.085 35.0669C185.558 34.7922 186.094 34.6445 186.641 34.6381H194.09V36.1339ZM204.729 38.9558V29.1239C204.808 27.883 204.604 26.6404 204.133 25.49C203.661 24.3395 202.934 23.3113 202.007 22.4829C199.979 21.0304 197.519 20.3065 195.027 20.4287H176.081V26.2421L189.443 26.3319H190.44C191.507 26.3319 192.823 26.3319 193.631 27.2293C194.025 27.6493 194.237 28.2088 194.219 28.7848V29.1239H181.675C179.952 28.9732 178.222 29.3193 176.689 30.121C176.011 30.5593 175.444 31.15 175.034 31.8461C174.405 33.1732 174.12 34.6376 174.206 36.1039C174.126 37.7376 174.409 39.3689 175.034 40.8803C175.377 41.5901 175.887 42.206 176.52 42.6752C177.986 43.8119 179.95 43.9017 181.675 43.9017L189.453 43.9715H198.487C200.043 43.9715 201.937 43.9017 203.333 42.745C203.841 42.2691 204.231 41.6819 204.473 41.0295C204.716 40.3772 204.803 39.6776 204.729 38.9857M192.763 53.0156H194.508L193.202 51.7093V51.6495H193.412C193.59 51.6544 193.767 51.6045 193.916 51.5065C194.066 51.4085 194.182 51.267 194.249 51.1011C194.372 50.7524 194.426 50.3834 194.409 50.0142C194.413 49.6694 194.338 49.3283 194.189 49.017C194.064 48.8529 193.897 48.7255 193.706 48.6483C193.515 48.5711 193.306 48.5469 193.102 48.5783H190.769C190.55 48.5793 190.338 48.6569 190.171 48.7977C190.042 48.9917 189.986 49.2245 190.011 49.4558V53.0655H191.427V50.074C191.427 49.9643 191.427 49.8546 191.537 49.8048C191.647 49.7549 191.647 49.745 191.756 49.745H192.514C192.669 49.7227 192.827 49.7621 192.953 49.8546C193.035 49.963 193.074 50.098 193.063 50.2336C193.058 50.3514 193.02 50.4654 192.953 50.5626C192.911 50.6229 192.854 50.6707 192.787 50.7006C192.72 50.7305 192.647 50.7414 192.574 50.7321H192.215C191.916 50.7321 191.647 50.9715 191.647 51.2207V51.3304C191.647 51.5498 191.806 51.7093 191.966 51.9287L192.215 52.2478L192.763 53.0156ZM195.486 51.0213C195.463 51.9018 195.102 52.7397 194.478 53.3616C193.855 53.9835 193.016 54.3416 192.135 54.3618C191.698 54.3596 191.266 54.2703 190.863 54.0991C190.461 53.9279 190.097 53.6782 189.792 53.3646C189.158 52.7207 188.8 51.855 188.795 50.9515C188.809 50.0703 189.167 49.2295 189.792 48.6082C190.416 47.9866 191.255 47.6294 192.135 47.6111C193.027 47.6241 193.877 47.9868 194.504 48.6209C195.131 49.255 195.483 50.1099 195.486 51.0014M195.874 51.0014C195.869 50.0077 195.473 49.056 194.771 48.3524C194.069 47.6489 193.119 47.25 192.125 47.2421C191.638 47.2434 191.156 47.342 190.707 47.532C190.259 47.7221 189.853 47.9998 189.513 48.349C189.16 48.686 188.88 49.0916 188.689 49.5409C188.499 49.9901 188.403 50.4736 188.406 50.9615C188.403 51.4525 188.497 51.9393 188.683 52.394C188.868 52.8487 189.142 53.2624 189.487 53.6114C189.832 53.9605 190.243 54.2382 190.696 54.4285C191.148 54.6188 191.634 54.7181 192.125 54.7207C193.113 54.7156 194.059 54.323 194.76 53.6275C195.461 52.9319 195.861 51.9889 195.874 51.0014ZM200.571 52.8162C200.905 52.4215 201.079 51.9166 201.06 51.4002V48.6082H199.534V51.2806C199.546 51.398 199.532 51.5166 199.494 51.6284C199.457 51.7402 199.395 51.8426 199.315 51.9287C199.137 52.0434 198.928 52.1024 198.716 52.0982C198.519 52.109 198.325 52.0488 198.168 51.9287C198.082 51.8443 198.014 51.7434 197.967 51.6321C197.921 51.5207 197.898 51.4012 197.899 51.2806V48.6082L196.373 48.5484V51.4002C196.347 51.6502 196.38 51.9028 196.468 52.1381C196.556 52.3734 196.698 52.585 196.882 52.7564C197.123 52.9725 197.409 53.1335 197.719 53.2282C198.029 53.3229 198.355 53.3491 198.676 53.3048C199.334 53.3742 199.993 53.2004 200.531 52.8162" fill="white"/>
<path d="M23.3147 53.3759C22.6997 53.3759 22.1702 53.2307 21.7261 52.9403C21.282 52.6499 20.9403 52.2499 20.7012 51.7403C20.4621 51.2307 20.3425 50.6485 20.3425 49.9937C20.3425 49.3276 20.4649 48.7397 20.7097 48.2301C20.9574 47.7176 21.3019 47.3176 21.7432 47.0301C22.1873 46.7397 22.7054 46.5945 23.2976 46.5945C23.7588 46.5945 24.1745 46.6799 24.5446 46.8507C24.9147 47.0215 25.2179 47.2607 25.4542 47.5681C25.6905 47.8756 25.8371 48.2343 25.894 48.6443H24.8862C24.8093 48.3454 24.6385 48.0806 24.3738 47.85C24.1118 47.6165 23.7588 47.4998 23.3147 47.4998C22.9218 47.4998 22.5773 47.6023 22.2812 47.8073C21.988 48.0094 21.7588 48.2955 21.5937 48.6656C21.4314 49.0329 21.3503 49.4642 21.3503 49.9596C21.3503 50.4663 21.43 50.9076 21.5894 51.2834C21.7517 51.6592 21.9795 51.951 22.2727 52.1588C22.5688 52.3667 22.9161 52.4706 23.3147 52.4706C23.5766 52.4706 23.8143 52.425 24.0278 52.3339C24.2414 52.2428 24.4222 52.1119 24.5702 51.9411C24.7182 51.7702 24.8236 51.5653 24.8862 51.3261H25.894C25.8371 51.7133 25.6962 52.062 25.4712 52.3724C25.2492 52.6798 24.9545 52.9247 24.5873 53.1069C24.2229 53.2862 23.7987 53.3759 23.3147 53.3759ZM27.3673 53.2393V46.6799H32.526V53.2393H31.5182V47.6194H28.3751V53.2393H27.3673ZM39.2348 44.2201L39.7473 44.8351C39.548 45.0287 39.3174 45.1639 39.0554 45.2408C38.7935 45.3176 38.4974 45.3646 38.1672 45.3817C37.837 45.3988 37.4697 45.4159 37.0654 45.4329C36.6099 45.45 36.2327 45.561 35.9338 45.766C35.6348 45.971 35.4042 46.2671 35.242 46.6543C35.0797 47.0415 34.9758 47.5169 34.9302 48.0806H35.0156C35.2377 47.6706 35.5452 47.3689 35.938 47.1753C36.3309 46.9817 36.7523 46.8849 37.2021 46.8849C37.7145 46.8849 38.1757 47.0044 38.5857 47.2436C38.9957 47.4827 39.3202 47.8372 39.5594 48.3069C39.7985 48.7767 39.9181 49.356 39.9181 50.045C39.9181 50.7311 39.7956 51.3233 39.5508 51.8215C39.3088 52.3197 38.9686 52.704 38.5302 52.9745C38.0946 53.2421 37.5836 53.3759 36.9971 53.3759C36.4106 53.3759 35.8968 53.2378 35.4555 52.9617C35.0142 52.6827 34.6711 52.2699 34.4263 51.7233C34.1815 51.1738 34.0591 50.4948 34.0591 49.6863V48.9859C34.0591 47.5254 34.3067 46.418 34.8021 45.6635C35.3003 44.9091 36.0491 44.5191 37.0483 44.4934C37.4014 44.4821 37.716 44.4792 37.9921 44.4849C38.2683 44.4906 38.5088 44.4778 38.7138 44.4465C38.9188 44.4152 39.0925 44.3397 39.2348 44.2201ZM36.9971 52.4706C37.3928 52.4706 37.733 52.3709 38.0177 52.1717C38.3053 51.9724 38.5259 51.6919 38.6796 51.3304C38.8334 50.966 38.9102 50.5375 38.9102 50.045C38.9102 49.5667 38.832 49.1596 38.6754 48.8236C38.5216 48.4877 38.301 48.2315 38.0135 48.055C37.7259 47.8785 37.3814 47.7902 36.98 47.7902C36.6868 47.7902 36.4234 47.84 36.19 47.9397C35.9565 48.0393 35.7573 48.1859 35.5921 48.3795C35.427 48.5731 35.2989 48.8094 35.2078 49.0884C35.1195 49.3674 35.0726 49.6863 35.0669 50.045C35.0669 50.7795 35.2391 51.3674 35.5836 51.8087C35.9281 52.2499 36.3992 52.4706 36.9971 52.4706Z" fill="white"/>
</g>
<defs>
<clipPath id="clip0_1206_775">
<rect width="190" height="35" fill="white" transform="translate(15 20)"/>
</clipPath>
</defs>
</svg>
