<svg width="220" height="65" viewBox="0 0 220 65" fill="none" xmlns="http://www.w3.org/2000/svg">
<path d="M11 24.8774V17H30.7492V24.8774H25.2462V50.3393H16.503V24.8774H11ZM43.5706 17V29.7564H48.765V17H57.5082V50.3393H48.765V37.6338H43.5706V50.3393H34.8275V17H43.5706ZM81.9387 17V24.8774H71.2927V29.7564H80.9101V37.6338H71.2927V42.4619H81.9387V50.3393H62.5496V17H81.9387ZM119.183 33.4664C121.823 34.8894 123.143 37.2272 123.143 40.4798V41.4963C123.143 44.2746 122.218 46.4429 120.366 48.0015C118.549 49.5601 116.029 50.3393 112.806 50.3393H100.566V17H112.189C115.412 17 117.932 17.7793 119.749 19.3378C121.566 20.8964 122.475 23.0309 122.475 25.7414V26.7578C122.475 29.7395 121.378 31.9756 119.183 33.4664ZM109.309 24.6233V29.9088H111.16C112.052 29.9088 112.703 29.7395 113.115 29.4006C113.526 29.0279 113.732 28.4519 113.732 27.6726V26.8087C113.732 25.3517 112.875 24.6233 111.16 24.6233H109.309ZM114.349 39.6158C114.349 38.1589 113.492 37.4305 111.777 37.4305H109.309V42.716H111.777C112.669 42.716 113.32 42.5466 113.732 42.2078C114.143 41.8351 114.349 41.259 114.349 40.4798V39.6158ZM146.873 17V24.8774H136.227V29.7564H145.845V37.6338H136.227V42.4619H146.873V50.3393H127.484V17H146.873ZM160.334 17V42.4619H170.98V50.3393H151.591V17H160.334ZM183.786 17V42.4619H194.432V50.3393H175.043V17H183.786ZM204.96 51C203.486 51 202.269 50.5426 201.308 49.6278C200.383 48.6791 199.92 47.4764 199.92 46.0194C199.92 44.5287 200.383 43.3259 201.308 42.4111C202.269 41.4963 203.486 41.0389 204.96 41.0389C206.469 41.0389 207.686 41.4963 208.611 42.4111C209.537 43.3259 210 44.5287 210 46.0194C210 47.5102 209.537 48.713 208.611 49.6278C207.686 50.5426 206.469 51 204.96 51Z" fill="#FF1818"/>
</svg>
