<svg width="220" height="65" viewBox="0 0 220 65" fill="none" xmlns="http://www.w3.org/2000/svg">
<g clip-path="url(#clip0_1206_824)">
<path fill-rule="evenodd" clip-rule="evenodd" d="M141.507 24.2639H139.19L132.012 6.69336H135.276L140.461 19.6857L145.419 6.69336H148.485L141.507 24.2639ZM95.7731 22.3421C94.6969 23.4864 92.527 24.2639 90.3043 24.2639C85.0848 24.2639 81.4971 20.7827 81.4971 15.4786C81.4971 10.5852 84.5961 6.69336 90.2329 6.69336C92.4523 6.69336 94.3071 7.39838 95.4294 8.41967L94.0897 10.6358C93.0629 9.95489 91.9406 9.49037 90.2329 9.49037C87.0593 9.49037 84.6686 11.7778 84.6686 15.4786C84.6686 19.0301 87.0845 21.4658 90.5745 21.4658C92.0141 21.4658 93.4538 21.0046 94.6256 20.1019L95.7731 22.3421ZM106.496 6.69336H109.208L116.638 24.2639H113.351L111.517 19.7834H104.012L102.181 24.2639H99.0676L106.496 6.69336ZM105.192 16.9062H110.338L107.778 10.6698L105.192 16.9062ZM121.031 6.69336H124.209V21.3758H129.816V24.2639H121.031V6.69336ZM155.074 6.69336H164.718V9.57822H158.004V13.9478H164.005V16.836H158.004V21.3758H164.957V24.2639H155.074V6.69336ZM171.546 24.0662V6.74168C172.507 6.74168 176.301 6.69336 176.794 6.69336C181.498 6.69336 183.048 9.04342 183.048 12.0414C183.048 15.0086 181.153 16.4922 179.724 16.9908L182.063 20.2062C182.705 21.0716 183.763 21.692 184.724 21.4197V24.0662C183.271 24.612 181.276 24.0662 179.749 21.9095L176.694 17.5827H174.576V24.0662H171.546ZM174.577 9.58701V14.7363H176.547C178.295 14.7363 179.847 13.8457 179.847 12.0623C179.847 10.7038 179.109 9.53649 176.645 9.53649C176.08 9.53649 175.39 9.56175 174.577 9.58701Z" fill="white"/>
<path fill-rule="evenodd" clip-rule="evenodd" d="M56.1207 6.73511H64.5622V9.65292H59.2394V14.0598H63.7243V16.9721H59.2394V21.5603H64.7401V24.4726H56.1207V6.73511ZM20 6.73511V9.65292H23.7502V24.4737H26.8437V9.65292H30.595V6.73511H20Z" fill="white"/>
<path fill-rule="evenodd" clip-rule="evenodd" d="M188.019 6.69336H199V9.58371H195.112V24.2639H191.905V9.58371H188.019V6.69336ZM47.6651 17.7452L39.5804 15.7773V24.2639H36.4727V6.69336H39.5804V12.8925L47.6651 14.8604V6.69336H50.7487V24.2639H47.6651V17.7452Z" fill="white"/>
</g>
<path d="M47.4541 58.3069C50.6157 58.3069 52.9449 57.0836 52.9449 52.5416V36.3438H50.1084V52.0079C50.1084 54.582 49.2309 55.3705 47.4541 55.3705V58.3069Z" fill="white"/>
<path d="M88.8822 53.9143C92.5281 53.9143 95.7731 51.7641 95.7731 46.4765V36.3438H92.7499V45.8571C92.7499 49.2197 91.5101 51.0701 88.8822 51.0701C85.8842 51.0701 84.5466 48.8968 84.5466 45.6594V36.3438H81.497V46.2997C81.497 51.3688 84.5697 53.9143 88.8822 53.9143Z" fill="white"/>
<path d="M125.105 43.5444L133.451 50.4957V53.9143H136.405V36.3438H133.451V46.4556L125.105 39.5043V36.3438H122.129V53.9143H125.105V43.5444Z" fill="white"/>
<path d="M167.038 36.3438H163.859V53.9143H172.644V51.0261H167.038V36.3438Z" fill="white"/>
<path fill-rule="evenodd" clip-rule="evenodd" d="M67.7569 36.3438C73.0841 36.3438 77.1044 39.8216 77.1044 45.1246C77.1044 50.2377 73.0841 53.9143 67.7569 53.9143C62.4297 53.9143 58.4357 50.4331 58.4357 45.1246C58.4357 40.1873 62.2507 36.3438 67.7569 36.3438ZM73.7748 45.1246C73.7748 48.4872 71.5203 51.114 67.7569 51.114C64.402 51.114 61.7664 48.5333 61.7664 45.1246C61.7664 41.5951 64.324 39.1397 67.7569 39.1397C71.1381 39.1397 73.7748 41.5951 73.7748 45.1246Z" fill="white"/>
<path fill-rule="evenodd" clip-rule="evenodd" d="M103.46 53.7166V36.3921C104.021 36.3921 105.542 36.3757 106.812 36.362C107.722 36.3522 108.503 36.3438 108.709 36.3438C113.412 36.3438 114.963 38.6938 114.963 41.6918C114.963 44.659 113.067 46.1426 111.638 46.6412L113.98 49.8566C114.619 50.722 115.677 51.3424 116.638 51.0701V53.7166C115.187 54.2624 113.19 53.7166 111.663 51.5598L108.611 47.2331H106.49V53.7166H103.46ZM106.49 44.3867V39.2374C106.617 39.2335 106.741 39.2295 106.862 39.2257C107.516 39.2049 108.082 39.1869 108.56 39.1869C111.023 39.1869 111.761 40.3542 111.761 41.7127C111.761 43.4961 110.21 44.3867 108.46 44.3867H106.49Z" fill="white"/>
<path fill-rule="evenodd" clip-rule="evenodd" d="M149.325 36.3438H152.035L159.466 53.9143H156.178L154.345 49.4338H146.84L145.006 53.9143H141.896L149.325 36.3438ZM153.166 46.5555H148.02L150.605 40.3235L153.166 46.5555Z" fill="white"/>
<defs>
<clipPath id="clip0_1206_824">
<rect width="179" height="18.6687" fill="white" transform="translate(20 6.69336)"/>
</clipPath>
</defs>
</svg>
