<svg width="223" height="65" viewBox="0 0 223 65" fill="none" xmlns="http://www.w3.org/2000/svg">
<path d="M5.91211 23.5978V14.9667H27.1108V23.5978H21.2039V51.4957H11.819V23.5978H5.91211ZM40.8733 14.9667V28.9435H46.449V14.9667H55.8338V51.4957H46.449V37.5746H40.8733V51.4957H31.4884V14.9667H40.8733ZM82.0575 14.9667V23.5978H70.6301V28.9435H80.9534V37.5746H70.6301V42.8646H82.0575V51.4957H61.2452V14.9667H82.0575ZM122.036 33.0085C124.87 34.5676 126.287 37.1291 126.287 40.6929V41.8066C126.287 44.8508 125.293 47.2265 123.305 48.9342C121.355 50.642 118.65 51.4957 115.19 51.4957H102.052V14.9667H114.528C117.987 14.9667 120.692 15.8205 122.643 17.5282C124.594 19.2358 125.569 21.5746 125.569 24.5444V25.6581C125.569 28.925 124.391 31.3751 122.036 33.0085ZM111.436 23.3194V29.1106H113.424C114.381 29.1106 115.08 28.925 115.522 28.5537C115.963 28.1454 116.184 27.5142 116.184 26.6604V25.7138C116.184 24.1175 115.264 23.3194 113.424 23.3194H111.436ZM116.846 39.7463C116.846 38.15 115.926 37.3519 114.086 37.3519H111.436V43.1431H114.086C115.043 43.1431 115.742 42.9575 116.184 42.5862C116.626 42.1779 116.846 41.5467 116.846 40.6929V39.7463ZM151.758 14.9667V23.5978H140.331V28.9435H150.654V37.5746H140.331V42.8646H151.758V51.4957H130.946V14.9667H151.758ZM166.206 14.9667V42.8646H177.634V51.4957H156.822V14.9667H166.206ZM191.38 14.9667V42.8646H202.807V51.4957H181.995V14.9667H191.38ZM214.108 52.2196C212.526 52.2196 211.219 51.7185 210.188 50.7162C209.195 49.6767 208.698 48.3589 208.698 46.7626C208.698 45.1292 209.195 43.8113 210.188 42.809C211.219 41.8066 212.526 41.3055 214.108 41.3055C215.728 41.3055 217.034 41.8066 218.028 42.809C219.021 43.8113 219.518 45.1292 219.518 46.7626C219.518 48.3959 219.021 49.7138 218.028 50.7162C217.034 51.7185 215.728 52.2196 214.108 52.2196Z" fill="#FF1818"/>
</svg>
