<svg width="149" height="90" viewBox="0 0 149 90" fill="none" xmlns="http://www.w3.org/2000/svg">
<path d="M82.4243 14.1869L80.4993 21.851C83.226 16.4379 87.5567 12.3647 92.5293 8.77344C88.8936 13.0076 85.5789 17.2421 83.5471 21.4762C86.969 16.6522 91.567 13.9726 96.7531 12.2038C89.8559 18.3676 84.3812 24.9816 80.2107 31.6277L76.896 30.1808C77.4836 24.8745 79.4834 19.4398 82.4243 14.1869Z" fill="#ABCD03"/>
<path d="M73.5713 28.7715L79.8804 31.3954C79.8804 33.0036 79.75 37.9088 80.7532 39.3558C91.2462 52.9027 89.4808 80.0578 78.6276 80.7544C62.1005 80.7544 55.7974 69.4994 55.7974 59.1549C55.7974 49.7216 67.0784 43.4507 73.8155 37.8768C75.5263 36.376 75.2292 33.0594 73.5713 28.7715Z" fill="#FFFCDB"/>
<path d="M79.8823 31.3018L82.1561 32.4645C81.9423 33.9648 82.263 37.2885 83.7596 38.1456C90.3898 42.2726 96.645 46.7747 99.1047 51.2769C107.873 67.142 92.956 81.8274 80.0706 80.4338C87.0747 75.2346 89.1065 64.5691 86.4867 52.9381C85.4176 48.3822 83.7596 44.2552 80.8188 39.5921C79.5448 37.3032 79.9896 34.4645 79.8823 31.3018Z" fill="#9050AF"/>
<path d="M78.7869 30.9097L83.4918 31.5529C82.1016 36.1622 86.2189 39.3779 87.5554 40.1287C90.5495 41.7903 93.4367 43.5053 95.7359 45.5955C100.067 49.5616 102.526 55.1359 102.526 61.0316C102.526 66.8736 99.8527 72.5013 95.3616 76.2531C91.1379 79.7906 85.3102 81.2914 79.6427 81.2914C76.1138 81.2914 72.9592 81.1308 69.5377 80.0049C61.7318 77.3787 55.9038 70.6792 55.4226 62.6391C54.9947 56.3682 56.3849 51.598 61.2507 46.6135C63.7632 43.9872 68.8428 40.9858 72.3184 38.5738C74.0296 37.3945 75.8472 34.0713 72.3716 27.8007L73.0669 27.2646L78.2175 30.7229L73.8691 28.9263C74.2433 29.4624 75.2592 31.8743 75.4734 32.5709C75.9545 34.554 75.7407 36.484 75.3129 37.3411C73.1209 41.3076 69.3783 42.3794 66.6516 44.6305C61.8395 48.5965 56.5998 51.7589 57.1878 62.6391C57.4552 67.9988 61.6257 74.5377 67.8809 77.5929C71.4097 79.3083 75.4734 80.0049 79.5902 80.2192C83.2792 80.3801 90.3369 78.1824 94.1864 74.9667C98.3032 71.5367 100.602 66.3375 100.602 61.0316C100.602 55.6716 98.4638 50.58 94.4538 46.9887C92.1546 44.8985 88.3587 42.3794 86.0063 41.0392C83.6538 39.6994 80.713 35.9476 81.6753 32.3567L78.7869 30.9097Z" fill="black"/>
<path d="M77.3435 38.8418C76.8623 41.3075 76.3276 45.7559 74.1889 47.4176C73.2799 48.0604 72.3708 48.704 71.4086 49.3468C67.5591 51.9735 63.7092 54.4385 61.9452 60.7631C61.5709 62.1033 61.8919 63.5503 62.2129 64.8901C63.1752 68.7491 65.9019 72.9298 68.0406 75.3955C68.0406 75.5027 68.4685 75.7707 68.4685 75.8779C70.2329 77.9684 70.7677 78.5579 77.4508 80.0582L77.2902 80.809C73.2803 79.7372 69.9655 78.7726 67.8801 76.3602C67.8801 76.3068 67.5058 75.9312 67.5058 75.9312C65.2603 73.3584 62.5332 69.0709 61.5177 65.051C61.1434 63.4428 60.8228 62.2105 61.2503 60.5485C63.068 54.0099 67.0247 51.437 71.0347 48.7036C71.9437 48.1142 73.0129 47.5777 73.8683 46.8811C75.5254 45.6488 76.4341 41.8966 77.3435 38.8418Z" fill="black"/>
<path d="M79.0529 49.0254C79.1066 51.8126 78.8352 53.2107 79.5301 55.1942C79.9576 56.3731 81.4022 57.9811 81.83 59.5356C82.4181 61.6262 83.0585 63.9307 83.0045 65.3242C83.0045 66.9325 82.9042 69.9325 82.2093 73.1487C81.6794 75.806 80.4581 78.0862 78.4045 79.3788C76.301 78.9445 73.8311 78.2033 72.3732 76.9505C69.5396 74.4851 67.0299 70.3627 66.7089 66.7714C66.4419 63.8237 69.1646 59.4764 72.9604 57.2791C76.1683 55.4032 76.9145 53.2652 77.6093 49.8348C76.6471 52.8363 75.7433 55.3523 72.6424 56.9602C68.1512 59.3184 65.8468 63.2771 66.0605 67.0289C66.3811 71.8525 68.3082 75.121 72.1041 77.7477C73.708 78.8732 76.7045 80.0626 78.5758 80.3844V80.1391C79.9949 79.8727 81.8323 77.5362 82.7476 74.3751C83.5497 71.5345 83.866 67.8989 83.8119 65.594C83.7583 64.2542 83.1687 61.3525 82.0992 58.7262C81.5112 57.2793 80.6078 55.8324 80.0194 54.814C79.3786 53.7948 79.374 51.5979 79.0529 49.0254Z" fill="black"/>
<path d="M78.7346 59.5352C78.7878 61.4111 79.5395 63.8146 79.8601 66.2804C80.1279 68.1029 80.0116 69.9334 79.958 71.5416C79.9051 73.4031 79.2865 76.7385 78.441 78.3604C77.6436 77.9938 77.3319 77.5758 76.8139 76.901C76.1726 75.9897 75.737 75.0785 75.3091 74.0067C74.9885 73.2026 74.6136 72.2823 74.4527 71.2105C74.239 69.6026 74.2989 67.0872 76.1165 64.5144C77.5067 62.4776 77.8253 62.3226 78.3064 59.9644C77.6644 62.0546 77.1858 62.2677 75.6883 64.0361C74.0312 65.9657 73.7554 68.8079 73.7554 71.1124C73.7554 72.0774 74.1392 73.1481 74.5139 74.1661C74.9414 75.2383 75.3083 76.3057 75.8963 77.1095C76.7803 78.4127 77.9117 79.1538 78.4654 79.2925C78.469 79.2932 78.4741 79.2917 78.4777 79.2925C78.4895 79.2952 78.5031 79.3025 78.5143 79.3047V79.2434C79.5517 78.084 80.176 76.9321 80.3861 75.7727C80.6535 74.3791 80.715 72.9825 80.8755 71.3208C81.0356 69.9273 80.9194 68.0502 80.5452 66.1209C80.0108 63.7089 79.1088 61.2498 78.7345 59.5352L78.7346 59.5352Z" fill="black"/>
<path d="M78.8934 36.5918C78.947 39.3786 79.1608 44.5781 79.9093 46.6145C80.1231 47.3111 82.1013 50.3663 83.491 54.0644C84.4537 56.6372 84.6674 58.9955 84.8279 59.692C85.4696 62.7473 84.6674 67.8926 83.5979 72.77C83.0635 75.3962 81.2455 78.6657 79.1604 79.9522L78.7329 80.7025C79.9093 80.6488 82.7961 77.8082 83.812 74.2707C85.5232 68.2678 86.2181 65.4806 85.4164 58.8345C85.3095 58.1909 85.0421 55.994 84.0262 53.6354C82.5291 50.0441 80.3905 46.6141 80.1235 45.9171C79.6419 44.792 79.0003 39.9147 78.8934 36.5918Z" fill="black"/>
<path d="M79.8968 32.7793C79.7382 35.6434 79.6958 36.6982 80.2302 38.7884C80.8182 41.0932 83.8127 44.4161 85.0423 48.2216C87.3948 55.5109 86.8068 65.0513 85.0956 72.5012C84.4543 75.127 81.4062 78.933 78.3589 80.1653L80.6044 80.7014C81.8341 80.6476 84.9883 77.6999 86.2184 74.3233C88.1961 69.017 88.5708 62.6927 87.7686 56.0466C87.715 55.4034 86.6455 49.6686 85.63 47.2566C84.1862 43.6657 81.6196 40.4496 81.3526 39.7534C80.8718 38.5741 79.8154 36.1257 79.8968 32.7793Z" fill="black"/>
<path d="M78.4132 30.7637H78.1978V80.2195H78.4132V30.7637Z" fill="black"/>
<path d="M17.9946 15.7949H60.928C62.5316 15.7949 63.9217 17.1347 63.9217 18.7964V31.4987C63.9217 33.1603 62.5316 34.5005 60.928 34.5005H52.1063C50.1277 34.5005 49.2723 35.6257 49.2723 36.9121V78.5037C49.2723 79.8973 48.1495 80.9691 46.813 80.9691H32.2169C30.8799 80.9691 29.8108 79.8973 29.8108 78.5037V36.5373C29.8108 35.2509 28.6344 34.5009 27.7257 34.5009H17.9946C16.337 34.5009 15.0005 33.1607 15.0005 31.4991V18.7964C15.0001 17.1347 16.3366 15.7949 17.9946 15.7949Z" fill="#9050AF"/>
<path d="M128.145 32.625H131.94C133.331 32.625 134.453 33.7505 134.453 35.0904V48.7044C134.453 50.4731 134.56 51.1697 132.422 51.1697C128.198 51.1697 126.273 53.4208 126.273 55.8862V78.8793C126.273 79.9514 125.257 80.8623 124.028 80.8623H110.393C109.164 80.8623 108.148 79.9514 108.148 78.8793V52.67C108.133 52.2092 108.142 51.5288 108.201 51.1697C108.95 41.4684 116.543 33.7066 126.166 32.7321C126.489 32.6995 127.63 32.625 128.145 32.625Z" fill="#9050AF"/>
</svg>
