<svg width="220" height="65" viewBox="0 0 220 65" fill="none" xmlns="http://www.w3.org/2000/svg">
<g clip-path="url(#clip0_1206_851)">
<mask id="mask0_1206_851" style="mask-type:luminance" maskUnits="userSpaceOnUse" x="6" y="9" width="208" height="43">
<path d="M214 9H6V52H214V9Z" fill="white"/>
</mask>
<g mask="url(#mask0_1206_851)">
<path d="M65.8471 34.303H69.5227C68.4729 40.6946 62.8529 43.5479 56.4451 43.5479C47.5158 43.5479 42.2109 37.2541 42.2109 29.5478C42.2109 21.8416 47.4115 15.5479 56.3477 15.5479C65.9074 15.5479 70.0556 21.5712 70.0556 28.4919V30.077H45.8888C46.0465 35.0956 48.9873 40.3777 56.4451 40.3777C61.803 40.3777 65.321 37.6831 65.8471 34.303ZM46.0465 27.1702H66.2666C65.8471 23.4196 63.43 18.718 56.3408 18.718C49.7752 18.718 46.8344 22.8392 46.0465 27.1702Z" fill="white"/>
<path d="M78.7413 52H75.0635V16.6038H78.2152V22.1516H78.7413C78.7413 22.1516 81.1028 15.5479 88.4562 15.5479C96.1249 15.5479 100.799 21.8416 100.799 29.5478C100.799 37.2541 95.8629 43.5479 88.7205 43.5479C81.1028 43.5479 78.7413 36.9441 78.7413 36.9441H78.2152L78.7413 40.3777V52ZM88.1944 40.3777C94.3404 40.3777 97.1237 34.6714 97.1237 29.5478C97.1237 24.4243 94.3427 18.718 88.1944 18.718C82.046 18.718 78.7413 24.4243 78.7413 29.5478C78.7413 34.6714 82.0484 40.3777 88.1944 40.3777Z" fill="white"/>
<path d="M118.575 40.3777C123.931 40.3777 128.343 37.1563 128.343 33.2448H132.019C132.019 40.1656 124.983 43.5479 118.577 43.5479C109.648 43.5479 104.186 37.2541 104.186 29.5478C104.186 21.8416 109.648 15.5479 118.577 15.5479C124.985 15.5479 132.019 18.9301 132.019 25.8509H128.343C128.343 21.9395 123.94 18.718 118.575 18.718C110.853 18.718 107.859 24.4243 107.859 29.5478C107.859 34.6714 110.853 40.3777 118.575 40.3777Z" fill="white"/>
<path d="M133.131 16.6038H156.252V19.5105H146.519V42.4919H142.848V19.5105H133.131V16.6038Z" fill="white"/>
<path d="M176.71 35.3589C176.71 32.8228 176.76 30.7109 172.665 30.7109H163.316V42.4918H159.639V16.6037H163.316V27.7925H172.45C176.548 27.7925 176.494 25.2051 176.494 22.1398V20.8368C176.494 17.1375 177.281 16.0815 180.433 16.0815H182.487V18.972H181.699C180.385 18.972 180.123 19.2377 180.123 20.8228V23.1981C180.123 28.5874 176.71 28.5874 176.71 28.5874V29.1164C176.71 29.1164 180.385 29.1164 180.385 34.0279V37.9907C180.385 39.0465 180.385 39.5757 181.437 39.5757H182.749V42.4918H180.385C177.498 42.4918 176.71 41.9626 176.71 38.7925V35.3589Z" fill="white"/>
<path d="M206.909 36.415C205.286 38.4756 200.554 43.5479 194.566 43.5479C189.575 43.5479 187.212 40.9069 187.212 37.2075C187.212 27.8042 203.284 26.6947 206.911 26.4313C206.857 22.3637 205.335 18.718 198.508 18.718C192.73 18.718 190.105 21.9395 190.105 25.8509H186.425C186.425 19.2472 191.94 15.5479 198.505 15.5479C209.273 15.5479 210.585 21.8416 210.585 29.5478V36.9441C210.585 40.3777 211.372 40.6411 213.212 40.6411H214V42.4919H206.909V36.415ZM206.909 29.3357C203.599 29.6528 190.89 30.6575 190.89 36.9441C190.89 39.3217 192.464 40.3777 195.616 40.3777C200.343 40.3777 205.175 35.6761 206.909 33.5106V29.3357Z" fill="white"/>
<path d="M63.5058 9H59.7979V12.7296H63.5058V9Z" fill="white"/>
<path d="M52.5673 9H48.8594V12.7296H52.5673V9Z" fill="white"/>
<path d="M32.6834 29.0186V28.4918C32.6834 28.4918 37.7263 27.6457 37.7263 23.1027C37.7263 19.669 35.6266 16.6574 28.535 16.6038H16.1921H5.99512V19.4149H9.33464V42.4755H12.8109V19.4196H16.1921V42.4965H29.6336C36.461 42.4429 38.8248 38.4801 38.8248 34.993C38.8294 29.0186 32.6834 29.0186 32.6834 29.0186ZM34.0508 23.2075C34.0508 25.2169 33.0518 27.4336 28.4308 27.4336H19.8677V19.5082H28.4308C32.5259 19.5105 34.0508 20.9371 34.0508 23.2075ZM29.2697 39.5851H19.8677V30.3404H27.6429C33.3138 30.3404 35.1539 32.4522 35.1539 34.9884C35.1539 37.5246 33.367 39.5851 29.2697 39.5851Z" fill="white"/>
</g>
</g>
<defs>
<clipPath id="clip0_1206_851">
<rect width="208" height="43" fill="white" transform="translate(6 9)"/>
</clipPath>
</defs>
</svg>
