<svg width="226" height="8" viewBox="0 0 226 8" fill="none" xmlns="http://www.w3.org/2000/svg">
<path d="M225 5.98246C216.125 1.51469 207.206 5.1125 198.026 6.45021C191.706 7.37115 183.145 6.73512 177.226 5.42115C168.674 3.52267 163.228 -0.343327 153.689 1.47331C140.272 4.02827 127.856 7.99273 113.487 6.15085C104.76 5.03225 94.4152 3.01842 85.479 4.0366C79.7287 4.69177 74.6026 6.44461 68.6318 6.73086C61.6338 7.06637 54.6619 7.28784 47.8314 6.13214C43.9651 5.47797 41.0834 3.74969 36.9446 3.43788C31.55 3.03146 25.7047 3.07406 20.4016 3.81208C13.8636 4.72194 7.68438 6.44848 1.00001 6.99281" stroke="#D7E80A" stroke-linecap="round"/>
</svg>
