<svg width="334" height="10" viewBox="0 0 334 10" fill="none" xmlns="http://www.w3.org/2000/svg">
<path d="M333 7.64328C319.846 1.68625 306.627 6.48333 293.021 8.26695C283.654 9.49487 270.964 8.64682 262.192 6.89487C249.517 4.36355 241.445 -0.791103 227.306 1.63108C207.422 5.0377 189.019 10.3236 167.721 7.8678C154.787 6.37633 139.455 3.69123 126.21 5.0488C117.687 5.92236 110.09 8.25948 101.24 8.64115C90.8679 9.08849 80.5346 9.38379 70.4108 7.84285C64.6804 6.97063 60.4093 4.66625 54.275 4.2505C46.2795 3.70861 37.6159 3.76541 29.7559 4.74944C20.0657 5.96259 10.9072 8.26465 0.999991 8.99041" stroke="#D7E80A" stroke-linecap="round"/>
</svg>
