<svg width="220" height="65" viewBox="0 0 220 65" fill="none" xmlns="http://www.w3.org/2000/svg">
<path d="M169.508 20.425V44.575H181.34C184.646 44.575 186.56 44.05 187.952 42.825C189.692 41.25 190.562 38.45 190.562 32.5C190.562 26.55 189.692 23.75 187.952 22.175C186.56 20.95 184.646 20.425 181.34 20.425H169.508ZM185.69 32.5C185.69 37.75 185.342 38.975 184.298 39.675C183.602 40.2 182.732 40.375 180.992 40.375H174.38V24.45H180.992C182.732 24.45 183.602 24.45 184.298 25.15C185.342 26.025 185.69 27.25 185.69 32.5ZM196.652 49.9132H161.938V15H196.652V49.9132ZM133.578 24.45V20.425H154.11V28.125H149.758V24.45H141.406V30.225H148.018V34.075H141.406V40.55H149.934V36.35H154.282V44.575H133.579V40.55H136.884V24.45H133.578ZM114.96 38.275C114.96 40.9 115.132 42.825 115.48 44.4H120.18C120.004 43.175 119.832 40.9 119.832 37.925C119.656 34.425 118.612 33.9 116.176 33.375C118.96 32.85 120.18 31.625 120.18 27.25C120.18 23.75 119.656 22.35 118.612 21.475C117.916 20.775 116.7 20.425 114.784 20.425H100.168V44.575H105.04V35.125H111.828C113.22 35.125 113.74 35.3 114.264 35.65C114.787 36 114.96 36.525 114.96 38.275ZM105.04 31.275V24.625H112.872C113.916 24.625 114.264 24.8 114.436 24.975C114.784 25.325 115.132 25.85 115.132 27.95C115.132 30.05 114.784 30.75 114.436 31.1C114.264 31.275 113.916 31.45 112.872 31.45L105.04 31.275ZM127.14 49.9132H92.3397V15H127.052V49.9132H127.14ZM83.2917 40.55V44.575H66.7603V40.55H72.6763V24.45H66.7603V20.425H83.2903V24.45H77.3743V40.55H83.2917ZM55.364 20.425H50.84L47.534 39.5L43.706 21.825C43.532 20.6 43.01 20.425 41.966 20.425H39.53C38.486 20.425 37.964 20.775 37.79 21.825L33.962 39.5L30.656 20.425H25.784L30.482 43.35C30.656 44.4 31.004 44.575 32.222 44.575H35.528C36.572 44.575 36.92 44.4 37.268 43.35L40.922 26.725L44.576 43.35C44.75 44.4 45.098 44.575 46.316 44.575H49.448C50.492 44.575 51.014 44.4 51.188 43.35L55.364 20.425ZM57.8 49.9132H23V15H57.7137V49.9132H57.8Z" fill="white"/>
</svg>
