<svg width="158" height="59" viewBox="0 0 158 59" fill="none" xmlns="http://www.w3.org/2000/svg">
<g clip-path="url(#clip0_157_396)">
<path fill-rule="evenodd" clip-rule="evenodd" d="M2 10V47.3333L39.8311 10H2Z" fill="#92CFAE"/>
<path fill-rule="evenodd" clip-rule="evenodd" d="M4.70215 50H42.5333V12.6666L4.70215 50Z" fill="#2A8288"/>
<path fill-rule="evenodd" clip-rule="evenodd" d="M63.7835 29.1329C68.1822 29.1329 70.5206 27.0072 70.5206 23.0354V22.811C70.5206 18.5595 68.0706 16.8813 63.7835 16.8813H59.2177V29.1329H63.7835ZM50.2539 10H64.0061C73.6939 10 79.2063 14.3074 79.2063 22.7557V22.9788C79.2063 31.4265 73.3603 35.4548 64.2842 35.4548H59.2177V50H50.2539V10Z" fill="white"/>
<path fill-rule="evenodd" clip-rule="evenodd" d="M97.051 43.1187C101.367 43.1187 103.552 41.2167 103.552 37.5799V37.3568C103.552 33.776 101.367 31.8181 96.8326 31.8181H91.8066V43.1187H97.051ZM97.379 50H83.0664V10H108.523V17.0491H91.8617L91.8066 25.4402H97.6518C106.666 25.4402 112.019 29.4126 112.019 37.4121V37.6365C112.019 45.4682 107.048 50 97.379 50Z" fill="white"/>
<path fill-rule="evenodd" clip-rule="evenodd" d="M118.533 10.0559H127.945V27.2627L142.47 10H152.463L136.021 28.9386L153.276 50H142.295L127.945 32.0669V50H118.533V10.0559Z" fill="white"/>
</g>
<defs>
<clipPath id="clip0_157_396">
<rect width="152" height="40" fill="white" transform="translate(2 10)"/>
</clipPath>
</defs>
</svg>
