<svg width="218" height="51" viewBox="0 0 218 51" fill="none" xmlns="http://www.w3.org/2000/svg">
<path d="M0.912598 16.0978V7.46667H22.1113V16.0978H16.2044V43.9957H6.81953V16.0978H0.912598ZM35.8738 7.46667V21.4435H41.4495V7.46667H50.8343V43.9957H41.4495V30.0746H35.8738V43.9957H26.4889V7.46667H35.8738ZM77.058 7.46667V16.0978H65.6306V21.4435H75.9539V30.0746H65.6306V35.3646H77.058V43.9957H56.2457V7.46667H77.058ZM117.036 25.5085C119.87 27.0676 121.287 29.6291 121.287 33.1929V34.3066C121.287 37.3508 120.293 39.7265 118.306 41.4342C116.355 43.142 113.65 43.9957 110.191 43.9957H97.052V7.46667H109.528C112.988 7.46667 115.693 8.3205 117.644 10.0282C119.594 11.7358 120.569 14.0746 120.569 17.0444V18.1581C120.569 21.425 119.392 23.8751 117.036 25.5085ZM106.437 15.8194V21.6106H108.424C109.381 21.6106 110.08 21.425 110.522 21.0537C110.964 20.6454 111.185 20.0142 111.185 19.1604V18.2138C111.185 16.6175 110.264 15.8194 108.424 15.8194H106.437ZM111.847 32.2463C111.847 30.65 110.927 29.8519 109.087 29.8519H106.437V35.6431H109.087C110.044 35.6431 110.743 35.4575 111.185 35.0862C111.626 34.6779 111.847 34.0467 111.847 33.1929V32.2463ZM146.758 7.46667V16.0978H135.331V21.4435H145.654V30.0746H135.331V35.3646H146.758V43.9957H125.946V7.46667H146.758ZM161.207 7.46667V35.3646H172.634V43.9957H151.822V7.46667H161.207ZM186.38 7.46667V35.3646H197.808V43.9957H176.996V7.46667H186.38ZM209.108 44.7196C207.527 44.7196 206.22 44.2185 205.189 43.2162C204.195 42.1767 203.698 40.8589 203.698 39.2626C203.698 37.6292 204.195 36.3113 205.189 35.309C206.22 34.3066 207.527 33.8055 209.108 33.8055C210.729 33.8055 212.034 34.3066 213.028 35.309C214.022 36.3113 214.519 37.6292 214.519 39.2626C214.519 40.8959 214.022 42.2138 213.028 43.2162C212.034 44.2185 210.729 44.7196 209.108 44.7196Z" fill="#FF1818"/>
</svg>
